M48
;Layer_Color=9474304
;FILE_FORMAT=2:4
INCH,LZ
;TYPE=PLATED
T1F00S00C0.0100
T2F00S00C0.0150
T3F00S00C0.0200
T4F00S00C0.0276
T5F00S00C0.0315
T6F00S00C0.0320
T7F00S00C0.0350
T8F00S00C0.0354
T9F00S00C0.0360
T10F00S00C0.0394
T11F00S00C0.0450
T13F00S00C0.0945
T14F00S00C0.1181
T15F00S00C0.1575
;TYPE=NON_PLATED
T16F00S00C0.0394
%
T01
X0512Y023876
X05277Y023256
X049865Y028601
X04007Y02857
X03801Y02814
X03802Y02731
X03866Y02729
X0372Y03143
X038379Y033871
X038245Y035981
X03718Y0355
X04007Y033106
X051655Y036601
X055515Y033256
X05647Y033816
X05463Y041
X05918Y04306
T02
X054Y02263
X03539Y02951
T03
X05549Y04411
T04
X065935Y024197
Y024984
X066935Y025378
Y024591
T05
X065935Y030277
Y031064
X066935Y030671
X044485Y027961
X044495Y026961
Y025961
X043485
X042505
Y026961
X043485
X043475Y027961
X042495
X041485
X041495Y026961
Y025961
X041485Y023961
X042495
X043475
X044485
X056488Y040192
X059488Y040197
X065935Y037199
Y036412
X066935Y036805
Y037593
Y031458
T06
X036Y0275
Y0285
Y0305
Y0315
T07
X036Y03351
Y03449
Y0355
T08
X0625Y0305
X0615
X0605
X0595
X0585
X0575
X0565
X0555
Y0365
X0565
X0575
X0585
X0595
X0605
X0615
X0625
T09
X049265Y029961
Y030961
X050275
Y029961
X044465
X043485
Y030961
X044465
X042475
Y029961
Y031961
Y032961
Y033961
Y034961
Y035961
Y036961
Y037961
Y038961
X043485
X044465
Y037961
X043485
Y036961
X044465
Y035961
X043485
Y034961
X044465
Y033961
X043485
Y032961
X044465
Y031961
X043485
X037835Y036864
Y037874
Y038854
X049265Y038961
Y037961
X049255Y036961
Y035961
X050265
Y036961
X050275Y037961
Y038961
Y034961
X050265Y033961
X050275Y032961
X050265Y031961
X049255
X049265Y032961
X049255Y033961
X049265Y034961
T10
X047Y025
Y026
Y027
Y028
Y029
Y03
Y031
X053
Y03
Y029
Y028
Y027
Y026
Y025
Y032
Y033
Y034
Y035
Y036
Y037
Y038
Y039
X051654Y041535
X050669Y04252
X052638
X054843Y042008
X047Y039
Y038
Y037
Y036
Y035
Y034
Y033
Y032
X0625Y039319
Y0405
Y041681
X064921Y039646
T11
X063Y023
Y0278
X0582
X0572Y0254
X0582Y023
T13
X067841Y022386
Y027347
Y028466
Y033427
Y034601
Y039561
T14
X064772Y021
X068
X061543
X058315
X055087
X051858
X04863
X045402
X042173
X038945
X035717
X032488
Y023492
Y02672
Y029949
Y033177
Y036406
Y039634
Y042862
Y0455
X035717
X038945
X042173
X045402
X04863
X051858
X055087
X058315
X061543
X064772
X068
T15
X03812Y025676
Y04103
T16
X053843Y042008
M30
