G04 Layer_Physical_Order=1*
G04 Layer_Color=255*
%FSTAX24Y24*%
%MOIN*%
G70*
G01*
G75*
%ADD10R,0.0472X0.0315*%
%ADD11R,0.0600X0.0600*%
%ADD12R,0.0335X0.0472*%
%ADD13R,0.0500X0.0550*%
%ADD14R,0.0550X0.0500*%
%ADD15R,0.0472X0.0335*%
%ADD16R,0.0700X0.0700*%
%ADD17R,0.0354X0.0591*%
%ADD18C,0.0394*%
%ADD19C,0.0472*%
%ADD20C,0.0060*%
%ADD21C,0.0315*%
%ADD22C,0.0400*%
%ADD23C,0.0300*%
%ADD24C,0.0100*%
%ADD25C,0.0200*%
%ADD26C,0.0197*%
%ADD27O,0.0780X0.0700*%
%ADD28R,0.0866X0.0866*%
%ADD29O,0.0650X0.0750*%
%ADD30O,0.0750X0.0650*%
%ADD31O,0.0650X0.0680*%
%ADD32C,0.1181*%
%ADD33C,0.0787*%
%ADD34C,0.1772*%
%ADD35C,0.0630*%
%ADD36R,0.1000X0.0650*%
%ADD37O,0.1000X0.0650*%
%ADD38O,0.0850X0.0700*%
%ADD39R,0.0850X0.0700*%
%ADD40R,0.1000X0.1600*%
%ADD41R,0.1600X0.1000*%
%ADD42C,0.0591*%
%ADD43R,0.0591X0.0591*%
%ADD44C,0.0709*%
%ADD45C,0.0700*%
%ADD46C,0.1200*%
%ADD47C,0.0984*%
%ADD48C,0.0200*%
%ADD49C,0.0400*%
%ADD50C,0.0300*%
G36*
X036202Y032148D02*
X036208Y032079D01*
X036218Y032019D01*
X036232Y031967D01*
X03625Y031923D01*
X036272Y031887D01*
X036298Y031859D01*
X036328Y031839D01*
X036362Y031827D01*
X0364Y031823D01*
X0356D01*
X035638Y031827D01*
X035672Y031839D01*
X035702Y031859D01*
X035728Y031887D01*
X03575Y031923D01*
X035768Y031967D01*
X035782Y032019D01*
X035792Y032079D01*
X035798Y032148D01*
X0358Y032224D01*
X0362D01*
X036202Y032148D01*
D02*
G37*
G36*
X04377Y032754D02*
X043757Y032717D01*
X043744Y032677D01*
X043734Y032632D01*
X043718Y032529D01*
X043713Y032474D01*
X043718Y032392D01*
X043725Y032339D01*
X043744Y032245D01*
X043757Y032204D01*
X04377Y032167D01*
X043786Y032135D01*
X043214Y032191D01*
X043232Y032216D01*
X043247Y032246D01*
X043261Y032282D01*
X043272Y032323D01*
X043282Y032369D01*
X043291Y032421D01*
X043294Y032456D01*
X043291Y0325D01*
X043282Y032552D01*
X043272Y032598D01*
X043261Y032639D01*
X043247Y032675D01*
X043232Y032705D01*
X043214Y03273D01*
X043786Y032786D01*
X04377Y032754D01*
D02*
G37*
G36*
Y031754D02*
X043757Y031717D01*
X043744Y031677D01*
X043734Y031632D01*
X043718Y031529D01*
X043713Y031474D01*
X043718Y031393D01*
X043725Y031339D01*
X043744Y031245D01*
X043757Y031204D01*
X04377Y031167D01*
X043786Y031135D01*
X043214Y031191D01*
X043232Y031216D01*
X043247Y031246D01*
X043261Y031282D01*
X043272Y031323D01*
X043282Y031369D01*
X043291Y031421D01*
X043294Y031456D01*
X043291Y0315D01*
X043282Y031552D01*
X043272Y031598D01*
X043261Y031639D01*
X043247Y031675D01*
X043232Y031705D01*
X043214Y03173D01*
X043786Y031786D01*
X04377Y031754D01*
D02*
G37*
G36*
X046788Y031704D02*
X046783Y031707D01*
X046778Y031709D01*
X046772Y031709D01*
X046766Y031708D01*
X046759Y031706D01*
X046752Y031702D01*
X046744Y031698D01*
X046736Y031691D01*
X046727Y031684D01*
X046718Y031675D01*
X046671Y031713D01*
X04668Y031723D01*
X046687Y031731D01*
X046693Y031739D01*
X046697Y031746D01*
X0467Y031753D01*
X046702Y03176D01*
X046702Y031765D01*
X046701Y031771D01*
X046698Y031775D01*
X046694Y031779D01*
X046788Y031704D01*
D02*
G37*
G36*
X04377Y033754D02*
X043757Y033717D01*
X043744Y033677D01*
X043734Y033632D01*
X043718Y033529D01*
X043713Y033474D01*
X043718Y033393D01*
X043725Y033339D01*
X043744Y033245D01*
X043757Y033204D01*
X04377Y033167D01*
X043786Y033135D01*
X043214Y033191D01*
X043232Y033216D01*
X043247Y033246D01*
X043261Y033282D01*
X043272Y033323D01*
X043282Y033369D01*
X043291Y033421D01*
X043294Y033456D01*
X043291Y0335D01*
X043282Y033552D01*
X043272Y033598D01*
X043261Y033639D01*
X043247Y033675D01*
X043232Y033705D01*
X043214Y03373D01*
X043786Y033786D01*
X04377Y033754D01*
D02*
G37*
G36*
X055545Y033402D02*
X055547Y033393D01*
X055549Y033385D01*
X055551Y033376D01*
X055555Y033368D01*
X055559Y033359D01*
X055565Y033351D01*
X055571Y033343D01*
X055577Y033335D01*
X055585Y033327D01*
X055445D01*
X055453Y033335D01*
X055459Y033343D01*
X055465Y033351D01*
X055471Y033359D01*
X055475Y033368D01*
X055479Y033376D01*
X055481Y033385D01*
X055483Y033393D01*
X055485Y033402D01*
X055485Y033411D01*
X055545D01*
X055545Y033402D01*
D02*
G37*
G36*
X036335Y033273D02*
X036307Y033229D01*
X036282Y033182D01*
X03626Y033133D01*
X036242Y033081D01*
X036227Y033026D01*
X036215Y03297D01*
X036207Y03291D01*
X036202Y032848D01*
X0362Y032783D01*
X0358D01*
X035798Y032848D01*
X035793Y03291D01*
X035785Y03297D01*
X035773Y033026D01*
X035758Y033081D01*
X03574Y033133D01*
X035718Y033182D01*
X035693Y033229D01*
X035665Y033273D01*
X035634Y033315D01*
X036366D01*
X036335Y033273D01*
D02*
G37*
G36*
X046617Y03294D02*
X046616Y032946D01*
X046614Y032951D01*
X046611Y032955D01*
X046606Y032959D01*
X046601Y032963D01*
X046594Y032965D01*
X046585Y032967D01*
X046576Y032969D01*
X046565Y03297D01*
X046553Y03297D01*
Y03303D01*
X046565Y03303D01*
X046576Y033031D01*
X046585Y033033D01*
X046594Y033035D01*
X046601Y033037D01*
X046606Y033041D01*
X046611Y033045D01*
X046614Y033049D01*
X046616Y033054D01*
X046617Y03306D01*
Y03294D01*
D02*
G37*
G36*
X046675Y030803D02*
X046672Y030808D01*
X046668Y030811D01*
X046664Y030813D01*
X046659Y030814D01*
X046653Y030813D01*
X046647Y030811D01*
X04664Y030807D01*
X046633Y030801D01*
X046624Y030794D01*
X046615Y030786D01*
X046588Y030843D01*
X046597Y030852D01*
X046605Y030861D01*
X046611Y03087D01*
X046616Y030878D01*
X04662Y030885D01*
X046623Y030893D01*
X046624Y0309D01*
X046625Y030906D01*
X046624Y030913D01*
X046622Y030919D01*
X046675Y030803D01*
D02*
G37*
G36*
X051038Y038628D02*
Y029006D01*
X050355D01*
Y028773D01*
X050024D01*
X049865Y028839D01*
X049697Y028769D01*
X049627Y028601D01*
X049697Y028432D01*
X049865Y028363D01*
X050033Y028432D01*
X05004Y028448D01*
X050355D01*
Y028216D01*
X051038D01*
Y024047D01*
X051032Y024044D01*
X050962Y023876D01*
X051032Y023707D01*
X051089Y023684D01*
X051079Y023634D01*
X047741D01*
X047343Y024032D01*
Y024617D01*
X0474Y02464D01*
X047549Y025D01*
X0474Y02536D01*
X0471Y025484D01*
Y025538D01*
X047384Y025656D01*
X047506Y02595D01*
X046494D01*
X046616Y025656D01*
X0469Y025538D01*
Y025484D01*
X0466Y02536D01*
X046451Y025D01*
X0466Y02464D01*
X046657Y024617D01*
Y02389D01*
X046657Y02389D01*
X046757Y023647D01*
X047357Y023048D01*
X047357Y023048D01*
X047478Y022998D01*
X047599Y022948D01*
X047599Y022948D01*
X051645D01*
X051645Y022948D01*
X051888Y023048D01*
X052406Y023567D01*
X05335D01*
X05335Y023567D01*
X053593Y023667D01*
X054406Y024481D01*
X054456Y02446D01*
Y024245D01*
X054369Y024209D01*
X053578Y023418D01*
X052941D01*
X052938Y023424D01*
X05277Y023494D01*
X052602Y023424D01*
X052532Y023256D01*
X052602Y023087D01*
X05277Y023017D01*
X052938Y023087D01*
X052941Y023093D01*
X053645D01*
X05376Y023141D01*
X054409Y02379D01*
X054456Y023771D01*
Y023699D01*
X054623D01*
X054652Y023661D01*
X054652Y023649D01*
Y023087D01*
X055364D01*
Y023179D01*
X055431Y023207D01*
X055893Y023669D01*
X055893Y023669D01*
X055906Y023699D01*
X056096D01*
Y024359D01*
X056142Y024378D01*
X056553Y023968D01*
X056765Y02388D01*
X057671D01*
X057865Y023685D01*
X057855Y023636D01*
X057649Y023551D01*
X057569Y023358D01*
X057567Y023357D01*
X057521Y023326D01*
X057476Y0233D01*
X055992D01*
X055961Y023287D01*
X055636D01*
Y022713D01*
X055961D01*
X055992Y0227D01*
X057476D01*
X057521Y022674D01*
X057567Y022643D01*
X057569Y022642D01*
X057629Y022496D01*
X057596Y022446D01*
X055346D01*
Y02258D01*
X05501D01*
Y02263D01*
D01*
Y02258D01*
X054775D01*
Y022464D01*
X054772Y022467D01*
X054763Y02247D01*
X054748Y022472D01*
X054727Y022474D01*
X054674Y022477D01*
Y022446D01*
X05424D01*
X054212Y022488D01*
X05425Y02258D01*
X05375D01*
X053788Y022488D01*
X05376Y022446D01*
X046663D01*
X045876Y023234D01*
X045871Y023245D01*
X045866Y023257D01*
Y026377D01*
X046431Y026941D01*
X04648Y026931D01*
X0466Y02664D01*
X0469Y026516D01*
Y026462D01*
X046616Y026344D01*
X046494Y02605D01*
X047506D01*
X047384Y026344D01*
X0471Y026462D01*
Y026516D01*
X0474Y02664D01*
X047549Y027D01*
X0474Y02736D01*
X047121Y027475D01*
Y027525D01*
X0474Y02764D01*
X047549Y028D01*
X0474Y02836D01*
X047121Y028475D01*
Y028525D01*
X0474Y02864D01*
X047549Y029D01*
X0474Y02936D01*
X047121Y029475D01*
Y029525D01*
X0474Y02964D01*
X047549Y03D01*
X0474Y03036D01*
X047121Y030475D01*
Y030525D01*
X0474Y03064D01*
X047549Y031D01*
X0474Y03136D01*
X047121Y031475D01*
Y031525D01*
X0474Y03164D01*
X047549Y032D01*
X0474Y03236D01*
X047121Y032475D01*
Y032525D01*
X0474Y03264D01*
X047549Y033D01*
X0474Y03336D01*
X047121Y033475D01*
Y033525D01*
X0474Y03364D01*
X047549Y034D01*
X0474Y03436D01*
X047121Y034475D01*
Y034525D01*
X0474Y03464D01*
X047481Y034838D01*
X047719D01*
X047834Y034885D01*
X048747Y035798D01*
X04882D01*
X048914Y03557D01*
X049123Y035484D01*
Y035434D01*
X048924Y035351D01*
X048783Y035011D01*
Y034911D01*
X048924Y03457D01*
X049123Y034488D01*
Y034438D01*
X048914Y034351D01*
X048773Y034011D01*
Y033911D01*
X048914Y03357D01*
X049123Y033484D01*
Y033434D01*
X048924Y033351D01*
X048783Y033011D01*
Y032911D01*
X048924Y03257D01*
X049123Y032488D01*
Y032438D01*
X048914Y032351D01*
X048773Y032011D01*
Y031911D01*
X048914Y03157D01*
X049123Y031484D01*
Y031434D01*
X048924Y031351D01*
X048783Y031011D01*
Y030911D01*
X048924Y03057D01*
X049128Y030486D01*
Y030436D01*
X048924Y030351D01*
X048783Y030011D01*
Y029911D01*
X048924Y02957D01*
X049265Y029429D01*
X049606Y02957D01*
X049747Y029911D01*
X049793D01*
X049934Y02957D01*
X050275Y029429D01*
X050616Y02957D01*
X050757Y029911D01*
Y030011D01*
X050616Y030351D01*
X050412Y030436D01*
Y030486D01*
X050616Y03057D01*
X050757Y030911D01*
Y031011D01*
X050616Y031351D01*
X050365Y031455D01*
Y031505D01*
X050606Y031605D01*
X050747Y031946D01*
Y031976D01*
X050606Y032316D01*
X050327Y032431D01*
Y032486D01*
X050616Y032605D01*
X050757Y032946D01*
Y032976D01*
X050616Y033316D01*
X050327Y033436D01*
Y03349D01*
X050606Y033605D01*
X050747Y033946D01*
Y033976D01*
X050606Y034316D01*
X050327Y034432D01*
Y034486D01*
X050616Y034605D01*
X050757Y034946D01*
Y034976D01*
X050616Y035316D01*
X050365Y03542D01*
Y03547D01*
X050606Y03557D01*
X050747Y035911D01*
Y036011D01*
X050606Y036351D01*
X050402Y036436D01*
Y036486D01*
X050606Y03657D01*
X050747Y036911D01*
Y037011D01*
X050606Y037351D01*
X050407Y037434D01*
Y037484D01*
X050616Y03757D01*
X050757Y037911D01*
Y038011D01*
X050616Y038351D01*
X050412Y038436D01*
Y038486D01*
X050616Y03857D01*
X05071Y038798D01*
X050868D01*
X051038Y038628D01*
D02*
G37*
G36*
X056761Y030203D02*
X056748Y030183D01*
X056737Y030161D01*
X056727Y030136D01*
X056719Y030108D01*
X056712Y030077D01*
X056707Y030044D01*
X056703Y030007D01*
X0567Y029925D01*
X0563D01*
X056299Y029967D01*
X056293Y030044D01*
X056288Y030077D01*
X056281Y030108D01*
X056273Y030136D01*
X056263Y030161D01*
X056252Y030183D01*
X056239Y030203D01*
X056224Y030219D01*
X056776D01*
X056761Y030203D01*
D02*
G37*
G36*
X051655Y028933D02*
X051656Y028922D01*
X051658Y028913D01*
X05166Y028905D01*
X051663Y028899D01*
X051666Y028893D01*
X05167Y028889D01*
X051674Y028886D01*
X051679Y028884D01*
X051685Y028883D01*
X051565D01*
X051571Y028884D01*
X051576Y028886D01*
X05158Y028889D01*
X051584Y028893D01*
X051588Y028899D01*
X05159Y028905D01*
X051592Y028913D01*
X051594Y028922D01*
X051595Y028933D01*
X051595Y028944D01*
X051655D01*
X051655Y028933D01*
D02*
G37*
G36*
X04377Y029754D02*
X043757Y029717D01*
X043744Y029677D01*
X043734Y029632D01*
X043718Y029529D01*
X043712Y029471D01*
X043705Y029272D01*
X043305Y02924D01*
X043304Y029313D01*
X043291Y0295D01*
X043282Y029552D01*
X043272Y029598D01*
X043261Y029639D01*
X043247Y029675D01*
X043232Y029705D01*
X043214Y02973D01*
X043786Y029786D01*
X04377Y029754D01*
D02*
G37*
G36*
Y030754D02*
X043757Y030717D01*
X043744Y030677D01*
X043734Y030632D01*
X043718Y030529D01*
X043713Y030474D01*
X043718Y030392D01*
X043725Y030339D01*
X043744Y030245D01*
X043757Y030204D01*
X04377Y030167D01*
X043786Y030135D01*
X043214Y030191D01*
X043232Y030216D01*
X043247Y030246D01*
X043261Y030282D01*
X043272Y030323D01*
X043282Y030369D01*
X043291Y030421D01*
X043294Y030456D01*
X043291Y0305D01*
X043282Y030552D01*
X043272Y030598D01*
X043261Y030639D01*
X043247Y030675D01*
X043232Y030705D01*
X043214Y03073D01*
X043786Y030786D01*
X04377Y030754D01*
D02*
G37*
G36*
X056701Y031033D02*
X056707Y030956D01*
X056712Y030923D01*
X056719Y030892D01*
X056727Y030864D01*
X056737Y030839D01*
X056748Y030817D01*
X056761Y030797D01*
X056776Y030781D01*
X056224D01*
X056239Y030797D01*
X056252Y030817D01*
X056263Y030839D01*
X056273Y030864D01*
X056281Y030892D01*
X056288Y030923D01*
X056293Y030956D01*
X056297Y030993D01*
X0563Y031075D01*
X0567D01*
X056701Y031033D01*
D02*
G37*
G36*
X052613Y029928D02*
X052611Y029936D01*
X052608Y029943D01*
X052604Y02995D01*
X052598Y029955D01*
X052592Y02996D01*
X052585Y029963D01*
X052576Y029966D01*
X052567Y029968D01*
X052557Y02997D01*
X052545Y02997D01*
Y03003D01*
X052557Y03003D01*
X052567Y030032D01*
X052576Y030034D01*
X052585Y030037D01*
X052592Y03004D01*
X052598Y030045D01*
X052604Y03005D01*
X052608Y030057D01*
X052611Y030064D01*
X052613Y030072D01*
Y029928D01*
D02*
G37*
G36*
X055496Y030106D02*
X055474Y030105D01*
X05545Y030101D01*
X055426Y030093D01*
X055401Y030082D01*
X055375Y030068D01*
X055348Y030052D01*
X05532Y030031D01*
X055291Y030008D01*
X055231Y029953D01*
X054953Y030231D01*
X054982Y030262D01*
X055031Y03032D01*
X055052Y030348D01*
X055068Y030375D01*
X055082Y030401D01*
X055093Y030426D01*
X055101Y03045D01*
X055105Y030474D01*
X055106Y030496D01*
X055496Y030106D01*
D02*
G37*
G36*
X0565Y033962D02*
X056502Y033953D01*
X056504Y033945D01*
X056506Y033936D01*
X05651Y033928D01*
X056514Y033919D01*
X05652Y033911D01*
X056526Y033903D01*
X056532Y033895D01*
X05654Y033887D01*
X0564D01*
X056408Y033895D01*
X056414Y033903D01*
X05642Y033911D01*
X056426Y033919D01*
X05643Y033928D01*
X056434Y033936D01*
X056436Y033945D01*
X056438Y033953D01*
X05644Y033962D01*
X05644Y033971D01*
X0565D01*
X0565Y033962D01*
D02*
G37*
G36*
X038174Y035911D02*
X038166Y035918D01*
X038158Y035925D01*
X03815Y035931D01*
X038141Y035936D01*
X038133Y035941D01*
X038125Y035944D01*
X038116Y035947D01*
X038107Y035949D01*
X038099Y03595D01*
X03809Y035951D01*
Y036011D01*
X038099Y036011D01*
X038107Y036012D01*
X038116Y036014D01*
X038125Y036017D01*
X038133Y036021D01*
X038141Y036025D01*
X03815Y03603D01*
X038158Y036036D01*
X038166Y036043D01*
X038174Y036051D01*
Y035911D01*
D02*
G37*
G36*
X058761Y036203D02*
X058748Y036183D01*
X058737Y036161D01*
X058727Y036136D01*
X058719Y036108D01*
X058712Y036077D01*
X058707Y036044D01*
X058703Y036007D01*
X0587Y035925D01*
X0583D01*
X058299Y035967D01*
X058293Y036044D01*
X058288Y036077D01*
X058281Y036108D01*
X058273Y036136D01*
X058263Y036161D01*
X058252Y036183D01*
X058239Y036203D01*
X058224Y036219D01*
X058776D01*
X058761Y036203D01*
D02*
G37*
G36*
X044789Y036015D02*
X044791Y03601D01*
X044794Y036005D01*
X044798Y036001D01*
X044804Y035998D01*
X044811Y035995D01*
X044819Y035993D01*
X044828Y035992D01*
X044839Y035991D01*
X04485Y035991D01*
Y035931D01*
X044839Y03593D01*
X044828Y035929D01*
X044819Y035928D01*
X044811Y035926D01*
X044804Y035923D01*
X044798Y03592D01*
X044794Y035916D01*
X044791Y035912D01*
X044789Y035906D01*
X044788Y035901D01*
Y036021D01*
X044789Y036015D01*
D02*
G37*
G36*
X048932Y035901D02*
X048931Y035906D01*
X048929Y035912D01*
X048926Y035916D01*
X048922Y03592D01*
X048916Y035923D01*
X048909Y035926D01*
X048901Y035928D01*
X048892Y035929D01*
X048881Y03593D01*
X04887Y035931D01*
Y035991D01*
X048881Y035991D01*
X048892Y035992D01*
X048901Y035993D01*
X048909Y035995D01*
X048916Y035998D01*
X048922Y036001D01*
X048926Y036005D01*
X048929Y03601D01*
X048931Y036015D01*
X048932Y036021D01*
Y035901D01*
D02*
G37*
G36*
X050135Y036353D02*
X050144Y036346D01*
X050152Y03634D01*
X05016Y036335D01*
X050168Y036331D01*
X050175Y036328D01*
X050182Y036326D01*
X050189Y036326D01*
X050195Y036327D01*
X050201Y036328D01*
X050082Y036278D01*
X050088Y036281D01*
X050091Y036285D01*
X050094Y036289D01*
X050094Y036294D01*
X050093Y036299D01*
X050091Y036305D01*
X050087Y036312D01*
X050082Y03632D01*
X050075Y036328D01*
X050066Y036337D01*
X050126Y036362D01*
X050135Y036353D01*
D02*
G37*
G36*
X058701Y037033D02*
X058707Y036956D01*
X058712Y036923D01*
X058719Y036892D01*
X058727Y036864D01*
X058737Y036839D01*
X058748Y036817D01*
X058761Y036797D01*
X058776Y036781D01*
X058224D01*
X058239Y036797D01*
X058252Y036817D01*
X058263Y036839D01*
X058273Y036864D01*
X058281Y036892D01*
X058288Y036923D01*
X058293Y036956D01*
X058297Y036993D01*
X0583Y037075D01*
X0587D01*
X058701Y037033D01*
D02*
G37*
G36*
X036907Y036279D02*
X036909Y03627D01*
X036911Y036262D01*
X036914Y036253D01*
X036918Y036245D01*
X036923Y036237D01*
X036928Y036228D01*
X036935Y036219D01*
X036942Y036211D01*
X036951Y036202D01*
Y036117D01*
X036942Y036125D01*
X036935Y036131D01*
X036928Y036135D01*
X036923Y036138D01*
X036918Y036139D01*
X036914Y036138D01*
X036911Y036135D01*
X036909Y036131D01*
X036907Y036125D01*
X036907Y036117D01*
Y036287D01*
X036907Y036279D01*
D02*
G37*
G36*
X04377Y036754D02*
X043757Y036717D01*
X043744Y036677D01*
X043734Y036632D01*
X043718Y036529D01*
X043713Y036474D01*
X043718Y036393D01*
X043725Y036339D01*
X043744Y036245D01*
X043757Y036204D01*
X04377Y036167D01*
X043786Y036135D01*
X043214Y036191D01*
X043232Y036216D01*
X043247Y036246D01*
X043261Y036282D01*
X043272Y036323D01*
X043282Y036369D01*
X043291Y036421D01*
X043294Y036456D01*
X043291Y0365D01*
X043282Y036552D01*
X043272Y036598D01*
X043261Y036639D01*
X043247Y036675D01*
X043232Y036705D01*
X043214Y03673D01*
X043786Y036786D01*
X04377Y036754D01*
D02*
G37*
G36*
X05574Y03618D02*
X055605Y036013D01*
X055584Y035979D01*
X055567Y035948D01*
X055555Y03592D01*
X055547Y035895D01*
X055545Y035873D01*
X055485Y03587D01*
X055483Y035894D01*
X055475Y03592D01*
X055463Y035948D01*
X055445Y035978D01*
X055423Y036011D01*
X055395Y036046D01*
X055325Y036122D01*
X055283Y036164D01*
X055235Y036209D01*
X055786Y03623D01*
X05574Y03618D01*
D02*
G37*
G36*
X04377Y034754D02*
X043757Y034717D01*
X043744Y034677D01*
X043734Y034632D01*
X043718Y034529D01*
X043713Y034474D01*
X043718Y034392D01*
X043725Y034339D01*
X043744Y034245D01*
X043757Y034204D01*
X04377Y034167D01*
X043786Y034135D01*
X043214Y034191D01*
X043232Y034216D01*
X043247Y034246D01*
X043261Y034282D01*
X043272Y034323D01*
X043282Y034369D01*
X043291Y034421D01*
X043294Y034456D01*
X043291Y0345D01*
X043282Y034552D01*
X043272Y034598D01*
X043261Y034639D01*
X043247Y034675D01*
X043232Y034705D01*
X043214Y03473D01*
X043786Y034786D01*
X04377Y034754D01*
D02*
G37*
G36*
X046617Y03494D02*
X046616Y034946D01*
X046614Y034951D01*
X046611Y034955D01*
X046606Y034959D01*
X046601Y034963D01*
X046594Y034965D01*
X046585Y034967D01*
X046576Y034969D01*
X046565Y03497D01*
X046553Y03497D01*
Y03503D01*
X046565Y03503D01*
X046576Y035031D01*
X046585Y035033D01*
X046594Y035035D01*
X046601Y035037D01*
X046606Y035041D01*
X046611Y035045D01*
X046614Y035049D01*
X046616Y035054D01*
X046617Y03506D01*
Y03494D01*
D02*
G37*
G36*
Y03394D02*
X046616Y033946D01*
X046614Y033951D01*
X046611Y033955D01*
X046606Y033959D01*
X046601Y033963D01*
X046594Y033965D01*
X046585Y033967D01*
X046576Y033969D01*
X046565Y03397D01*
X046553Y03397D01*
Y03403D01*
X046565Y03403D01*
X046576Y034031D01*
X046585Y034033D01*
X046594Y034035D01*
X046601Y034037D01*
X046606Y034041D01*
X046611Y034045D01*
X046614Y034049D01*
X046616Y034054D01*
X046617Y03406D01*
Y03394D01*
D02*
G37*
G36*
X03531Y034338D02*
X035297Y034327D01*
X035286Y03431D01*
X035277Y034285D01*
X035268Y034253D01*
X035262Y034215D01*
X035257Y034169D01*
X035251Y034057D01*
X03525Y03399D01*
X03485D01*
X034849Y034057D01*
X034838Y034215D01*
X034832Y034253D01*
X034823Y034285D01*
X034814Y03431D01*
X034803Y034327D01*
X03479Y034338D01*
X034776Y034341D01*
X035324D01*
X03531Y034338D01*
D02*
G37*
G36*
X035577Y035642D02*
X035624Y03564D01*
Y03534D01*
X035577Y035339D01*
Y03519D01*
X035574Y035219D01*
X035565Y035244D01*
X03555Y035266D01*
X035529Y035286D01*
X035502Y035303D01*
X035469Y035316D01*
X035436Y035325D01*
X035432Y035324D01*
X035399Y035315D01*
X035372Y035304D01*
X035351Y035292D01*
X035336Y035277D01*
X035327Y03526D01*
X035324Y035241D01*
Y035339D01*
X035276Y03534D01*
Y03564D01*
X035324Y035641D01*
Y035739D01*
X035327Y03572D01*
X035336Y035703D01*
X035351Y035688D01*
X035372Y035676D01*
X035399Y035665D01*
X035432Y035656D01*
X035436Y035655D01*
X035469Y035664D01*
X035502Y035677D01*
X035529Y035694D01*
X03555Y035714D01*
X035565Y035736D01*
X035574Y035761D01*
X035577Y03579D01*
Y035642D01*
D02*
G37*
G36*
X056753Y036199D02*
X056705Y036157D01*
X056591Y036044D01*
X056563Y03601D01*
X056541Y035978D01*
X056523Y035948D01*
X05651Y03592D01*
X056503Y035894D01*
X0565Y03587D01*
X05644Y035875D01*
X056438Y035896D01*
X056431Y03592D01*
X056419Y035948D01*
X056402Y035979D01*
X056381Y036014D01*
X056324Y036094D01*
X056249Y036188D01*
X056204Y036241D01*
X056753Y036199D01*
D02*
G37*
G36*
X047384Y035054D02*
X047386Y035049D01*
X047389Y035045D01*
X047394Y035041D01*
X047399Y035037D01*
X047406Y035035D01*
X047415Y035033D01*
X047424Y035031D01*
X047435Y03503D01*
X047447Y03503D01*
Y03497D01*
X047435Y03497D01*
X047424Y034969D01*
X047415Y034967D01*
X047406Y034965D01*
X047399Y034963D01*
X047394Y034959D01*
X047389Y034955D01*
X047386Y034951D01*
X047384Y034946D01*
X047383Y03494D01*
Y03506D01*
X047384Y035054D01*
D02*
G37*
G36*
X04377Y035754D02*
X043757Y035717D01*
X043744Y035677D01*
X043734Y035632D01*
X043718Y035529D01*
X043713Y035474D01*
X043718Y035392D01*
X043725Y035339D01*
X043744Y035245D01*
X043757Y035204D01*
X04377Y035167D01*
X043786Y035135D01*
X043214Y035191D01*
X043232Y035216D01*
X043247Y035246D01*
X043261Y035282D01*
X043272Y035323D01*
X043282Y035369D01*
X043291Y035421D01*
X043294Y035456D01*
X043291Y0355D01*
X043282Y035552D01*
X043272Y035598D01*
X043261Y035639D01*
X043247Y035675D01*
X043232Y035705D01*
X043214Y03573D01*
X043786Y035786D01*
X04377Y035754D01*
D02*
G37*
G36*
X050477Y028551D02*
X050477Y028556D01*
X050475Y028561D01*
X050472Y028566D01*
X050468Y02857D01*
X050462Y028573D01*
X050455Y028576D01*
X050447Y028578D01*
X050438Y028579D01*
X050428Y02858D01*
X050416Y028581D01*
Y028641D01*
X050428Y028641D01*
X050438Y028642D01*
X050447Y028643D01*
X050455Y028645D01*
X050462Y028648D01*
X050468Y028651D01*
X050472Y028655D01*
X050475Y02866D01*
X050477Y028665D01*
X050477Y028671D01*
Y028551D01*
D02*
G37*
G36*
X05572Y025678D02*
X055707Y025671D01*
X055695Y02566D01*
X055685Y025643D01*
X055677Y025622D01*
X05567Y025596D01*
X055664Y025565D01*
X055661Y02553D01*
X055657Y025445D01*
X055343D01*
X055342Y02549D01*
X055336Y025565D01*
X05533Y025596D01*
X055323Y025622D01*
X055315Y025643D01*
X055305Y02566D01*
X055293Y025671D01*
X05528Y025678D01*
X055265Y025681D01*
X055735D01*
X05572Y025678D01*
D02*
G37*
G36*
X042718Y025729D02*
X042714Y025723D01*
X04271Y025714D01*
X042706Y025701D01*
X042703Y025685D01*
X042695Y025556D01*
X042695Y02552D01*
X042295Y025537D01*
X042295Y025573D01*
X042292Y02566D01*
X042289Y025701D01*
X042286Y025717D01*
X042284Y025729D01*
X042281Y025737D01*
X042277Y025743D01*
X042491Y025961D01*
X042718Y025729D01*
D02*
G37*
G36*
X042695Y024357D02*
X042705Y024213D01*
X042708Y0242D01*
X042712Y024191D01*
X042715Y024186D01*
X042275D01*
X042278Y024191D01*
X042282Y0242D01*
X042285Y024213D01*
X042288Y024228D01*
X042292Y02427D01*
X042294Y024325D01*
X042295Y024393D01*
X042695D01*
X042695Y024357D01*
D02*
G37*
G36*
X047261Y024702D02*
X047247Y024682D01*
X047235Y02466D01*
X047225Y024634D01*
X047217Y024606D01*
X047209Y024575D01*
X047204Y024541D01*
X0472Y024505D01*
X047197Y024423D01*
X046803D01*
X046802Y024465D01*
X046796Y024541D01*
X046791Y024575D01*
X046783Y024606D01*
X046775Y024634D01*
X046765Y02466D01*
X046753Y024682D01*
X046739Y024702D01*
X046724Y024719D01*
X047276D01*
X047261Y024702D01*
D02*
G37*
G36*
X044547Y026438D02*
X044552Y026415D01*
X04456Y026391D01*
X044572Y026365D01*
X044588Y026338D01*
X044606Y02631D01*
X044629Y02628D01*
X044683Y026218D01*
X044715Y026186D01*
X044275D01*
X044307Y026218D01*
X044361Y02628D01*
X044384Y02631D01*
X044402Y026338D01*
X044418Y026365D01*
X04443Y026391D01*
X044438Y026415D01*
X044443Y026438D01*
X044445Y026461D01*
X044545D01*
X044547Y026438D01*
D02*
G37*
G36*
X043673Y026703D02*
X043619Y026641D01*
X043596Y026611D01*
X043578Y026583D01*
X043562Y026556D01*
X04355Y026531D01*
X043542Y026506D01*
X043537Y026483D01*
X043535Y026461D01*
X043435D01*
X043433Y026483D01*
X043428Y026506D01*
X04342Y026531D01*
X043408Y026556D01*
X043392Y026583D01*
X043374Y026611D01*
X043351Y026641D01*
X043297Y026703D01*
X043265Y026736D01*
X043705D01*
X043673Y026703D01*
D02*
G37*
G36*
X042695Y026365D02*
X042703Y026236D01*
X042706Y02622D01*
X04271Y026208D01*
X042714Y026198D01*
X042718Y026192D01*
X042491Y025961D01*
X042277Y026178D01*
X042281Y026184D01*
X042284Y026193D01*
X042286Y026205D01*
X042289Y02622D01*
X042292Y026261D01*
X042295Y026349D01*
X042295Y026384D01*
X042695Y026401D01*
X042695Y026365D01*
D02*
G37*
G36*
X043537Y026438D02*
X043542Y026415D01*
X04355Y026391D01*
X043562Y026365D01*
X043578Y026338D01*
X043596Y02631D01*
X043619Y02628D01*
X043673Y026218D01*
X043705Y026186D01*
X043265D01*
X043297Y026218D01*
X043351Y02628D01*
X043374Y02631D01*
X043392Y026338D01*
X043408Y026365D01*
X04342Y026391D01*
X043428Y026415D01*
X043433Y026438D01*
X043435Y026461D01*
X043535D01*
X043537Y026438D01*
D02*
G37*
G36*
X054578Y024034D02*
X054577Y02404D01*
X054576Y024045D01*
X054572Y02405D01*
X054568Y024054D01*
X054563Y024057D01*
X054556Y02406D01*
X054548Y024062D01*
X054539Y024063D01*
X054528Y024064D01*
X054517Y024064D01*
Y024124D01*
X054528Y024125D01*
X054539Y024126D01*
X054548Y024127D01*
X054556Y024129D01*
X054563Y024132D01*
X054568Y024135D01*
X054572Y024139D01*
X054576Y024144D01*
X054577Y024149D01*
X054578Y024154D01*
Y024034D01*
D02*
G37*
G36*
X045723Y023504D02*
X045731Y023428D01*
X045745Y023353D01*
X045765Y023282D01*
X045791Y023212D01*
X045822Y023145D01*
X045859Y02308D01*
X045901Y023018D01*
X045949Y022958D01*
X046003Y0229D01*
X04552Y0231D01*
X04572Y023583D01*
X045723Y023504D01*
D02*
G37*
G36*
X042699Y023774D02*
X042706Y023736D01*
X042715D01*
X042712Y02373D01*
X042708Y023721D01*
X042711Y023706D01*
X042731Y023646D01*
X042759Y023594D01*
X042795Y02355D01*
X042839Y023514D01*
X042891Y023486D01*
X042951Y023466D01*
X043019Y023454D01*
X043095Y02345D01*
X042495Y02305D01*
X041895Y02345D01*
X041971Y023454D01*
X042039Y023466D01*
X042099Y023486D01*
X042151Y023514D01*
X042195Y02355D01*
X042231Y023594D01*
X042259Y023646D01*
X042279Y023706D01*
X042282Y023721D01*
X042278Y02373D01*
X042275Y023736D01*
X042284D01*
X042291Y023774D01*
X042295Y02385D01*
X042695D01*
X042699Y023774D01*
D02*
G37*
G36*
X057772Y02258D02*
X05772Y02263D01*
X057669Y022675D01*
X057618Y022714D01*
X057566Y022748D01*
X057515Y022777D01*
X057464Y022801D01*
X057413Y022819D01*
X057362Y022832D01*
X057312Y02284D01*
X057261Y022843D01*
Y023157D01*
X057312Y02316D01*
X057362Y023168D01*
X057413Y023181D01*
X057464Y023199D01*
X057515Y023223D01*
X057566Y023252D01*
X057618Y023286D01*
X057669Y023325D01*
X05772Y02337D01*
X057772Y02342D01*
Y02258D01*
D02*
G37*
G36*
X05623Y023164D02*
X05624Y023163D01*
X056255Y023162D01*
X056381Y023158D01*
X056542Y023157D01*
Y022843D01*
X056227Y022834D01*
Y023166D01*
X05623Y023164D01*
D02*
G37*
G36*
X055949Y023819D02*
X055921Y023812D01*
X055892Y023802D01*
X055861Y023787D01*
X055829Y023768D01*
X055794Y023746D01*
X055759Y023718D01*
X055682Y023652D01*
X055641Y023612D01*
X055432Y023681D01*
X055458Y023708D01*
X055495Y023752D01*
X055506Y023771D01*
X055513Y023786D01*
X055515Y023798D01*
X055512Y023808D01*
X055505Y023815D01*
X055493Y023819D01*
X055477Y023821D01*
X055974D01*
X055949Y023819D01*
D02*
G37*
G36*
X05123Y024022D02*
X051232Y024013D01*
X051234Y024005D01*
X051236Y023996D01*
X05124Y023988D01*
X051244Y023979D01*
X05125Y023971D01*
X051256Y023963D01*
X051262Y023955D01*
X05127Y023947D01*
X05113D01*
X051138Y023955D01*
X051144Y023963D01*
X05115Y023971D01*
X051156Y023979D01*
X05116Y023988D01*
X051164Y023996D01*
X051166Y024005D01*
X051168Y024013D01*
X05117Y024022D01*
X05117Y024031D01*
X05123D01*
X05123Y024022D01*
D02*
G37*
G36*
X052849Y023318D02*
X052857Y023311D01*
X052865Y023305D01*
X052874Y0233D01*
X052882Y023296D01*
X05289Y023292D01*
X052899Y023289D01*
X052908Y023287D01*
X052916Y023286D01*
X052925Y023286D01*
Y023226D01*
X052916Y023225D01*
X052908Y023224D01*
X052899Y023222D01*
X05289Y023219D01*
X052882Y023216D01*
X052874Y023211D01*
X052865Y023206D01*
X052857Y0232D01*
X052849Y023193D01*
X052841Y023186D01*
Y023326D01*
X052849Y023318D01*
D02*
G37*
G36*
X058358Y023738D02*
X058365Y023648D01*
X058369Y023625D01*
X058374Y023606D01*
X05838Y02359D01*
X058387Y023578D01*
X058395Y023569D01*
X058404Y023564D01*
X057996D01*
X058005Y023569D01*
X058013Y023578D01*
X05802Y02359D01*
X058026Y023606D01*
X058031Y023625D01*
X058035Y023648D01*
X058038Y023675D01*
X058042Y023738D01*
X058043Y023775D01*
X058357D01*
X058358Y023738D01*
D02*
G37*
G36*
X044683Y026703D02*
X044629Y026641D01*
X044606Y026611D01*
X044588Y026583D01*
X044572Y026556D01*
X04456Y026531D01*
X044552Y026506D01*
X044547Y026483D01*
X044545Y026461D01*
X044445D01*
X044443Y026483D01*
X044438Y026506D01*
X04443Y026531D01*
X044418Y026556D01*
X044402Y026583D01*
X044384Y026611D01*
X044361Y026641D01*
X044307Y026703D01*
X044275Y026736D01*
X044715D01*
X044683Y026703D01*
D02*
G37*
G36*
X042942Y028125D02*
X042917Y028099D01*
X042822Y02799D01*
X042815Y027979D01*
X042811Y027971D01*
X04281Y027964D01*
X042498Y028276D01*
X042505Y028277D01*
X042514Y028281D01*
X042525Y028287D01*
X042538Y028297D01*
X04257Y028323D01*
X04261Y02836D01*
X042659Y028408D01*
X042942Y028125D01*
D02*
G37*
G36*
X044517Y028435D02*
X044522Y028413D01*
X044531Y028391D01*
X044544Y028366D01*
X04456Y028341D01*
X04458Y028314D01*
X044603Y028286D01*
X044661Y028227D01*
X044695Y028195D01*
X044275D01*
X044309Y028227D01*
X044367Y028286D01*
X04439Y028314D01*
X04441Y028341D01*
X044426Y028366D01*
X044439Y028391D01*
X044448Y028413D01*
X044453Y028435D01*
X044455Y028456D01*
X044515D01*
X044517Y028435D01*
D02*
G37*
G36*
X055833Y028121D02*
X055845Y028095D01*
X055865Y028073D01*
X055893Y028054D01*
X055929Y028037D01*
X055973Y028024D01*
X056025Y028013D01*
X056085Y028006D01*
X056153Y028001D01*
X056229Y028D01*
Y0276D01*
X056153Y027599D01*
X056025Y027587D01*
X055973Y027576D01*
X055929Y027563D01*
X055893Y027546D01*
X055865Y027527D01*
X055845Y027505D01*
X055833Y027479D01*
X055829Y027451D01*
Y028149D01*
X055833Y028121D01*
D02*
G37*
G36*
X042712Y02773D02*
X042708Y027721D01*
X042705Y027709D01*
X042702Y027693D01*
X042698Y027651D01*
X042696Y027597D01*
X042695Y027528D01*
X042295D01*
X042295Y027564D01*
X042285Y027709D01*
X042282Y027721D01*
X042278Y02773D01*
X042275Y027736D01*
X042715D01*
X042712Y02773D01*
D02*
G37*
G36*
X036494Y028554D02*
X036496Y028549D01*
X036499Y028545D01*
X036504Y028541D01*
X036509Y028537D01*
X036516Y028535D01*
X036525Y028533D01*
X036534Y028531D01*
X036545Y02853D01*
X036557Y02853D01*
Y02847D01*
X036545Y02847D01*
X036534Y028469D01*
X036525Y028467D01*
X036516Y028465D01*
X036509Y028463D01*
X036504Y028459D01*
X036499Y028455D01*
X036496Y028451D01*
X036494Y028446D01*
X036493Y02844D01*
Y02856D01*
X036494Y028554D01*
D02*
G37*
G36*
X037803Y028584D02*
X037805Y028579D01*
X037808Y028575D01*
X037812Y028571D01*
X037818Y028568D01*
X037825Y028565D01*
X037833Y028563D01*
X037842Y028561D01*
X037852Y02856D01*
X037864Y02856D01*
Y0285D01*
X037852Y0285D01*
X037842Y028499D01*
X037833Y028497D01*
X037825Y028495D01*
X037818Y028493D01*
X037812Y028489D01*
X037808Y028485D01*
X037805Y028481D01*
X037803Y028476D01*
X037803Y02847D01*
Y02859D01*
X037803Y028584D01*
D02*
G37*
G36*
X043505Y028329D02*
X043507Y028318D01*
X043509Y028308D01*
X043512Y028299D01*
X043516Y028291D01*
X043522Y028284D01*
X043527Y028278D01*
X043534Y028273D01*
X043542Y028269D01*
X043551Y028266D01*
X043399D01*
X043408Y028269D01*
X043416Y028273D01*
X043423Y028278D01*
X043428Y028284D01*
X043434Y028291D01*
X043438Y028299D01*
X043441Y028308D01*
X043443Y028318D01*
X043445Y028329D01*
X043445Y028341D01*
X043505D01*
X043505Y028329D01*
D02*
G37*
G36*
X037256Y02844D02*
X037256Y028446D01*
X037254Y028451D01*
X037251Y028455D01*
X037247Y028459D01*
X037241Y028463D01*
X037235Y028465D01*
X037227Y028467D01*
X037218Y028469D01*
X037208Y02847D01*
X037196Y02847D01*
Y02853D01*
X037208Y02853D01*
X037218Y028531D01*
X037227Y028533D01*
X037235Y028535D01*
X037241Y028537D01*
X037247Y028541D01*
X037251Y028545D01*
X037254Y028549D01*
X037256Y028554D01*
X037256Y02856D01*
Y02844D01*
D02*
G37*
G36*
X057772Y02738D02*
X057728Y027422D01*
X057683Y027459D01*
X057636Y027492D01*
X057588Y027521D01*
X057539Y027545D01*
X057489Y027565D01*
X057437Y02758D01*
X057384Y027591D01*
X05733Y027598D01*
X057274Y0276D01*
Y028D01*
X05733Y028002D01*
X057384Y028009D01*
X057437Y02802D01*
X057489Y028035D01*
X057539Y028055D01*
X057588Y028079D01*
X057636Y028108D01*
X057683Y028141D01*
X057728Y028178D01*
X057772Y02822D01*
Y02738D01*
D02*
G37*
G36*
X044532Y026995D02*
X044536Y026994D01*
X044542Y026993D01*
X044559Y026992D01*
X044635Y026991D01*
Y026931D01*
X04453Y026925D01*
Y026996D01*
X044532Y026995D01*
D02*
G37*
G36*
X043515Y027082D02*
X04352Y026997D01*
X043522Y026995D01*
X043448D01*
X04345Y026997D01*
X043451Y027001D01*
X043452Y027007D01*
X043453Y027015D01*
X043454Y02705D01*
X043455Y027101D01*
X043515D01*
X043515Y027082D01*
D02*
G37*
G36*
X042718Y026729D02*
X042714Y026723D01*
X04271Y026714D01*
X042706Y026701D01*
X042703Y026685D01*
X042701Y026666D01*
X042697Y026618D01*
X042695Y02652D01*
X042295Y026537D01*
X042295Y026573D01*
X042286Y026717D01*
X042284Y026729D01*
X042281Y026737D01*
X042277Y026743D01*
X042718Y026729D01*
D02*
G37*
G36*
X044756Y027145D02*
X044854Y027059D01*
X044883Y027038D01*
X044909Y027021D01*
X044934Y027008D01*
X044957Y026998D01*
X044978Y026993D01*
X044998Y026991D01*
Y026931D01*
X044978Y026929D01*
X044957Y026923D01*
X044934Y026913D01*
X044909Y0269D01*
X044883Y026883D01*
X044854Y026862D01*
X044791Y026809D01*
X044756Y026776D01*
X04472Y02674D01*
Y027181D01*
X044756Y027145D01*
D02*
G37*
G36*
X042695Y027365D02*
X042703Y027236D01*
X042706Y02722D01*
X04271Y027208D01*
X042714Y027198D01*
X042718Y027192D01*
X042277Y027178D01*
X042281Y027184D01*
X042284Y027193D01*
X042286Y027205D01*
X042289Y02722D01*
X042292Y027261D01*
X042295Y027349D01*
X042295Y027384D01*
X042695Y027401D01*
X042695Y027365D01*
D02*
G37*
G36*
X04718Y027685D02*
X04712Y027666D01*
X047006Y027619D01*
X046951Y027592D01*
X046847Y02753D01*
X046798Y027496D01*
X046704Y027419D01*
X04666Y027377D01*
X046341Y027624D01*
X04639Y027675D01*
X046474Y027772D01*
X046508Y027818D01*
X046538Y027863D01*
X046563Y027906D01*
X046584Y027949D01*
X046599Y027989D01*
X04661Y028029D01*
X046616Y028066D01*
X04718Y027685D01*
D02*
G37*
G36*
X058801Y027733D02*
X058807Y027675D01*
X058816Y027619D01*
X05883Y027565D01*
X058847Y027513D01*
X058869Y027464D01*
X058895Y027416D01*
X058924Y027371D01*
X058958Y027328D01*
X058996Y027287D01*
X058713Y027004D01*
X058672Y027042D01*
X058629Y027076D01*
X058584Y027105D01*
X058536Y027131D01*
X058487Y027153D01*
X058435Y02717D01*
X058381Y027184D01*
X058325Y027193D01*
X058267Y027199D01*
X058206Y0272D01*
X0588Y027794D01*
X058801Y027733D01*
D02*
G37*
G36*
X043787Y02736D02*
X043773Y027343D01*
X043762Y027323D01*
X043754Y0273D01*
X043749Y027275D01*
X043747Y027246D01*
X043748Y027215D01*
X043752Y027181D01*
X043759Y027145D01*
X04377Y027105D01*
X043783Y027063D01*
X043389Y027261D01*
X043731Y027389D01*
X043787Y02736D01*
D02*
G37*
G36*
X056689Y04081D02*
X056703Y04063D01*
X056712Y040586D01*
X056722Y04055D01*
X056734Y040522D01*
X056748Y040502D01*
X056764Y04049D01*
X056782Y040486D01*
X056194D01*
X056212Y04049D01*
X056228Y040502D01*
X056242Y040522D01*
X056254Y04055D01*
X056265Y040586D01*
X056273Y04063D01*
X05628Y040682D01*
X056287Y04081D01*
X056288Y040886D01*
X056688D01*
X056689Y04081D01*
D02*
G37*
G36*
X043766Y038747D02*
X043749Y038705D01*
X043734Y038659D01*
X043721Y038611D01*
X043701Y038505D01*
X043697Y038469D01*
X043701Y038416D01*
X04371Y038362D01*
X043734Y038262D01*
X043749Y038217D01*
X043766Y038174D01*
X043786Y038135D01*
X043184D01*
X043204Y038174D01*
X043221Y038217D01*
X043236Y038262D01*
X043249Y03831D01*
X043269Y038416D01*
X043273Y038452D01*
X043269Y038505D01*
X04326Y038559D01*
X043236Y038659D01*
X043221Y038705D01*
X043204Y038747D01*
X043184Y038786D01*
X043786D01*
X043766Y038747D01*
D02*
G37*
G36*
X034531Y039628D02*
X034536Y039565D01*
X034543Y039512D01*
X034554Y039471D01*
X034567Y03944D01*
X034583Y03942D01*
X034603Y039412D01*
X034625Y039414D01*
X03465Y039427D01*
X034679Y039451D01*
X034813Y03902D01*
X034759Y038962D01*
X034711Y038902D01*
X034669Y03884D01*
X034632Y038775D01*
X034601Y038708D01*
X034575Y038638D01*
X034555Y038567D01*
X034541Y038492D01*
X034533Y038416D01*
X03453Y038337D01*
X03413Y03882D01*
X03453Y039703D01*
X034531Y039628D01*
D02*
G37*
G36*
X055641Y043031D02*
X0555Y04289D01*
X055359Y042914D01*
Y042748D01*
X055347Y042756D01*
X055328Y042763D01*
X055302Y04277D01*
X05527Y042775D01*
X055183Y042783D01*
X055001Y04279D01*
X054927Y04279D01*
Y042988D01*
X054917Y04299D01*
X054952Y042993D01*
X054978Y043001D01*
X054994Y043015D01*
X055Y043035D01*
X054996Y043061D01*
X054983Y043092D01*
X054961Y043129D01*
X054886Y043219D01*
X054834Y043273D01*
X055641Y043031D01*
D02*
G37*
G36*
X037531Y037675D02*
X037528Y037694D01*
X037521Y03771D01*
X037508Y037725D01*
X03749Y037738D01*
X037467Y037749D01*
X037439Y037758D01*
X037406Y037765D01*
X037368Y03777D01*
X037325Y037773D01*
X037277Y037774D01*
Y037974D01*
X037325Y037975D01*
X037406Y037983D01*
X037439Y03799D01*
X037467Y037999D01*
X03749Y03801D01*
X037508Y038023D01*
X037521Y038038D01*
X037528Y038054D01*
X037531Y038073D01*
Y037675D01*
D02*
G37*
G36*
X04377Y037754D02*
X043757Y037717D01*
X043744Y037677D01*
X043734Y037632D01*
X043718Y037529D01*
X043713Y037474D01*
X043718Y037392D01*
X043725Y037339D01*
X043744Y037245D01*
X043757Y037204D01*
X04377Y037167D01*
X043786Y037135D01*
X043214Y037191D01*
X043232Y037216D01*
X043247Y037246D01*
X043261Y037282D01*
X043272Y037323D01*
X043282Y037369D01*
X043291Y037421D01*
X043294Y037456D01*
X043291Y0375D01*
X043282Y037552D01*
X043272Y037598D01*
X043261Y037639D01*
X043247Y037675D01*
X043232Y037705D01*
X043214Y03773D01*
X043786Y037786D01*
X04377Y037754D01*
D02*
G37*
G36*
X037396Y044597D02*
X037295Y044555D01*
X037295Y044555D01*
X034085Y041345D01*
X033984Y0411D01*
Y03882D01*
Y0349D01*
X034085Y034655D01*
X034395Y034345D01*
X03464Y034244D01*
X034655D01*
Y03422D01*
X034704D01*
Y03399D01*
X034805Y033745D01*
X035285Y033265D01*
X035285Y033265D01*
X03553Y033164D01*
X035565Y03315D01*
X035654Y033114D01*
Y031945D01*
X03538D01*
Y031055D01*
X03662D01*
Y031945D01*
X036346D01*
Y033114D01*
X036435Y03315D01*
X036584Y03351D01*
X036435Y03387D01*
X036154Y033986D01*
Y034036D01*
X036419Y034146D01*
X036541Y03444D01*
X036D01*
Y03449D01*
X03595D01*
Y034977D01*
X035925D01*
X035581Y034834D01*
X035494Y034625D01*
X035445Y034635D01*
Y03496D01*
X03476D01*
X034676Y035043D01*
Y03512D01*
X035445D01*
X035455Y035074D01*
Y03503D01*
X036545D01*
Y035963D01*
X036918D01*
X037015Y035866D01*
X03713Y035818D01*
X038074D01*
X038077Y035812D01*
X038245Y035742D01*
X038413Y035812D01*
X038483Y035981D01*
X038413Y036149D01*
X038245Y036219D01*
X038077Y036149D01*
X038074Y036143D01*
X037197D01*
X037029Y03631D01*
Y036793D01*
X036435D01*
Y03597D01*
X035755D01*
X03571Y035983D01*
X03571Y03602D01*
Y036328D01*
X035433D01*
X035156D01*
Y035983D01*
X03541D01*
X035455Y03597D01*
X035455Y035906D01*
X035445Y03586D01*
X034676D01*
Y038663D01*
X034681Y038675D01*
X034686Y038686D01*
X034963Y038964D01*
X035088D01*
X035136Y038959D01*
X035136Y038914D01*
Y038128D01*
X035512D01*
X035934Y037706D01*
X035934Y037706D01*
X036102Y037636D01*
X037402D01*
X037444Y037533D01*
X037785Y037392D01*
X037885D01*
X038225Y037533D01*
X038366Y037874D01*
X038225Y038215D01*
X03793Y038337D01*
Y038391D01*
X038225Y038513D01*
X038366Y038854D01*
X038225Y039195D01*
X037885Y039336D01*
X037843D01*
X037624Y039555D01*
X037379Y039656D01*
X03482D01*
X03482Y039656D01*
X034718Y039614D01*
X034676Y039642D01*
Y040957D01*
X037683Y043964D01*
X047479D01*
Y041686D01*
X047455D01*
Y040896D01*
X048195D01*
Y041686D01*
X048171D01*
Y043984D01*
X053916D01*
X054726Y043174D01*
X054707Y043128D01*
X053008D01*
X05284Y043058D01*
X05284Y043058D01*
X052763Y042981D01*
X052638Y043033D01*
X052275Y042883D01*
X052124Y04252D01*
X052275Y042157D01*
X052638Y042006D01*
X053001Y042157D01*
X053151Y04252D01*
X053117Y042602D01*
X053151Y042652D01*
X055248D01*
X055255Y042645D01*
X055255Y042645D01*
X056142Y041758D01*
Y040607D01*
X056073D01*
Y039777D01*
X056903D01*
Y039845D01*
X057045D01*
X058144Y038746D01*
X058149Y038735D01*
X058154Y038723D01*
Y036913D01*
X058107Y036893D01*
X058025Y036696D01*
X057975D01*
X057893Y036893D01*
X0575Y037056D01*
X057107Y036893D01*
X057025Y036696D01*
X056975D01*
X056893Y036893D01*
X0565Y037056D01*
X056107Y036893D01*
X056025Y036696D01*
X055975D01*
X055893Y036893D01*
X0555Y037056D01*
X055107Y036893D01*
X054944Y0365D01*
X055107Y036107D01*
X055292Y03603D01*
X055329Y03599D01*
X055353Y035959D01*
Y033427D01*
X055347Y033424D01*
X055277Y033256D01*
X055347Y033087D01*
X055515Y033017D01*
X055683Y033087D01*
X055753Y033256D01*
X055683Y033424D01*
X055677Y033427D01*
Y035964D01*
X055742Y036044D01*
X055893Y036107D01*
X055975Y036304D01*
X056025D01*
X056107Y036107D01*
X056251Y036047D01*
X056255Y036042D01*
X056308Y035968D01*
Y033987D01*
X056302Y033984D01*
X056232Y033816D01*
X056302Y033647D01*
X05647Y033577D01*
X056638Y033647D01*
X056708Y033816D01*
X056638Y033984D01*
X056632Y033987D01*
Y035958D01*
X056655Y035985D01*
X056695Y036025D01*
X056893Y036107D01*
X056975Y036304D01*
X057025D01*
X057107Y036107D01*
X0575Y035944D01*
X057893Y036107D01*
X057975Y036304D01*
X058025D01*
X058107Y036107D01*
X058154Y036087D01*
Y034549D01*
X056255Y032651D01*
X056154Y032406D01*
Y030913D01*
X056107Y030893D01*
X056025Y030696D01*
X055975D01*
X055893Y030893D01*
X0555Y031056D01*
X055107Y030893D01*
X054944Y0305D01*
X054965Y03045D01*
X054167Y029653D01*
X054067Y02941D01*
X054067Y02941D01*
Y025112D01*
X053208Y024253D01*
X052264D01*
X052022Y024153D01*
X052022Y024153D01*
X051503Y023634D01*
X051321D01*
X051311Y023684D01*
X051368Y023707D01*
X051438Y023876D01*
X051368Y024044D01*
X051362Y024047D01*
Y028216D01*
X051995D01*
Y029006D01*
X051851D01*
X05183Y029056D01*
X052514Y02974D01*
X052563Y02973D01*
X0526Y02964D01*
X052879Y029525D01*
Y029475D01*
X0526Y02936D01*
X052451Y029D01*
X0526Y02864D01*
X0529Y028516D01*
Y028462D01*
X052616Y028344D01*
X052494Y02805D01*
X053506D01*
X053384Y028344D01*
X0531Y028462D01*
Y028516D01*
X0534Y02864D01*
X053549Y029D01*
X0534Y02936D01*
X053121Y029475D01*
Y029525D01*
X0534Y02964D01*
X053549Y03D01*
X0534Y03036D01*
X053121Y030475D01*
Y030525D01*
X0534Y03064D01*
X053549Y031D01*
X0534Y03136D01*
X053121Y031475D01*
Y031525D01*
X0534Y03164D01*
X053549Y032D01*
X0534Y03236D01*
X053121Y032475D01*
Y032525D01*
X0534Y03264D01*
X053549Y033D01*
X0534Y03336D01*
X053121Y033475D01*
Y033525D01*
X0534Y03364D01*
X053549Y034D01*
X0534Y03436D01*
X053121Y034475D01*
Y034525D01*
X0534Y03464D01*
X053549Y035D01*
X0534Y03536D01*
X053121Y035475D01*
Y035525D01*
X0534Y03564D01*
X053549Y036D01*
X0534Y03636D01*
X053121Y036475D01*
Y036525D01*
X0534Y03664D01*
X053485Y036847D01*
X05354Y03687D01*
X05476Y03809D01*
X05476Y03809D01*
X054814Y03822D01*
X054814Y03822D01*
Y040869D01*
X054868Y041D01*
X054798Y041168D01*
X05463Y041238D01*
X054462Y041168D01*
X054392Y041D01*
X054446Y040869D01*
Y038296D01*
X053464Y037314D01*
X053415Y037324D01*
X0534Y03736D01*
X053121Y037475D01*
Y037525D01*
X0534Y03764D01*
X053549Y038D01*
X0534Y03836D01*
X053121Y038475D01*
Y038525D01*
X0534Y03864D01*
X053549Y039D01*
X0534Y03936D01*
X05304Y039509D01*
X05296D01*
X0526Y03936D01*
X052451Y039D01*
X0526Y03864D01*
X052879Y038525D01*
Y038475D01*
X0526Y03836D01*
X052451Y038D01*
X0526Y03764D01*
X052879Y037525D01*
Y037475D01*
X0526Y03736D01*
X052451Y037D01*
X0526Y03664D01*
X052879Y036525D01*
Y036475D01*
X0526Y03636D01*
X052451Y036D01*
X0526Y03564D01*
X052879Y035525D01*
Y035475D01*
X0526Y03536D01*
X052451Y035D01*
X0526Y03464D01*
X052879Y034525D01*
Y034475D01*
X0526Y03436D01*
X052451Y034D01*
X0526Y03364D01*
X052879Y033525D01*
Y033475D01*
X0526Y03336D01*
X052451Y033D01*
X0526Y03264D01*
X052879Y032525D01*
Y032475D01*
X0526Y03236D01*
X052451Y032D01*
X0526Y03164D01*
X052879Y031525D01*
Y031475D01*
X0526Y03136D01*
X052451Y031D01*
X0526Y03064D01*
X052879Y030525D01*
Y030475D01*
X0526Y03036D01*
X052513Y030149D01*
X05243Y030115D01*
X05151Y029195D01*
X051463Y02908D01*
Y029006D01*
X051362D01*
Y038696D01*
X051315Y03881D01*
X05105Y039075D01*
X050935Y039123D01*
X05071D01*
X050616Y039351D01*
X050275Y039492D01*
X049977Y039369D01*
X049927Y039402D01*
Y039636D01*
X04988Y03975D01*
X04946Y04017D01*
X049345Y040218D01*
X047812D01*
X047181Y040849D01*
X0472Y040896D01*
X047295D01*
Y041686D01*
X047064D01*
Y042213D01*
X047258D01*
Y042767D01*
X046546D01*
Y042213D01*
X04674D01*
Y041686D01*
X046555D01*
Y040896D01*
X046741D01*
X046787Y040784D01*
X046981Y04059D01*
X046953Y040548D01*
X04694Y040553D01*
X041005D01*
X04089Y040505D01*
X03894Y038555D01*
X038893Y038441D01*
Y029548D01*
X038037Y028692D01*
X037925D01*
Y0289D01*
X037135D01*
Y028662D01*
X036589D01*
X036516Y028841D01*
X036175Y028982D01*
X035825D01*
X035484Y028841D01*
X035343Y0285D01*
X035484Y028159D01*
X035825Y028018D01*
X036175D01*
X036516Y028159D01*
X036589Y028338D01*
X037135D01*
Y02816D01*
X03778D01*
X037794Y02814D01*
X037857Y027987D01*
X03796Y027944D01*
Y02814D01*
X03801D01*
Y02819D01*
X038206D01*
X038163Y028293D01*
X038104Y028318D01*
X038104Y028353D01*
X038109Y02837D01*
X038219Y028415D01*
X03917Y029366D01*
X039217Y029481D01*
Y038373D01*
X041072Y040228D01*
X046873D01*
X047502Y039599D01*
X047483Y039553D01*
X046447D01*
Y038447D01*
X046683D01*
X046692Y038398D01*
X0466Y03836D01*
X046451Y038D01*
X0466Y03764D01*
X046879Y037525D01*
Y037475D01*
X0466Y03736D01*
X046451Y037D01*
X0466Y03664D01*
X046879Y036525D01*
Y036475D01*
X0466Y03636D01*
X046451Y036D01*
X0466Y03564D01*
X046879Y035525D01*
Y035475D01*
X0466Y03536D01*
X046519Y035162D01*
X045983D01*
X04507Y036075D01*
X044955Y036123D01*
X0449D01*
X044806Y036351D01*
X044602Y036436D01*
Y036486D01*
X044806Y03657D01*
X044947Y036911D01*
Y037011D01*
X044806Y037351D01*
X044602Y037436D01*
Y037486D01*
X044806Y03757D01*
X044947Y037911D01*
Y038011D01*
X044806Y038351D01*
X044602Y038436D01*
Y038486D01*
X044806Y03857D01*
X044947Y038911D01*
Y039011D01*
X044806Y039351D01*
X044465Y039492D01*
X044124Y039351D01*
X044002Y039056D01*
X043948D01*
X043826Y039351D01*
X043485Y039492D01*
X043144Y039351D01*
X043003Y039011D01*
Y038911D01*
X043139Y038584D01*
Y038337D01*
X043003Y038011D01*
Y037911D01*
X043144Y03757D01*
X043159Y037564D01*
Y037357D01*
X043144Y037351D01*
X043003Y037011D01*
Y036911D01*
X043144Y03657D01*
X043159Y036564D01*
Y036357D01*
X043144Y036351D01*
X043003Y036011D01*
Y035911D01*
X043144Y03557D01*
X043159Y035564D01*
Y035357D01*
X043144Y035351D01*
X043003Y035011D01*
Y034911D01*
X043144Y03457D01*
X043159Y034564D01*
Y034357D01*
X043144Y034351D01*
X043003Y034011D01*
Y033911D01*
X043144Y03357D01*
X043159Y033564D01*
Y033357D01*
X043144Y033351D01*
X043003Y033011D01*
Y032911D01*
X043144Y03257D01*
X043159Y032564D01*
Y032357D01*
X043144Y032351D01*
X043003Y032011D01*
Y031911D01*
X043144Y03157D01*
X043159Y031564D01*
Y031357D01*
X043144Y031351D01*
X043003Y031011D01*
Y030911D01*
X043144Y03057D01*
X043159Y030564D01*
Y030357D01*
X043144Y030351D01*
X043003Y030011D01*
Y029911D01*
X043144Y02957D01*
X043159Y029564D01*
Y029114D01*
X042463Y028418D01*
X042162Y028294D01*
X042024Y027961D01*
X042149Y02766D01*
Y027237D01*
X042034Y026961D01*
X042149Y026684D01*
Y026237D01*
X042034Y025961D01*
X042149Y025684D01*
Y024261D01*
X042024Y023961D01*
X042149Y02366D01*
Y02363D01*
X042133Y023612D01*
X042115Y023596D01*
X041812D01*
X041803Y023643D01*
X041913Y023911D01*
X041485D01*
X041057D01*
X041167Y023643D01*
X041158Y023596D01*
X036933D01*
X034996Y025533D01*
Y026507D01*
X035545Y027055D01*
X03662D01*
Y027945D01*
X03538D01*
Y027797D01*
X035255Y027745D01*
X035255Y027745D01*
X034405Y026895D01*
X034304Y02665D01*
Y02539D01*
X034405Y025145D01*
X036545Y023005D01*
X03679Y022904D01*
X045227D01*
X045275Y022855D01*
X046275Y021855D01*
X046275Y021855D01*
X046451Y021782D01*
X046441Y021732D01*
X04549D01*
X045402Y021769D01*
X045313Y021732D01*
X042262D01*
X042173Y021769D01*
X042084Y021732D01*
X039034D01*
X038945Y021769D01*
X038856Y021732D01*
X035805D01*
X035717Y021769D01*
X035628Y021732D01*
X033661D01*
Y044646D01*
X037386D01*
X037396Y044597D01*
D02*
G37*
G36*
X035602Y038629D02*
X035601Y038607D01*
X035604Y038583D01*
X035611Y038557D01*
X035623Y03853D01*
X03564Y038501D01*
X035661Y03847D01*
X035686Y038437D01*
X035716Y038403D01*
X03575Y038367D01*
X035727Y038108D01*
X035681Y038153D01*
X0356Y038222D01*
X035566Y038247D01*
X035535Y038265D01*
X035509Y038275D01*
X035487Y038279D01*
X035469Y038277D01*
X035454Y038267D01*
X035444Y03825D01*
X035608Y03865D01*
X035602Y038629D01*
D02*
G37*
G36*
X046956Y042333D02*
X046951Y042331D01*
X046947Y042328D01*
X046943Y042324D01*
X04694Y042319D01*
X046937Y042312D01*
X046935Y042304D01*
X046933Y042295D01*
X046932Y042285D01*
X046932Y042274D01*
X046872D01*
X046872Y042285D01*
X046871Y042295D01*
X046869Y042304D01*
X046867Y042312D01*
X046865Y042319D01*
X046861Y042324D01*
X046857Y042328D01*
X046853Y042331D01*
X046848Y042333D01*
X046842Y042334D01*
X046962D01*
X046956Y042333D01*
D02*
G37*
G36*
X062219Y039043D02*
X062203Y039058D01*
X062183Y039071D01*
X062161Y039082D01*
X062136Y039092D01*
X062108Y0391D01*
X062077Y039107D01*
X062044Y039112D01*
X062007Y039116D01*
X061925Y039119D01*
Y039519D01*
X061967Y03952D01*
X062044Y039526D01*
X062077Y039531D01*
X062108Y039538D01*
X062136Y039546D01*
X062161Y039556D01*
X062183Y039567D01*
X062203Y03958D01*
X062219Y039594D01*
Y039043D01*
D02*
G37*
G36*
X056786Y040468D02*
X056798Y040452D01*
X056818Y040438D01*
X056846Y040426D01*
X056882Y040415D01*
X056926Y040407D01*
X056978Y0404D01*
X057106Y040393D01*
X057182Y040392D01*
Y039992D01*
X057106Y039991D01*
X056926Y039977D01*
X056882Y039968D01*
X056846Y039958D01*
X056818Y039946D01*
X056798Y039932D01*
X056786Y039916D01*
X056782Y039898D01*
Y040486D01*
X056786Y040468D01*
D02*
G37*
G36*
X058983Y03908D02*
X058929Y039022D01*
X058881Y038962D01*
X058839Y0389D01*
X058802Y038835D01*
X058771Y038768D01*
X058745Y038698D01*
X058725Y038627D01*
X058711Y038552D01*
X058703Y038476D01*
X0587Y038397D01*
X0583D01*
X058297Y038476D01*
X058289Y038552D01*
X058275Y038627D01*
X058255Y038698D01*
X058229Y038768D01*
X058198Y038835D01*
X058161Y0389D01*
X058119Y038962D01*
X058071Y039022D01*
X058017Y03908D01*
X058217Y039446D01*
X058274Y039395D01*
X05833Y039355D01*
X058387Y039327D01*
X058443Y03931D01*
X0585Y039304D01*
X058557Y03931D01*
X058613Y039327D01*
X05867Y039355D01*
X058726Y039395D01*
X058783Y039446D01*
X058983Y03908D01*
D02*
G37*
G36*
X053079Y042819D02*
X053057Y042796D01*
X053038Y042773D01*
X053022Y04275D01*
X053008Y042727D01*
X052997Y042703D01*
X05299Y04268D01*
X052984Y042657D01*
X052982Y042634D01*
X052982Y042611D01*
X052985Y042588D01*
X052706Y042867D01*
X052729Y042864D01*
X052752Y042864D01*
X052775Y042866D01*
X052798Y042871D01*
X052822Y042879D01*
X052845Y04289D01*
X052868Y042904D01*
X052891Y04292D01*
X052914Y042939D01*
X052937Y042961D01*
X053079Y042819D01*
D02*
G37*
G36*
X070703Y021732D02*
X068089D01*
X068041Y021752D01*
Y021806D01*
X068309Y021917D01*
X068503Y022386D01*
X068309Y022854D01*
X067841Y023048D01*
X067372Y022854D01*
X067178Y022386D01*
X067372Y021917D01*
X067701Y021781D01*
X067691Y021732D01*
X064861D01*
X064772Y021769D01*
X064683Y021732D01*
X061632D01*
X061543Y021769D01*
X061454Y021732D01*
X059499D01*
X059489Y021782D01*
X059665Y021855D01*
X060475Y022665D01*
X060576Y02291D01*
Y02577D01*
X060576Y02577D01*
X060475Y026015D01*
X060475Y026015D01*
X058919Y02757D01*
X058913Y027589D01*
X058905Y027621D01*
X058979Y0278D01*
X058751Y028351D01*
X058538Y028439D01*
X058445Y028665D01*
X058445Y028665D01*
X05797Y02914D01*
X057725Y029241D01*
X057248D01*
X056846Y029643D01*
Y030087D01*
X056893Y030107D01*
X056986Y030331D01*
X057036D01*
X057122Y030122D01*
X05745Y029986D01*
Y0305D01*
Y031014D01*
X057122Y030878D01*
X057036Y030669D01*
X056986D01*
X056893Y030893D01*
X056846Y030913D01*
Y032262D01*
X058745Y034161D01*
X058846Y034406D01*
Y036087D01*
X058893Y036107D01*
X058975Y036304D01*
X059025D01*
X059107Y036107D01*
X0595Y035944D01*
X059893Y036107D01*
X059975Y036304D01*
X060025D01*
X060107Y036107D01*
X0605Y035944D01*
X060893Y036107D01*
X060975Y036304D01*
X061025D01*
X061107Y036107D01*
X0615Y035944D01*
X061893Y036107D01*
X061986Y036331D01*
X062036D01*
X062122Y036122D01*
X06245Y035986D01*
Y0365D01*
Y037014D01*
X062122Y036878D01*
X062036Y036669D01*
X061986D01*
X061893Y036893D01*
X0615Y037056D01*
X061107Y036893D01*
X061025Y036696D01*
X060975D01*
X060893Y036893D01*
X0605Y037056D01*
X060107Y036893D01*
X060025Y036696D01*
X059975D01*
X059893Y036893D01*
X0595Y037056D01*
X059107Y036893D01*
X059025Y036696D01*
X058975D01*
X058893Y036893D01*
X058846Y036913D01*
Y038723D01*
X058851Y038735D01*
X058856Y038746D01*
X059082Y038973D01*
X062087D01*
X062107Y038926D01*
X0625Y038763D01*
X062893Y038926D01*
X063056Y039319D01*
X062893Y039712D01*
X0625Y039875D01*
X062107Y039712D01*
X062087Y039665D01*
X058939D01*
X058939Y039665D01*
X058694Y039564D01*
X058694Y039564D01*
X058524Y039394D01*
X0585Y039391D01*
X058476Y039394D01*
X057433Y040437D01*
X057188Y040538D01*
X056903D01*
Y040607D01*
X056835D01*
Y041902D01*
X056733Y042147D01*
X055745Y043135D01*
X055745Y043135D01*
X054304Y044576D01*
X054253Y044597D01*
X054263Y044646D01*
X070703D01*
Y021732D01*
D02*
G37*
G36*
X050599Y039015D02*
X050601Y03901D01*
X050604Y039005D01*
X050608Y039001D01*
X050614Y038998D01*
X050621Y038995D01*
X050629Y038993D01*
X050638Y038992D01*
X050649Y038991D01*
X05066Y038991D01*
Y038931D01*
X050649Y03893D01*
X050638Y038929D01*
X050629Y038928D01*
X050621Y038926D01*
X050614Y038923D01*
X050608Y03892D01*
X050604Y038916D01*
X050601Y038912D01*
X050599Y038906D01*
X050598Y038901D01*
Y039021D01*
X050599Y039015D01*
D02*
G37*
G36*
X037584Y039389D02*
X037785Y039217D01*
X037822Y039193D01*
X037854Y039177D01*
X037881Y039169D01*
X037903Y039168D01*
X037919Y039175D01*
X037464Y038819D01*
X037474Y038832D01*
X037477Y03885D01*
X037472Y038873D01*
X037461Y038901D01*
X037442Y038933D01*
X037415Y038971D01*
X037382Y039013D01*
X037293Y039112D01*
X037237Y039169D01*
X03752Y039451D01*
X037584Y039389D01*
D02*
G37*
G36*
X054696Y040924D02*
X054693Y040919D01*
X05469Y040914D01*
X054687Y040907D01*
X054685Y0409D01*
X054683Y040892D01*
X054682Y040884D01*
X054681Y040874D01*
X05468Y040853D01*
X05458D01*
X05458Y040864D01*
X054578Y040884D01*
X054577Y040892D01*
X054575Y0409D01*
X054573Y040907D01*
X05457Y040914D01*
X054567Y040919D01*
X054564Y040924D01*
X05456Y040929D01*
X0547D01*
X054696Y040924D01*
D02*
G37*
G36*
X046956Y041017D02*
X046951Y041016D01*
X046947Y041013D01*
X046943Y041008D01*
X04694Y041003D01*
X046937Y040996D01*
X046935Y040988D01*
X046933Y040979D01*
X046932Y040968D01*
X046932Y040957D01*
X046872D01*
X046872Y040968D01*
X046871Y040979D01*
X046869Y040988D01*
X046867Y040996D01*
X046865Y041003D01*
X046861Y041008D01*
X046857Y041013D01*
X046853Y041016D01*
X046848Y041017D01*
X046842Y041018D01*
X046962D01*
X046956Y041017D01*
D02*
G37*
G36*
X048025Y041888D02*
X048043Y041628D01*
X048049Y0416D01*
X048056Y04158D01*
X048065Y041568D01*
X048074Y041564D01*
X047576D01*
X047585Y041568D01*
X047594Y04158D01*
X047601Y0416D01*
X047607Y041628D01*
X047613Y041664D01*
X047621Y04176D01*
X047625Y041964D01*
X048025D01*
X048025Y041888D01*
D02*
G37*
G36*
X046932Y041613D02*
X046933Y041603D01*
X046935Y041594D01*
X046937Y041586D01*
X04694Y041579D01*
X046943Y041574D01*
X046947Y04157D01*
X046951Y041567D01*
X046956Y041565D01*
X046962Y041564D01*
X046842D01*
X046848Y041565D01*
X046853Y041567D01*
X046857Y04157D01*
X046861Y041574D01*
X046865Y041579D01*
X046867Y041586D01*
X046869Y041594D01*
X046871Y041603D01*
X046872Y041613D01*
X046872Y041624D01*
X046932D01*
X046932Y041613D01*
D02*
G37*
%LPC*%
G36*
X05496Y022897D02*
X054674D01*
Y022791D01*
X054775Y022796D01*
Y02268D01*
X05496D01*
Y022897D01*
D02*
G37*
G36*
X05395Y02288D02*
X053809Y022821D01*
X05375Y02268D01*
X05395D01*
Y02288D01*
D02*
G37*
G36*
X05405D02*
Y02268D01*
X05425D01*
X054191Y022821D01*
X05405Y02288D01*
D02*
G37*
G36*
X055346Y022897D02*
X05506D01*
Y02268D01*
X055346D01*
Y022897D01*
D02*
G37*
G36*
X03861Y027486D02*
X038507Y027443D01*
X038464Y02734D01*
X03861D01*
Y027486D01*
D02*
G37*
G36*
X03871D02*
Y02734D01*
X038856D01*
X038813Y027443D01*
X03871Y027486D01*
D02*
G37*
G36*
X03807Y027506D02*
Y02736D01*
X038216D01*
X038173Y027463D01*
X03807Y027506D01*
D02*
G37*
G36*
X03797D02*
X037867Y027463D01*
X037824Y02736D01*
X03797D01*
Y027506D01*
D02*
G37*
G36*
X037905Y02938D02*
X03758D01*
Y02908D01*
X037905D01*
Y02938D01*
D02*
G37*
G36*
X03861Y02724D02*
X038464D01*
X038507Y027137D01*
X03861Y027094D01*
Y02724D01*
D02*
G37*
G36*
X038856D02*
X03871D01*
Y027094D01*
X038813Y027137D01*
X038856Y02724D01*
D02*
G37*
G36*
X053793Y042474D02*
X053498Y042352D01*
X053376Y042058D01*
X053793D01*
Y042474D01*
D02*
G37*
G36*
X038216Y02726D02*
X03807D01*
Y027114D01*
X038173Y027157D01*
X038216Y02726D01*
D02*
G37*
G36*
X05114Y04247D02*
X050719D01*
Y042049D01*
X051017Y042172D01*
X05114Y04247D01*
D02*
G37*
G36*
X03797Y02726D02*
X037824D01*
X037867Y027157D01*
X03797Y027114D01*
Y02726D01*
D02*
G37*
G36*
X03748Y02938D02*
X037256D01*
Y029181D01*
X037252Y029206D01*
X03724Y029229D01*
X037221Y029248D01*
X037193Y029266D01*
X037158Y02928D01*
X037155Y029281D01*
Y02908D01*
X03748D01*
Y02938D01*
D02*
G37*
G36*
X041768Y028293D02*
X041817Y028244D01*
X041803Y028278D01*
X041768Y028293D01*
D02*
G37*
G36*
X04007Y033344D02*
X039902Y033274D01*
X039832Y033106D01*
X039902Y032937D01*
X039908Y032935D01*
Y028741D01*
X039902Y028738D01*
X039832Y02857D01*
X039902Y028402D01*
X04007Y028332D01*
X040238Y028402D01*
X040308Y02857D01*
X040238Y028738D01*
X040232Y028741D01*
Y032935D01*
X040238Y032937D01*
X040308Y033106D01*
X040238Y033274D01*
X04007Y033344D01*
D02*
G37*
G36*
X041535Y028389D02*
Y0283D01*
X041546Y028308D01*
X041583Y02834D01*
X041604Y02836D01*
X041535Y028389D01*
D02*
G37*
G36*
X041885Y028079D02*
X041825Y028011D01*
X041913D01*
X041885Y028079D01*
D02*
G37*
G36*
X041535Y028229D02*
Y028011D01*
X041753D01*
X041535Y028229D01*
D02*
G37*
G36*
X041435Y028389D02*
X041167Y028278D01*
X041057Y028011D01*
X041435D01*
Y028389D01*
D02*
G37*
G36*
X055313Y042478D02*
X054373D01*
Y04208D01*
X054365Y042033D01*
X054365D01*
Y042033D01*
X054323Y042025D01*
X054318Y042037D01*
X054187Y042352D01*
X053893Y042474D01*
Y042008D01*
Y041542D01*
X054187Y041663D01*
X054318Y041979D01*
X054323Y041991D01*
X054365Y041982D01*
Y041982D01*
X054365Y041982D01*
X054373Y041936D01*
Y041538D01*
X055313D01*
Y042478D01*
D02*
G37*
G36*
X041435Y027911D02*
X041057D01*
X041167Y027643D01*
X041286Y027594D01*
X04128Y027691D01*
X041277Y027707D01*
X041273Y02772D01*
X041269Y027729D01*
X041265Y027736D01*
X041435D01*
Y027911D01*
D02*
G37*
G36*
X038206Y02809D02*
X03806D01*
Y027944D01*
X038163Y027987D01*
X038206Y02809D01*
D02*
G37*
G36*
X041913Y027911D02*
X041535D01*
Y027736D01*
X041705D01*
X041701Y027729D01*
X041697Y02772D01*
X041693Y027707D01*
X04169Y027691D01*
X041688Y027672D01*
X041684Y027623D01*
X041683Y027594D01*
X041803Y027643D01*
X041913Y027911D01*
D02*
G37*
G36*
X053793Y041958D02*
X053376D01*
X053498Y041663D01*
X053793Y041542D01*
Y041958D01*
D02*
G37*
G36*
X041694Y024323D02*
X041702Y024206D01*
X041705Y024194D01*
X041709Y024184D01*
X041712Y024178D01*
X041535Y024184D01*
Y024011D01*
X041913D01*
X041803Y024278D01*
X041694Y024323D01*
D02*
G37*
G36*
X041296Y024332D02*
X041167Y024278D01*
X041057Y024011D01*
X041435D01*
Y024187D01*
X041272Y024192D01*
X041277Y024199D01*
X041281Y024209D01*
X041285Y024222D01*
X041289Y024238D01*
X041292Y024257D01*
X041296Y024306D01*
X041296Y024332D01*
D02*
G37*
G36*
X053506Y02795D02*
X052494D01*
X052616Y027656D01*
X0529Y027538D01*
Y027484D01*
X0526Y02736D01*
X052451Y027D01*
X0526Y02664D01*
X052879Y026525D01*
Y026475D01*
X0526Y02636D01*
X052451Y026D01*
X0526Y02564D01*
X052879Y025525D01*
Y025475D01*
X0526Y02536D01*
X052451Y025D01*
X0526Y02464D01*
X05296Y024491D01*
X05304D01*
X0534Y02464D01*
X053549Y025D01*
X0534Y02536D01*
X053121Y025475D01*
Y025525D01*
X0534Y02564D01*
X053549Y026D01*
X0534Y02636D01*
X053121Y026475D01*
Y026525D01*
X0534Y02664D01*
X053549Y027D01*
X0534Y02736D01*
X0531Y027484D01*
Y027538D01*
X053384Y027656D01*
X053506Y02795D01*
D02*
G37*
G36*
X050619Y04247D02*
X05042D01*
X050438Y042251D01*
X050427Y042259D01*
X050412Y042266D01*
X050395Y042273D01*
X050374Y042278D01*
X05035Y042283D01*
X050293Y042289D01*
X050272Y042291D01*
X050322Y042172D01*
X050619Y042049D01*
Y04247D01*
D02*
G37*
G36*
X041923Y026911D02*
X041545D01*
Y026736D01*
X041715D01*
X041711Y026729D01*
X041707Y02672D01*
X041703Y026707D01*
X0417Y026691D01*
X041698Y026672D01*
X041694Y026623D01*
X041693Y026594D01*
X041813Y026643D01*
X041923Y026911D01*
D02*
G37*
G36*
X041445D02*
X041067D01*
X041177Y026643D01*
X041296Y026594D01*
X04129Y026691D01*
X041287Y026707D01*
X041283Y02672D01*
X041279Y026729D01*
X041275Y026736D01*
X041445D01*
Y026911D01*
D02*
G37*
G36*
X049994Y04244D02*
X049708D01*
Y042233D01*
X049994D01*
Y04244D01*
D02*
G37*
G36*
X041685Y027331D02*
X041691Y027238D01*
X041695Y027222D01*
X041699Y027209D01*
X041703Y027199D01*
X041708Y027192D01*
X041545Y027187D01*
Y027011D01*
X041923D01*
X041813Y027278D01*
X041685Y027331D01*
D02*
G37*
G36*
X049608Y04244D02*
X049322D01*
Y042233D01*
X049608D01*
Y04244D01*
D02*
G37*
G36*
X041287Y027324D02*
X041177Y027278D01*
X041067Y027011D01*
X041445D01*
Y027184D01*
X041267Y027178D01*
X041271Y027184D01*
X041275Y027194D01*
X041278Y027206D01*
X041281Y027222D01*
X041285Y027264D01*
X041287Y027319D01*
X041287Y027324D01*
D02*
G37*
G36*
X041445Y025911D02*
X041067D01*
X041177Y025643D01*
X041296Y025594D01*
X04129Y025691D01*
X041287Y025707D01*
X041283Y02572D01*
X041279Y025729D01*
X041275Y025736D01*
X041445D01*
Y025911D01*
D02*
G37*
G36*
X041297Y026328D02*
X041177Y026278D01*
X041067Y026011D01*
X041445D01*
Y026186D01*
X041275D01*
X041279Y026192D01*
X041283Y026201D01*
X041287Y026214D01*
X04129Y02623D01*
X041292Y02625D01*
X041296Y026298D01*
X041297Y026328D01*
D02*
G37*
G36*
X03812Y026764D02*
X03735Y026446D01*
X037031Y025676D01*
X03735Y024906D01*
X03812Y024587D01*
X03889Y024906D01*
X039209Y025676D01*
X03889Y026446D01*
X03812Y026764D01*
D02*
G37*
G36*
X041923Y025911D02*
X041545D01*
Y025736D01*
X041715D01*
X041711Y025729D01*
X041707Y02572D01*
X041703Y025707D01*
X0417Y025691D01*
X041698Y025672D01*
X041694Y025623D01*
X041693Y025594D01*
X041813Y025643D01*
X041923Y025911D01*
D02*
G37*
G36*
X041694Y026327D02*
X0417Y02623D01*
X041703Y026214D01*
X041707Y026201D01*
X041711Y026192D01*
X041715Y026186D01*
X041545D01*
Y026011D01*
X041923D01*
X041813Y026278D01*
X041694Y026327D01*
D02*
G37*
G36*
X049994Y042747D02*
X049708D01*
Y04254D01*
X049994D01*
Y042747D01*
D02*
G37*
G36*
X049608D02*
X049322D01*
Y04254D01*
X049608D01*
Y042747D01*
D02*
G37*
G36*
X050719Y042991D02*
Y04257D01*
X05114D01*
X051017Y042867D01*
X050719Y042991D01*
D02*
G37*
G36*
X050619Y042991D02*
X050322Y042867D01*
X050249Y042692D01*
X050252Y042692D01*
X050282Y042696D01*
X050309Y042702D01*
X050333Y042708D01*
X050353Y042716D01*
X050371Y042724D01*
X050385Y042734D01*
X050396Y042746D01*
X050411Y04257D01*
X050619D01*
Y042991D01*
D02*
G37*
G36*
X03534Y02946D02*
X03514D01*
X035199Y029319D01*
X03534Y02926D01*
Y02946D01*
D02*
G37*
G36*
X042425Y03945D02*
X04215Y039336D01*
X042015Y039011D01*
X042425D01*
Y03945D01*
D02*
G37*
G36*
X042525D02*
Y039011D01*
X042935D01*
X0428Y039336D01*
X042525Y03945D01*
D02*
G37*
G36*
X03779Y033736D02*
X037793Y033683D01*
X037798Y033662D01*
X037803Y033647D01*
X037809Y033638D01*
X037816Y033635D01*
X0377D01*
Y03345D01*
X037917D01*
Y033736D01*
X03779D01*
D02*
G37*
G36*
X042935Y034911D02*
X042015D01*
X04215Y034585D01*
X042255Y034542D01*
X042252Y034557D01*
X042227Y034657D01*
X042212Y034703D01*
X042194Y034746D01*
X042174Y034786D01*
X042776D01*
X042756Y034746D01*
X042738Y034703D01*
X042723Y034657D01*
X042709Y034609D01*
X042696Y034542D01*
X0428Y034585D01*
X042935Y034911D01*
D02*
G37*
G36*
Y038911D02*
X042015D01*
X04215Y038585D01*
X042255Y038542D01*
X042252Y038557D01*
X042227Y038657D01*
X042212Y038703D01*
X042194Y038746D01*
X042174Y038786D01*
X042776D01*
X042756Y038746D01*
X042738Y038703D01*
X042723Y038657D01*
X042709Y038609D01*
X042696Y038542D01*
X0428Y038585D01*
X042935Y038911D01*
D02*
G37*
G36*
X042677Y034387D02*
X042673Y034325D01*
X042672Y03426D01*
X042278D01*
X042277Y034325D01*
X042272Y034386D01*
X04215Y034336D01*
X042015Y034011D01*
X042935D01*
X0428Y034336D01*
X042677Y034387D01*
D02*
G37*
G36*
X036075Y034977D02*
X03605D01*
Y03454D01*
X036541D01*
X036419Y034834D01*
X036075Y034977D01*
D02*
G37*
G36*
X042935Y032911D02*
X042015D01*
X04215Y032585D01*
X04239Y032486D01*
Y032436D01*
X04215Y032336D01*
X042015Y032011D01*
X042935D01*
X0428Y032336D01*
X04256Y032436D01*
Y032486D01*
X0428Y032585D01*
X042935Y032911D01*
D02*
G37*
G36*
X03718Y035738D02*
X037012Y035668D01*
X036942Y0355D01*
X037012Y035332D01*
X037038Y035321D01*
Y031601D01*
X037032Y031598D01*
X036962Y03143D01*
X037032Y031262D01*
X0372Y031192D01*
X037368Y031262D01*
X037438Y03143D01*
X037368Y031598D01*
X037362Y031601D01*
Y033022D01*
X037383Y033064D01*
X037412Y033064D01*
X0376D01*
Y0334D01*
Y033635D01*
X037484D01*
X037483Y033638D01*
X037482Y033647D01*
X037481Y033736D01*
X037412D01*
X037383Y033736D01*
X037362Y033778D01*
Y035365D01*
X037418Y0355D01*
X037348Y035668D01*
X03718Y035738D01*
D02*
G37*
G36*
X03812Y042119D02*
X03735Y0418D01*
X037031Y04103D01*
X03735Y04026D01*
X03812Y039941D01*
X03889Y04026D01*
X039209Y04103D01*
X03889Y0418D01*
X03812Y042119D01*
D02*
G37*
G36*
X038379Y034109D02*
X038211Y034039D01*
X038141Y033871D01*
X038171Y0338D01*
X038143Y033758D01*
X038107D01*
Y033046D01*
X038681D01*
Y033758D01*
X038616D01*
X038588Y0338D01*
X038617Y033871D01*
X038548Y034039D01*
X038379Y034109D01*
D02*
G37*
G36*
X037917Y03335D02*
X0377D01*
Y033064D01*
X037917D01*
Y03335D01*
D02*
G37*
G36*
X042935Y033911D02*
X042015D01*
X04215Y033585D01*
X04239Y033486D01*
Y033436D01*
X04215Y033336D01*
X042015Y033011D01*
X042935D01*
X0428Y033336D01*
X04256Y033436D01*
Y033486D01*
X0428Y033585D01*
X042935Y033911D01*
D02*
G37*
G36*
X038324Y036814D02*
X037885D01*
Y036404D01*
X03821Y036539D01*
X038324Y036814D01*
D02*
G37*
G36*
X035383Y036773D02*
X035156D01*
Y036428D01*
X035383D01*
Y036773D01*
D02*
G37*
G36*
X051654Y042049D02*
X051291Y041898D01*
X05114Y041535D01*
X051291Y041172D01*
X051452Y041105D01*
X051477Y041076D01*
X051491Y041057D01*
Y036771D01*
X051487Y036769D01*
X051417Y036601D01*
X051487Y036432D01*
X051655Y036363D01*
X051823Y036432D01*
X051893Y036601D01*
X051823Y036769D01*
X051816Y036772D01*
Y041057D01*
X051829Y041075D01*
X051857Y041106D01*
X052017Y041172D01*
X052167Y041535D01*
X052017Y041898D01*
X051654Y042049D01*
D02*
G37*
G36*
X037785Y036814D02*
X037345D01*
X037459Y036539D01*
X037785Y036404D01*
X037785D01*
Y036814D01*
D02*
G37*
G36*
Y037324D02*
X037785D01*
X037459Y037189D01*
X037345Y036914D01*
X037785D01*
Y037324D01*
D02*
G37*
G36*
X03571Y036773D02*
X035483D01*
Y036428D01*
X03571D01*
Y036773D01*
D02*
G37*
G36*
X042935Y036911D02*
X042015D01*
X04215Y036585D01*
X042255Y036542D01*
X042252Y036557D01*
X042227Y036657D01*
X042212Y036703D01*
X042194Y036746D01*
X042174Y036786D01*
X042776D01*
X042756Y036746D01*
X042738Y036703D01*
X042723Y036657D01*
X042709Y036609D01*
X042696Y036542D01*
X0428Y036585D01*
X042935Y036911D01*
D02*
G37*
G36*
X042695Y038379D02*
X042698Y038364D01*
X042723Y038264D01*
X042738Y038218D01*
X042756Y038175D01*
X042776Y038135D01*
X042174D01*
X042194Y038175D01*
X042212Y038218D01*
X042227Y038264D01*
X042241Y038313D01*
X042254Y038379D01*
X04215Y038336D01*
X042015Y038011D01*
X042935D01*
X0428Y038336D01*
X042695Y038379D01*
D02*
G37*
G36*
X042935Y037911D02*
X042015D01*
X04215Y037585D01*
X042255Y037542D01*
X042252Y037557D01*
X042227Y037657D01*
X042212Y037703D01*
X042194Y037746D01*
X042174Y037786D01*
X042776D01*
X042756Y037746D01*
X042738Y037703D01*
X042723Y037657D01*
X042709Y037609D01*
X042696Y037542D01*
X0428Y037585D01*
X042935Y037911D01*
D02*
G37*
G36*
X042695Y035379D02*
X042698Y035364D01*
X042723Y035264D01*
X042738Y035218D01*
X042756Y035175D01*
X042776Y035135D01*
X042174D01*
X042194Y035175D01*
X042212Y035218D01*
X042227Y035264D01*
X042241Y035313D01*
X042254Y035379D01*
X04215Y035336D01*
X042015Y035011D01*
X042935D01*
X0428Y035336D01*
X042695Y035379D01*
D02*
G37*
G36*
X042935Y035911D02*
X042015D01*
X04215Y035585D01*
X042255Y035542D01*
X042252Y035557D01*
X042227Y035657D01*
X042212Y035703D01*
X042194Y035746D01*
X042174Y035786D01*
X042776D01*
X042756Y035746D01*
X042738Y035703D01*
X042723Y035657D01*
X042709Y035609D01*
X042696Y035542D01*
X0428Y035585D01*
X042935Y035911D01*
D02*
G37*
G36*
X042695Y036379D02*
X042698Y036364D01*
X042723Y036264D01*
X042738Y036218D01*
X042756Y036175D01*
X042776Y036135D01*
X042174D01*
X042194Y036175D01*
X042212Y036218D01*
X042227Y036264D01*
X042241Y036313D01*
X042254Y036379D01*
X04215Y036336D01*
X042015Y036011D01*
X042935D01*
X0428Y036336D01*
X042695Y036379D01*
D02*
G37*
G36*
X037885Y037324D02*
Y036914D01*
X038324D01*
X03821Y037189D01*
X037885Y037324D01*
D02*
G37*
G36*
X042695Y037379D02*
X042698Y037364D01*
X042723Y037264D01*
X042738Y037218D01*
X042756Y037175D01*
X042776Y037135D01*
X042174D01*
X042194Y037175D01*
X042212Y037218D01*
X042227Y037264D01*
X042241Y037313D01*
X042254Y037379D01*
X04215Y037336D01*
X042015Y037011D01*
X042935D01*
X0428Y037336D01*
X042695Y037379D01*
D02*
G37*
G36*
X03748Y02978D02*
X037155D01*
Y029694D01*
X03724Y029689D01*
X037252Y029684D01*
X037256Y029679D01*
Y02948D01*
X03748D01*
Y02978D01*
D02*
G37*
G36*
X037905D02*
X03758D01*
Y02948D01*
X037905D01*
Y02978D01*
D02*
G37*
G36*
X042935Y029911D02*
X042525D01*
Y029471D01*
X0428Y029585D01*
X042935Y029911D01*
D02*
G37*
G36*
Y030911D02*
X042015D01*
X04215Y030585D01*
X04239Y030486D01*
Y030436D01*
X04215Y030336D01*
X042015Y030011D01*
X042935D01*
X0428Y030336D01*
X04256Y030436D01*
Y030486D01*
X0428Y030585D01*
X042935Y030911D01*
D02*
G37*
G36*
X03544Y02976D02*
Y02956D01*
X03564D01*
X035581Y029701D01*
X03544Y02976D01*
D02*
G37*
G36*
X036175Y030982D02*
X035825D01*
X035484Y030841D01*
X035343Y0305D01*
X035484Y030159D01*
X035825Y030018D01*
X036175D01*
X036516Y030159D01*
X036536Y030208D01*
X03763D01*
Y030131D01*
X03842D01*
Y030871D01*
X03763D01*
Y030792D01*
X036536D01*
X036516Y030841D01*
X036175Y030982D01*
D02*
G37*
G36*
X03534Y02976D02*
X035199Y029701D01*
X03514Y02956D01*
X03534D01*
Y02976D01*
D02*
G37*
G36*
X038008Y032792D02*
X037964Y032774D01*
X037733D01*
Y032563D01*
X0377Y032484D01*
X037714Y03245D01*
X0377Y032415D01*
X037733Y032339D01*
Y032062D01*
X037733D01*
Y031771D01*
X03763D01*
Y031031D01*
X03842D01*
Y031771D01*
X038317D01*
Y032413D01*
X038307Y032437D01*
Y032774D01*
X038052D01*
X038008Y032792D01*
D02*
G37*
G36*
X03564Y02946D02*
X03544D01*
Y02926D01*
X035581Y029319D01*
X03564Y02946D01*
D02*
G37*
G36*
X042935Y031911D02*
X042015D01*
X04215Y031585D01*
X04239Y031486D01*
Y031436D01*
X04215Y031336D01*
X042015Y031011D01*
X042935D01*
X0428Y031336D01*
X04256Y031436D01*
Y031486D01*
X0428Y031585D01*
X042935Y031911D01*
D02*
G37*
G36*
X042425Y029911D02*
X042015D01*
X04215Y029585D01*
X042425Y029471D01*
Y029911D01*
D02*
G37*
%LPD*%
G36*
X0401Y028716D02*
X040102Y028708D01*
X040104Y028699D01*
X040106Y02869D01*
X04011Y028682D01*
X040114Y028674D01*
X04012Y028665D01*
X040126Y028657D01*
X040132Y028649D01*
X04014Y028641D01*
X04D01*
X040008Y028649D01*
X040014Y028657D01*
X04002Y028665D01*
X040026Y028674D01*
X04003Y028682D01*
X040034Y02869D01*
X040036Y028699D01*
X040038Y028708D01*
X04004Y028716D01*
X04004Y028725D01*
X0401D01*
X0401Y028716D01*
D02*
G37*
G36*
X040132Y033026D02*
X040126Y033018D01*
X04012Y03301D01*
X040114Y033002D01*
X04011Y032994D01*
X040106Y032985D01*
X040104Y032977D01*
X040102Y032968D01*
X0401Y032959D01*
X0401Y03295D01*
X04004D01*
X04004Y032959D01*
X040038Y032968D01*
X040036Y032977D01*
X040034Y032985D01*
X04003Y032994D01*
X040026Y033002D01*
X04002Y03301D01*
X040014Y033018D01*
X040008Y033026D01*
X04Y033034D01*
X04014D01*
X040132Y033026D01*
D02*
G37*
G36*
X03723Y031576D02*
X037232Y031568D01*
X037234Y031559D01*
X037236Y03155D01*
X03724Y031542D01*
X037244Y031534D01*
X03725Y031525D01*
X037256Y031517D01*
X037262Y031509D01*
X03727Y031501D01*
X03713D01*
X037138Y031509D01*
X037144Y031517D01*
X03715Y031525D01*
X037156Y031534D01*
X03716Y031542D01*
X037164Y03155D01*
X037166Y031559D01*
X037168Y031568D01*
X03717Y031576D01*
X03717Y031585D01*
X03723D01*
X03723Y031576D01*
D02*
G37*
G36*
X037257Y035434D02*
X037246Y035415D01*
X037242Y035406D01*
X037238Y035397D01*
X037235Y035388D01*
X037233Y035379D01*
X037231Y03537D01*
X03723Y035362D01*
X03723Y035353D01*
X03717Y03534D01*
X03717Y03535D01*
X037168Y035359D01*
X037166Y035367D01*
X037163Y035375D01*
X037159Y035383D01*
X037154Y03539D01*
X037148Y035397D01*
X037142Y035404D01*
X037134Y03541D01*
X037126Y035416D01*
X037263Y035444D01*
X037257Y035434D01*
D02*
G37*
G36*
X05186Y041241D02*
X051762Y04113D01*
X051738Y041097D01*
X051718Y041067D01*
X051703Y041039D01*
X051692Y041014D01*
X051686Y040991D01*
X051684Y04097D01*
X051624D01*
X051621Y040991D01*
X051615Y041014D01*
X051604Y041039D01*
X051589Y041067D01*
X051569Y041097D01*
X051545Y04113D01*
X051484Y041202D01*
X051406Y041282D01*
X051902D01*
X05186Y041241D01*
D02*
G37*
G36*
X051684Y036748D02*
X051685Y036739D01*
X051687Y03673D01*
X05169Y036722D01*
X051694Y036713D01*
X051698Y036705D01*
X051703Y036697D01*
X051709Y036689D01*
X051716Y036681D01*
X051724Y036673D01*
X051584Y036671D01*
X051591Y036679D01*
X051598Y036687D01*
X051604Y036695D01*
X051609Y036704D01*
X051614Y036712D01*
X051617Y036721D01*
X05162Y036729D01*
X051622Y036738D01*
X051623Y036747D01*
X051624Y036756D01*
X051684Y036756D01*
X051684Y036748D01*
D02*
G37*
G36*
X036386Y030748D02*
X036419Y030727D01*
X036454Y030709D01*
X036491Y030693D01*
X036531Y03068D01*
X036572Y030669D01*
X036616Y030661D01*
X036663Y030655D01*
X036711Y030651D01*
X036762Y03065D01*
Y03035D01*
X036711Y030349D01*
X036616Y030339D01*
X036572Y030331D01*
X036531Y03032D01*
X036491Y030307D01*
X036454Y030291D01*
X036419Y030273D01*
X036386Y030252D01*
X036356Y030229D01*
Y030771D01*
X036386Y030748D01*
D02*
G37*
G36*
X037751Y030252D02*
X037748Y03027D01*
X037739Y030287D01*
X037724Y030302D01*
X037703Y030315D01*
X037676Y030325D01*
X037643Y030334D01*
X037604Y030341D01*
X037559Y030346D01*
X037451Y03035D01*
Y03065D01*
X037508Y030651D01*
X037604Y030659D01*
X037643Y030666D01*
X037676Y030675D01*
X037703Y030686D01*
X037724Y030699D01*
X037739Y030714D01*
X037748Y030731D01*
X037751Y030749D01*
Y030252D01*
D02*
G37*
G36*
X038184Y03218D02*
X038182Y032171D01*
X03818Y032156D01*
X038178Y032108D01*
X038176Y031925D01*
X038176Y031892D01*
X038186Y031796D01*
X038195Y031757D01*
X038206Y031724D01*
X03822Y031697D01*
X038236Y031676D01*
X038254Y031661D01*
X038275Y031652D01*
X038299Y031649D01*
X037751D01*
X037775Y031652D01*
X037796Y031661D01*
X037814Y031676D01*
X03783Y031697D01*
X037844Y031724D01*
X037855Y031757D01*
X037864Y031796D01*
X03787Y031841D01*
X037874Y031892D01*
X037875Y03194D01*
Y03194D01*
X037861Y032171D01*
X037858Y03218D01*
X037854Y032183D01*
X038186D01*
X038184Y03218D01*
D02*
G37*
%LPC*%
G36*
X060226Y042233D02*
X060109D01*
Y042048D01*
X060106Y042056D01*
X060094Y042062D01*
X060074Y042068D01*
X060046Y042073D01*
X060011Y042077D01*
X060008Y042077D01*
Y041947D01*
X060226D01*
Y042233D01*
D02*
G37*
G36*
X068395Y041919D02*
X067845D01*
Y041069D01*
X068395D01*
Y041919D01*
D02*
G37*
G36*
X067745D02*
X067195D01*
Y041069D01*
X067745D01*
Y041919D01*
D02*
G37*
G36*
X064435Y044081D02*
X063595D01*
Y043241D01*
X06389D01*
X064675Y042455D01*
Y041048D01*
X065915D01*
Y042888D01*
X065332D01*
X064435Y043786D01*
Y044081D01*
D02*
G37*
G36*
X060543Y042233D02*
X060326D01*
Y041947D01*
X060543D01*
Y042233D01*
D02*
G37*
G36*
X061371Y043426D02*
X060631D01*
Y042636D01*
X060732D01*
Y041929D01*
X061307D01*
Y042636D01*
X061371D01*
Y043426D01*
D02*
G37*
G36*
X068395Y042868D02*
X067845D01*
Y042018D01*
X068395D01*
Y042868D01*
D02*
G37*
G36*
X067745D02*
X067195D01*
Y042018D01*
X067745D01*
Y042868D01*
D02*
G37*
G36*
X0625Y042237D02*
X062107Y042074D01*
X061944Y041681D01*
X062107Y041288D01*
X0625Y041125D01*
X062893Y041288D01*
X063056Y041681D01*
X062893Y042074D01*
X0625Y042237D01*
D02*
G37*
G36*
X067195Y043918D02*
X066345D01*
Y043369D01*
X067195D01*
Y043918D01*
D02*
G37*
G36*
X065935Y025455D02*
X065602Y025317D01*
X065464Y024984D01*
X065602Y024651D01*
X065689Y024616D01*
Y024566D01*
X065602Y02453D01*
X065464Y024197D01*
X065602Y023864D01*
X065935Y023726D01*
X066268Y023864D01*
X066406Y024197D01*
X066268Y02453D01*
X066181Y024566D01*
Y024616D01*
X066268Y024651D01*
X066406Y024984D01*
X066268Y025317D01*
X065935Y025455D01*
D02*
G37*
G36*
X055794Y04406D02*
X05554D01*
Y043806D01*
X05572Y04388D01*
X055794Y04406D01*
D02*
G37*
G36*
X05544D02*
X055186D01*
X05526Y04388D01*
X05544Y043806D01*
Y04406D01*
D02*
G37*
G36*
X066245Y043918D02*
X065395D01*
Y043369D01*
X066245D01*
Y043918D01*
D02*
G37*
G36*
X066935Y025849D02*
X066602Y025711D01*
X066464Y025378D01*
X066602Y025045D01*
X066689Y025009D01*
Y024959D01*
X066602Y024924D01*
X066464Y024591D01*
X066602Y024258D01*
X066935Y02412D01*
X067268Y024258D01*
X067406Y024591D01*
X067268Y024924D01*
X067181Y024959D01*
Y025009D01*
X067268Y025045D01*
X067406Y025378D01*
X067268Y025711D01*
X066935Y025849D01*
D02*
G37*
G36*
X060471Y043426D02*
X059731D01*
Y043244D01*
X059311D01*
X05918Y043298D01*
X059012Y043228D01*
X058942Y04306D01*
X059012Y042892D01*
X05918Y042822D01*
X059311Y042876D01*
X059731D01*
Y042636D01*
X059965D01*
X060008Y04262D01*
X060008Y042586D01*
Y042495D01*
X060074Y042499D01*
X060094Y042505D01*
X060106Y042511D01*
X060109Y042518D01*
Y042333D01*
X060276D01*
X060543D01*
Y04262D01*
X060514D01*
X060471Y042636D01*
X060471Y04267D01*
Y043426D01*
D02*
G37*
G36*
X063Y023779D02*
X062449Y023551D01*
X062221Y023D01*
X062449Y022449D01*
X063Y022221D01*
X063551Y022449D01*
X063779Y023D01*
X063551Y023551D01*
X063Y023779D01*
D02*
G37*
G36*
X05554Y044414D02*
Y04416D01*
X055794D01*
X05572Y04434D01*
X05554Y044414D01*
D02*
G37*
G36*
X067195Y044569D02*
X066345D01*
Y044019D01*
X067195D01*
Y044569D01*
D02*
G37*
G36*
X066245D02*
X065395D01*
Y044019D01*
X066245D01*
Y044569D01*
D02*
G37*
G36*
X05544Y044414D02*
X05526Y04434D01*
X055186Y04416D01*
X05544D01*
Y044414D01*
D02*
G37*
G36*
X067841Y029128D02*
X067372Y028934D01*
X067178Y028466D01*
X067372Y027997D01*
X067532Y027931D01*
Y027881D01*
X067372Y027815D01*
X067178Y027347D01*
X067372Y026878D01*
X067841Y026684D01*
X068309Y026878D01*
X068503Y027347D01*
X068309Y027815D01*
X068149Y027881D01*
Y027931D01*
X068309Y027997D01*
X068503Y028466D01*
X068309Y028934D01*
X067841Y029128D01*
D02*
G37*
G36*
X063Y028579D02*
X062449Y028351D01*
X062221Y0278D01*
X062449Y027249D01*
X063Y027021D01*
X063551Y027249D01*
X063779Y0278D01*
X063551Y028351D01*
X063Y028579D01*
D02*
G37*
G36*
X067841Y040224D02*
X067372Y04003D01*
X067178Y039561D01*
X067372Y039093D01*
X067841Y038899D01*
X068309Y039093D01*
X068503Y039561D01*
X068309Y04003D01*
X067841Y040224D01*
D02*
G37*
G36*
Y035263D02*
X067372Y035069D01*
X067178Y034601D01*
X067372Y034132D01*
X067598Y034039D01*
Y033989D01*
X067372Y033895D01*
X067178Y033427D01*
X067372Y032958D01*
X067841Y032764D01*
X068309Y032958D01*
X068503Y033427D01*
X068309Y033895D01*
X068083Y033989D01*
Y034039D01*
X068309Y034132D01*
X068503Y034601D01*
X068309Y035069D01*
X067841Y035263D01*
D02*
G37*
G36*
X063085Y044081D02*
X062245D01*
Y043241D01*
X062279D01*
Y042951D01*
X062392Y042678D01*
X063314Y041756D01*
Y040867D01*
X063427Y040594D01*
X064368Y039653D01*
X064365Y039646D01*
X064528Y039253D01*
X064921Y03909D01*
X065314Y039253D01*
X065477Y039646D01*
X065314Y040039D01*
X064921Y040202D01*
X064914Y040199D01*
X064086Y041027D01*
Y041916D01*
X063973Y042188D01*
X063051Y04311D01*
Y043241D01*
X063085D01*
Y044081D01*
D02*
G37*
G36*
X06255Y037014D02*
Y03655D01*
X063014D01*
X062878Y036878D01*
X06255Y037014D01*
D02*
G37*
G36*
X066935Y038064D02*
X066602Y037926D01*
X066464Y037593D01*
X066592Y037284D01*
Y037114D01*
X066464Y036805D01*
X066592Y036497D01*
Y036132D01*
X065567Y035107D01*
X064806D01*
X064778Y035148D01*
X064831Y035276D01*
X064831Y035276D01*
Y035597D01*
X064883D01*
Y036337D01*
X064098D01*
X064066Y036376D01*
X064187Y036497D01*
X064883D01*
Y036777D01*
X064968Y036862D01*
X065586D01*
Y036706D01*
X065464Y036412D01*
X065602Y036079D01*
X065935Y035941D01*
X066268Y036079D01*
X066406Y036412D01*
X066272Y036734D01*
Y036876D01*
X066406Y037199D01*
X066268Y037532D01*
X065935Y03767D01*
X06564Y037548D01*
X064826D01*
X064826Y037548D01*
X064704Y037497D01*
X064583Y037447D01*
X064583Y037447D01*
X064373Y037237D01*
X064093D01*
Y03721D01*
X064072D01*
X06383Y03711D01*
X06383Y03711D01*
X062994Y036274D01*
X062952Y036302D01*
X063014Y03645D01*
X06255D01*
Y035986D01*
X062698Y036048D01*
X062726Y036006D01*
X058257Y031538D01*
X058157Y031295D01*
X058157Y031295D01*
Y030914D01*
X058107Y030893D01*
X058014Y030669D01*
X057964D01*
X057878Y030878D01*
X05755Y031014D01*
Y0305D01*
Y029986D01*
X057878Y030122D01*
X057964Y030331D01*
X058014D01*
X058107Y030107D01*
X0585Y029944D01*
X058893Y030107D01*
X058975Y030304D01*
X059025D01*
X059107Y030107D01*
X0595Y029944D01*
X059893Y030107D01*
X059975Y030304D01*
X060025D01*
X060107Y030107D01*
X0605Y029944D01*
X060893Y030107D01*
X060975Y030304D01*
X061025D01*
X061107Y030107D01*
X061157Y030086D01*
Y029524D01*
X061157Y029524D01*
X061257Y029281D01*
X06145Y029088D01*
X06145Y029088D01*
X061572Y029038D01*
X061693Y028988D01*
X061693Y028988D01*
X064016D01*
X064016Y028988D01*
X064258Y029088D01*
X064652Y029482D01*
X064652Y029482D01*
X064752Y029724D01*
X064752Y029724D01*
Y02981D01*
X064804D01*
Y029837D01*
X065755D01*
X065755Y029837D01*
X065808Y029859D01*
X065935Y029806D01*
X066268Y029944D01*
X066406Y030277D01*
X066268Y03061D01*
X066233Y030624D01*
Y030717D01*
X066268Y030731D01*
X066406Y031064D01*
X066268Y031397D01*
X066215Y031419D01*
X066225Y031468D01*
X066458D01*
X066464Y031458D01*
X066602Y031125D01*
X066622Y031117D01*
Y031012D01*
X066602Y031004D01*
X066464Y030671D01*
X066602Y030338D01*
X066935Y0302D01*
X067268Y030338D01*
X067406Y030671D01*
X067308Y030907D01*
Y031222D01*
X067406Y031458D01*
X067268Y031791D01*
X067081Y031868D01*
X066896Y032054D01*
X066654Y032154D01*
X066654Y032154D01*
X065141D01*
X065141Y032154D01*
X065141Y032154D01*
X06122D01*
X060978Y032054D01*
X060978Y032054D01*
X060257Y031333D01*
X060157Y031091D01*
X060157Y031091D01*
Y030914D01*
X060107Y030893D01*
X060025Y030696D01*
X059975D01*
X059893Y030893D01*
X059843Y030914D01*
Y031169D01*
X063095Y034421D01*
X063976D01*
X063976Y034421D01*
X063976Y034421D01*
X065709D01*
X065709Y034421D01*
X065951Y034521D01*
X067178Y035748D01*
X067178Y035748D01*
X067278Y03599D01*
X067278Y03599D01*
Y036497D01*
X067406Y036805D01*
X067278Y037114D01*
Y037284D01*
X067406Y037593D01*
X067268Y037926D01*
X066935Y038064D01*
D02*
G37*
G36*
X060933Y041658D02*
X060358D01*
Y040945D01*
X060409D01*
Y040822D01*
X06002Y040433D01*
X05984D01*
X059806Y040515D01*
X059488Y040646D01*
X05917Y040515D01*
X059039Y040197D01*
X05917Y039879D01*
X059488Y039747D01*
X059806Y039879D01*
X05984Y03996D01*
X060118D01*
X060118Y03996D01*
X060285Y04003D01*
X060813Y040557D01*
X060813Y040557D01*
X060882Y040724D01*
X060882Y040724D01*
Y040945D01*
X060933D01*
Y041658D01*
D02*
G37*
G36*
X0625Y041056D02*
X062107Y040893D01*
X061944Y0405D01*
X062107Y040107D01*
X0625Y039944D01*
X062893Y040107D01*
X063056Y0405D01*
X062893Y040893D01*
X0625Y041056D01*
D02*
G37*
%LPD*%
G36*
X061179Y042756D02*
X061163Y04275D01*
X061148Y04274D01*
X061135Y042726D01*
X061124Y042708D01*
X061115Y042687D01*
X061108Y042661D01*
X061104Y042637D01*
X061107Y042617D01*
X061113Y042591D01*
X061121Y04257D01*
X061131Y042552D01*
X061142Y042538D01*
X061155Y042528D01*
X061169Y042523D01*
X061186Y042521D01*
X060853D01*
X060863Y042523D01*
X060871Y042528D01*
X060879Y042538D01*
X060885Y042552D01*
X06089Y04257D01*
X060895Y042591D01*
X060898Y042617D01*
X060899Y042629D01*
X060899Y042632D01*
X060894Y042661D01*
X060887Y042687D01*
X060878Y042708D01*
X060867Y042726D01*
X060855Y04274D01*
X06084Y04275D01*
X060823Y042756D01*
X060804Y042758D01*
X061198D01*
X061179Y042756D01*
D02*
G37*
G36*
X059256Y043126D02*
X059261Y043123D01*
X059266Y04312D01*
X059273Y043117D01*
X05928Y043115D01*
X059288Y043113D01*
X059296Y043112D01*
X059306Y043111D01*
X059327Y04311D01*
Y04301D01*
X059316Y04301D01*
X059296Y043008D01*
X059288Y043007D01*
X05928Y043005D01*
X059273Y043003D01*
X059266Y043D01*
X059261Y042997D01*
X059256Y042994D01*
X059251Y04299D01*
Y04313D01*
X059256Y043126D01*
D02*
G37*
G36*
X059854Y04296D02*
X059853Y042969D01*
X05985Y042978D01*
X059844Y042986D01*
X059837Y042992D01*
X059828Y042997D01*
X059817Y043002D01*
X059804Y043005D01*
X059789Y043008D01*
X059772Y04301D01*
X059752Y04301D01*
Y04311D01*
X059772Y04311D01*
X059789Y043112D01*
X059804Y043115D01*
X059817Y043118D01*
X059828Y043123D01*
X059837Y043128D01*
X059844Y043134D01*
X05985Y043142D01*
X059853Y043151D01*
X059854Y04316D01*
Y04296D01*
D02*
G37*
G36*
X06473Y040171D02*
X064835Y04008D01*
X064856Y040065D01*
X064874Y040054D01*
X064891Y040046D01*
X064905Y040041D01*
X064917Y040039D01*
X064528Y03965D01*
X064526Y039662D01*
X064521Y039676D01*
X064513Y039692D01*
X064502Y039711D01*
X064487Y039732D01*
X064448Y03978D01*
X064396Y039837D01*
X064364Y039868D01*
X064699Y040202D01*
X06473Y040171D01*
D02*
G37*
G36*
X061761Y030202D02*
X061747Y030182D01*
X061735Y03016D01*
X061725Y030134D01*
X061717Y030106D01*
X061709Y030075D01*
X061704Y030041D01*
X0617Y030005D01*
X061697Y029923D01*
X061303D01*
X061302Y029965D01*
X061296Y030041D01*
X061291Y030075D01*
X061283Y030106D01*
X061275Y030134D01*
X061265Y03016D01*
X061253Y030182D01*
X061239Y030202D01*
X061224Y030219D01*
X061776D01*
X061761Y030202D01*
D02*
G37*
G36*
X065789Y029998D02*
X065446Y029983D01*
X065447Y030377D01*
X065483Y030377D01*
X065569Y030383D01*
X065592Y030387D01*
X06561Y030391D01*
X065626Y030397D01*
X065638Y030403D01*
X065647Y03041D01*
X065653Y030417D01*
X065789Y029998D01*
D02*
G37*
G36*
X064687Y030419D02*
X064699Y03041D01*
X064719Y030402D01*
X064746Y030395D01*
X064782Y03039D01*
X064876Y030381D01*
X065002Y030377D01*
X065077Y030377D01*
Y029983D01*
X065002Y029983D01*
X064746Y029964D01*
X064719Y029958D01*
X064699Y02995D01*
X064687Y029941D01*
X064683Y029931D01*
Y030429D01*
X064687Y030419D01*
D02*
G37*
G36*
X067151Y037362D02*
X067147Y037352D01*
X067143Y037339D01*
X06714Y037323D01*
X067138Y037304D01*
X067134Y037255D01*
X067133Y037195D01*
X06714Y037075D01*
X067143Y037059D01*
X067147Y037046D01*
X067151Y037037D01*
X067155Y03703D01*
X066715D01*
X066719Y037037D01*
X066723Y037046D01*
X066727Y037059D01*
X06673Y037075D01*
X066732Y037094D01*
X066736Y037143D01*
X066737Y037203D01*
X06673Y037323D01*
X066727Y037339D01*
X066723Y037352D01*
X066719Y037362D01*
X066715Y037368D01*
X067155D01*
X067151Y037362D01*
D02*
G37*
G36*
X066151Y03697D02*
X066146Y036964D01*
X066142Y036954D01*
X066138Y036941D01*
X066135Y036925D01*
X066132Y036906D01*
X066128Y036857D01*
X066127Y036804D01*
X066135Y036686D01*
X066138Y03667D01*
X066142Y036657D01*
X066146Y036647D01*
X066151Y036641D01*
X06571Y036632D01*
X065715Y036639D01*
X065718Y036648D01*
X065722Y036661D01*
X065724Y036677D01*
X065729Y036718D01*
X065731Y036773D01*
X065732Y036808D01*
X065724Y036934D01*
X065722Y03695D01*
X065718Y036963D01*
X065715Y036972D01*
X06571Y036978D01*
X066151Y03697D01*
D02*
G37*
G36*
X064614Y02993D02*
X064613Y029924D01*
X064611Y029914D01*
X06461Y029899D01*
X064607Y029799D01*
X064606Y029724D01*
X064213D01*
X064203Y029932D01*
X064616D01*
X064614Y02993D01*
D02*
G37*
G36*
X065706Y036983D02*
X0657Y036987D01*
X06569Y036992D01*
X065677Y036996D01*
X065661Y036999D01*
X065642Y037002D01*
X065593Y037006D01*
X065496Y037008D01*
X065505Y037402D01*
X065541Y037402D01*
X06567Y037409D01*
X065686Y037412D01*
X065699Y037416D01*
X065708Y037419D01*
X065714Y037424D01*
X065706Y036983D01*
D02*
G37*
G36*
X067151Y036574D02*
X067147Y036565D01*
X067143Y036552D01*
X06714Y036536D01*
X067138Y036516D01*
X067134Y036468D01*
X067132Y036371D01*
X066738D01*
X066738Y036406D01*
X06673Y036536D01*
X066727Y036552D01*
X066723Y036565D01*
X066719Y036574D01*
X066715Y03658D01*
X067155D01*
X067151Y036574D01*
D02*
G37*
G36*
X060697Y031033D02*
X060709Y030872D01*
X060713Y030853D01*
X060718Y030838D01*
X060723Y030827D01*
X06073Y03082D01*
X06027D01*
X060277Y030827D01*
X060282Y030838D01*
X060287Y030853D01*
X060291Y030872D01*
X060295Y030896D01*
X0603Y030956D01*
X060303Y031033D01*
X060303Y031077D01*
X060697D01*
X060697Y031033D01*
D02*
G37*
G36*
X058698Y031035D02*
X058704Y030959D01*
X058709Y030925D01*
X058717Y030894D01*
X058725Y030866D01*
X058735Y03084D01*
X058747Y030818D01*
X058761Y030798D01*
X058776Y030781D01*
X058224D01*
X058239Y030798D01*
X058253Y030818D01*
X058265Y03084D01*
X058275Y030866D01*
X058283Y030894D01*
X058291Y030925D01*
X058296Y030959D01*
X0583Y030995D01*
X058303Y031077D01*
X058697D01*
X058698Y031035D01*
D02*
G37*
G36*
X059698D02*
X059704Y030959D01*
X059709Y030925D01*
X059717Y030894D01*
X059725Y030866D01*
X059735Y03084D01*
X059747Y030818D01*
X059761Y030798D01*
X059776Y030781D01*
X059224D01*
X059239Y030798D01*
X059253Y030818D01*
X059265Y03084D01*
X059275Y030866D01*
X059283Y030894D01*
X059291Y030925D01*
X059296Y030959D01*
X0593Y030995D01*
X059303Y031077D01*
X059697D01*
X059698Y031035D01*
D02*
G37*
G36*
X065616Y031614D02*
X065538Y031611D01*
X065463Y031603D01*
X06539Y031589D01*
X065319Y03157D01*
X065251Y031545D01*
X065185Y031514D01*
X065121Y031478D01*
X06506Y031436D01*
X065001Y031389D01*
X064951Y031342D01*
X064909Y031298D01*
X06482Y03119D01*
X064783Y031136D01*
X064753Y031084D01*
X064728Y031032D01*
X064708Y030981D01*
X064694Y03093D01*
X064686Y03088D01*
X064683Y030831D01*
X064136Y031329D01*
X064185Y031332D01*
X064235Y03134D01*
X064285Y031354D01*
X064336Y031373D01*
X064388Y031398D01*
X064441Y031429D01*
X064483Y031457D01*
X064493Y031478D01*
X064502Y031514D01*
X064497Y031545D01*
X064479Y03157D01*
X064447Y031589D01*
X064402Y031603D01*
X064344Y031611D01*
X064272Y031614D01*
X065141Y032008D01*
X065616Y031614D01*
D02*
G37*
G36*
X067173Y03125D02*
X067171Y031242D01*
X067169Y03123D01*
X067167Y031214D01*
X067163Y031148D01*
X067162Y031057D01*
X067162Y031042D01*
X067171Y030887D01*
X067173Y030879D01*
X067176Y030874D01*
X066737Y030916D01*
X066743Y030922D01*
X066748Y030932D01*
X066753Y030945D01*
X066757Y030961D01*
X06676Y030981D01*
X066765Y03103D01*
X066766Y031058D01*
X06676Y031148D01*
X066757Y031167D01*
X066753Y031184D01*
X066748Y031197D01*
X066743Y031206D01*
X066737Y031213D01*
X067176Y031255D01*
X067173Y03125D01*
D02*
G37*
G36*
X064747Y035715D02*
X064734Y035703D01*
X064723Y035683D01*
X064713Y035656D01*
X064704Y03562D01*
X064697Y035577D01*
X064692Y035526D01*
X064686Y0354D01*
X064685Y035325D01*
X064291D01*
X064291Y0354D01*
X064279Y035577D01*
X064272Y03562D01*
X064264Y035656D01*
X064254Y035683D01*
X064242Y035703D01*
X064229Y035715D01*
X064214Y035719D01*
X064762D01*
X064747Y035715D01*
D02*
G37*
G36*
X064627Y035136D02*
X064598Y035103D01*
X06458Y035073D01*
X064573Y035047D01*
X064578Y035024D01*
X064594Y035005D01*
X064621Y034989D01*
X06466Y034976D01*
X064711Y034968D01*
X064772Y034962D01*
X064845Y034961D01*
X063976Y034567D01*
X063501Y034961D01*
X063579Y034963D01*
X063654Y034972D01*
X063727Y034986D01*
X063798Y035005D01*
X063866Y03503D01*
X063932Y035061D01*
X063996Y035097D01*
X064057Y035139D01*
X064116Y035186D01*
X064173Y035239D01*
X064627Y035136D01*
D02*
G37*
G36*
X065655Y031419D02*
X065602Y031397D01*
X065464Y031064D01*
X065547Y030865D01*
Y030523D01*
X064804D01*
Y03055D01*
X064014D01*
Y029814D01*
X063874Y029674D01*
X061843D01*
Y030086D01*
X061893Y030107D01*
X061986Y030331D01*
X062036D01*
X062122Y030122D01*
X06245Y029986D01*
Y0305D01*
Y031014D01*
X062122Y030878D01*
X062036Y030669D01*
X061986D01*
X061893Y030893D01*
X0615Y031056D01*
X061107Y030893D01*
X061025Y030696D01*
X060975D01*
X060893Y030893D01*
X060862Y030906D01*
X060855Y03096D01*
X061363Y031468D01*
X063972D01*
X064014Y03145D01*
Y03071D01*
X064804D01*
Y03099D01*
X065275Y03146D01*
X065284Y031465D01*
X065294Y031468D01*
X065645D01*
X065655Y031419D01*
D02*
G37*
G36*
X066121Y03081D02*
X066114Y030803D01*
X066109Y030794D01*
X066103Y030781D01*
X066099Y030764D01*
X066095Y030745D01*
X066092Y030722D01*
X066089Y03068D01*
X066095Y030596D01*
X066099Y030577D01*
X066103Y030561D01*
X066109Y030548D01*
X066114Y030538D01*
X066121Y030531D01*
X065685Y030468D01*
X065686Y030472D01*
X065688Y030479D01*
X065689Y03049D01*
X065692Y030545D01*
X065693Y030667D01*
X06571Y030671D01*
X065693Y030674D01*
X065685Y030873D01*
X066121Y03081D01*
D02*
G37*
%LPC*%
G36*
X063014Y03045D02*
X06255D01*
Y029986D01*
X062878Y030122D01*
X063014Y03045D01*
D02*
G37*
G36*
X06255Y031014D02*
Y03055D01*
X063014D01*
X062878Y030878D01*
X06255Y031014D01*
D02*
G37*
%LPD*%
G36*
X060799Y041064D02*
X060787Y041058D01*
X060777Y041049D01*
X060768Y041035D01*
X060761Y041017D01*
X060755Y040995D01*
X06075Y04097D01*
X060747Y04094D01*
X060745Y040907D01*
X060744Y040869D01*
X060547D01*
X060546Y040907D01*
X060541Y04097D01*
X060536Y040995D01*
X06053Y041017D01*
X060523Y041035D01*
X060514Y041049D01*
X060504Y041058D01*
X060492Y041064D01*
X060479Y041066D01*
X060812D01*
X060799Y041064D01*
D02*
G37*
G36*
X059721Y040383D02*
X059743Y040365D01*
X059766Y040348D01*
X059789Y040334D01*
X059813Y040322D01*
X059838Y040313D01*
X059864Y040305D01*
X05989Y0403D01*
X059916Y040296D01*
X059944Y040295D01*
Y040098D01*
X059916Y040097D01*
X05989Y040094D01*
X059864Y040089D01*
X059838Y040081D01*
X059813Y040071D01*
X059789Y040059D01*
X059766Y040045D01*
X059743Y040029D01*
X059721Y040011D01*
X059699Y03999D01*
Y040404D01*
X059721Y040383D01*
D02*
G37*
D10*
X049658Y04249D02*
D03*
X046902D02*
D03*
D11*
X064015Y043661D02*
D03*
X062665D02*
D03*
D12*
X03802Y032418D02*
D03*
X03765Y0334D02*
D03*
X038394Y033402D02*
D03*
X060646Y041301D02*
D03*
X060276Y042283D02*
D03*
X06102Y042286D02*
D03*
D13*
X046925Y041291D02*
D03*
X047825D02*
D03*
X061001Y043032D02*
D03*
X060101D02*
D03*
X055726Y024094D02*
D03*
X054826D02*
D03*
X051625Y028611D02*
D03*
X050725D02*
D03*
D14*
X064409Y03108D02*
D03*
Y03018D02*
D03*
X064488Y035967D02*
D03*
Y036867D02*
D03*
X03753Y02853D02*
D03*
Y02943D02*
D03*
X038025Y030501D02*
D03*
Y031401D02*
D03*
X03505Y03549D02*
D03*
Y03459D02*
D03*
D15*
X055992Y023D02*
D03*
X05501Y02263D02*
D03*
X055008Y023374D02*
D03*
D16*
X05548Y0278D02*
D03*
Y026028D02*
D03*
X054843Y042008D02*
D03*
D17*
X036732Y038543D02*
D03*
X035433D02*
D03*
X036732Y036378D02*
D03*
X035433D02*
D03*
D18*
X042495Y030961D02*
Y033961D01*
Y028971D02*
Y030961D01*
X052264Y02391D02*
X05335D01*
X051645Y023291D02*
X052264Y02391D01*
X047599Y023291D02*
X051645D01*
X047Y02389D02*
X047599Y023291D01*
X065929Y036417D02*
Y037205D01*
X066965Y030709D02*
Y0315D01*
X06589Y030315D02*
Y031102D01*
X05064Y04249D02*
X050669Y04252D01*
X049658Y04249D02*
X05064D01*
X041485Y026971D02*
X041495Y026961D01*
X041485Y026971D02*
Y027961D01*
X041495Y025961D02*
Y026961D01*
Y023971D02*
Y025961D01*
X041485Y023961D02*
X041495Y023971D01*
X041485Y027961D02*
X042495Y028971D01*
X05633Y04411D02*
X058157Y042283D01*
X05549Y04411D02*
X05633D01*
X03745Y02951D02*
X03753Y02943D01*
X03539Y02951D02*
X03745D01*
X05441Y02941D02*
X0555Y0305D01*
X05441Y02497D02*
Y02941D01*
X05335Y02391D02*
X05441Y02497D01*
X047Y02389D02*
Y025D01*
X064409Y03018D02*
X065755D01*
X064488Y036867D02*
X064826Y037205D01*
X061693Y029331D02*
X064016D01*
X065141Y031811D02*
X066654D01*
X064409Y03108D02*
X065141Y031811D01*
X06122D02*
X065141D01*
X0605Y031091D02*
X06122Y031811D01*
X0605Y0305D02*
Y031091D01*
X064409Y029724D02*
Y03018D01*
X064016Y029331D02*
X064409Y029724D01*
X0615Y029524D02*
X061693Y029331D01*
X0615Y029524D02*
Y0305D01*
X0585D02*
Y031295D01*
X064072Y036867D01*
X064488D01*
X0595Y0305D02*
Y031311D01*
X062953Y034764D01*
X063976D01*
X064488Y035276D01*
Y035967D01*
X063976Y034764D02*
X065709D01*
X058157Y042283D02*
X060276D01*
X042475Y033961D02*
Y034961D01*
Y035961D01*
Y036961D01*
Y037961D01*
Y038961D01*
X066654Y031811D02*
X066965Y0315D01*
X065755Y03018D02*
X06589Y030315D01*
X064826Y037205D02*
X065929D01*
X066935Y03599D02*
Y036805D01*
Y037593D01*
X065709Y034764D02*
X066935Y03599D01*
D19*
X062665Y042951D02*
Y043661D01*
Y042951D02*
X0637Y041916D01*
Y040867D02*
Y041916D01*
X065118Y042309D02*
Y042558D01*
X064015Y043661D02*
X065118Y042558D01*
X0637Y040867D02*
X064921Y039646D01*
X065118Y042309D02*
X065295Y042132D01*
Y041968D02*
Y042132D01*
D20*
X038374Y033422D02*
Y033876D01*
X0372Y03143D02*
Y0355D01*
X049345Y040056D02*
X049765Y039636D01*
Y038691D02*
Y039636D01*
X049865Y028601D02*
X049875Y028611D01*
X050725D01*
X052545Y03D02*
X053D01*
X051625Y02908D02*
X052545Y03D01*
X051625Y028611D02*
Y02908D01*
X04893Y036451D02*
X049995D01*
X048005Y037376D02*
X04893Y036451D01*
X051654Y036602D02*
Y041535D01*
Y036602D02*
X051655Y036601D01*
X049255Y035961D02*
X049475D01*
X04868D02*
X049255D01*
X045975Y030975D02*
X047Y032D01*
X045975Y028561D02*
Y030975D01*
X04493Y027516D02*
X045975Y028561D01*
X045765Y029736D02*
Y032261D01*
X044485Y028456D02*
X045765Y029736D01*
X044485Y027961D02*
Y028456D01*
X045765Y032261D02*
X046504Y033D01*
X04552Y033117D02*
X046403Y034D01*
X04552Y030046D02*
Y033117D01*
X044163Y028688D02*
X04552Y030046D01*
X036732Y036378D02*
X03713Y035981D01*
X038245D01*
X054484Y024094D02*
X054826D01*
X053645Y023256D02*
X054484Y024094D01*
X05277Y023256D02*
X053645D01*
X0439Y027516D02*
X04493D01*
X043485Y027101D02*
X0439Y027516D01*
X043485Y026961D02*
Y027101D01*
X043822Y028688D02*
X044163D01*
X043475Y028341D02*
X043822Y028688D01*
X043475Y027961D02*
Y028341D01*
X045916Y035D02*
X047D01*
X044955Y035961D02*
X045916Y035D01*
X044465Y035961D02*
X044955D01*
X047719Y035D02*
X04868Y035961D01*
X047Y035D02*
X047719D01*
X0375Y0285D02*
X03753Y02853D01*
X036Y0285D02*
X0375D01*
X03753Y02853D02*
X038104D01*
X039055Y029481D01*
Y038441D01*
X041005Y040391D01*
X04694D01*
X048005Y039326D01*
Y037376D02*
Y039326D01*
X0512Y023876D02*
Y038696D01*
X046902Y040899D02*
X047745Y040056D01*
X049345D01*
X050935Y038961D02*
X0512Y038696D01*
X050495Y038961D02*
X050935D01*
X05647Y033816D02*
Y03647D01*
X0565Y0365D01*
X055515Y033256D02*
Y036485D01*
X0555Y0365D02*
X055515Y036485D01*
X046205Y030418D02*
X046787Y031D01*
X038374Y033876D02*
X038379Y033871D01*
X04007Y02857D02*
Y033106D01*
X03599Y03549D02*
X036Y0355D01*
X03718D02*
X0372D01*
X046787Y031D02*
X047D01*
X046504Y033D02*
X047D01*
X046403Y034D02*
X047D01*
X044495Y026961D02*
X045115D01*
X046205Y028051D01*
Y030418D01*
X049995Y036451D02*
X050485Y035961D01*
X046902Y040899D02*
Y04249D01*
X049765Y038691D02*
X050495Y037961D01*
D21*
X0555Y025445D02*
Y026114D01*
Y025445D02*
X056765Y02418D01*
X057795D01*
X0582Y023775D01*
Y023D02*
Y023775D01*
X055992Y023D02*
X058142D01*
D22*
X04768Y044331D02*
X054059D01*
X04768Y04431D02*
X047825Y044165D01*
Y041291D02*
Y044165D01*
X042495Y02325D02*
X04537D01*
X03679D02*
X042495D01*
Y023961D01*
X04537Y02325D02*
X04552Y0231D01*
X042495Y027961D02*
X043505Y028971D01*
X04552Y0231D02*
Y02652D01*
X047Y028D01*
X0585Y034406D02*
Y0365D01*
X0565Y032406D02*
X0585Y034406D01*
X0565Y0305D02*
Y032406D01*
X04768Y04431D02*
Y044331D01*
X03754Y04431D02*
X04768D01*
X054059Y044331D02*
X0555Y04289D01*
X03465Y02539D02*
Y02665D01*
X0355Y0275D01*
X036D01*
X04552Y0231D02*
X04652Y0221D01*
X0582Y0278D02*
Y02842D01*
X057725Y028895D02*
X0582Y02842D01*
X057105Y028895D02*
X057725D01*
X0565Y0295D02*
X057105Y028895D01*
X03465Y02539D02*
X03679Y02325D01*
X0582Y0278D02*
X06023Y02577D01*
Y02291D02*
Y02577D01*
X03433Y03882D02*
Y0411D01*
X03754Y04431D01*
X0555Y04289D02*
X056488Y041902D01*
X057188Y040192D02*
X0585Y03888D01*
X056488Y040192D02*
X057188D01*
X0585Y0365D02*
Y03888D01*
X058939Y039319D01*
X0625D01*
X0565Y0295D02*
Y0305D01*
X05548Y0278D02*
X0582D01*
X036Y0315D02*
Y03351D01*
X03665Y03931D02*
X037379D01*
X03482D02*
X03665D01*
X036732Y039228D01*
Y038543D02*
Y039228D01*
X037379Y03931D02*
X037835Y038854D01*
X03464Y03459D02*
X03505D01*
Y03399D02*
Y03459D01*
Y03399D02*
X03553Y03351D01*
X036D01*
X04652Y0221D02*
X05942D01*
X06023Y02291D01*
X03433Y03882D02*
X03482Y03931D01*
X03433Y0349D02*
X03464Y03459D01*
X03433Y0349D02*
Y03882D01*
X056488Y040192D02*
Y041902D01*
X043485Y037981D02*
Y038961D01*
X042495Y023961D02*
Y027961D01*
X043505Y028971D02*
Y037961D01*
X043485Y037981D02*
X043505Y037961D01*
D23*
X03763Y034186D02*
X03859Y035146D01*
X038247Y036864D02*
X03859Y036521D01*
Y035146D02*
Y036521D01*
X037835Y036864D02*
X038247D01*
X03763Y03342D02*
Y034186D01*
X03802Y032418D02*
X038025Y032413D01*
Y031401D02*
Y032413D01*
X038008Y031458D02*
X038008Y031458D01*
X038Y03145D02*
X038008Y031458D01*
X038008Y031442D01*
X037993Y032418D02*
X038001Y03241D01*
X038008Y031442D02*
Y031458D01*
X037992Y032484D02*
X038008Y0325D01*
X03505Y03549D02*
X03599D01*
X036Y0305D02*
X037987D01*
X035433Y036378D02*
Y036803D01*
X054Y02263D02*
X05501D01*
X035433Y036803D02*
X035851Y037221D01*
X037478D01*
X037835Y036864D01*
D24*
X044495Y025961D02*
Y026961D01*
X043485Y025961D02*
Y026961D01*
X060073Y04306D02*
X060101Y043032D01*
X05918Y04306D02*
X060073D01*
X05463Y03822D02*
Y041D01*
X05341Y037D02*
X05463Y03822D01*
X053Y037D02*
X05341D01*
X037987Y0305D02*
X037992Y030495D01*
D25*
X053008Y04289D02*
X0555D01*
X052638Y04252D02*
X053008Y04289D01*
X036102Y037874D02*
X037835D01*
X035433Y038543D02*
X036102Y037874D01*
D26*
X061001Y042304D02*
Y043032D01*
Y042304D02*
X06102Y042286D01*
X060646Y040724D02*
Y041301D01*
X060118Y040197D02*
X060646Y040724D01*
X059488Y040197D02*
X060118D01*
X055008Y023374D02*
X055264D01*
X055726Y023836D01*
Y024094D01*
D27*
X053Y039D02*
D03*
X047Y031D02*
D03*
X053Y038D02*
D03*
Y037D02*
D03*
Y036D02*
D03*
Y035D02*
D03*
Y034D02*
D03*
Y033D02*
D03*
Y032D02*
D03*
Y031D02*
D03*
Y03D02*
D03*
Y029D02*
D03*
Y028D02*
D03*
Y027D02*
D03*
Y026D02*
D03*
Y025D02*
D03*
X047D02*
D03*
Y026D02*
D03*
Y027D02*
D03*
Y028D02*
D03*
Y029D02*
D03*
Y03D02*
D03*
Y032D02*
D03*
Y033D02*
D03*
Y034D02*
D03*
Y035D02*
D03*
Y036D02*
D03*
Y037D02*
D03*
Y038D02*
D03*
D28*
Y039D02*
D03*
D29*
X044465Y035961D02*
D03*
X043485D02*
D03*
X042475D02*
D03*
X049265Y029961D02*
D03*
X050275D02*
D03*
X049265Y030961D02*
D03*
X050275D02*
D03*
X049255Y031961D02*
D03*
X049265Y032961D02*
D03*
X050265Y036961D02*
D03*
X049255D02*
D03*
X050275Y037961D02*
D03*
X049265D02*
D03*
Y038961D02*
D03*
X050275D02*
D03*
X049255Y033961D02*
D03*
Y035961D02*
D03*
X050265D02*
D03*
X049265Y034961D02*
D03*
X044465Y036961D02*
D03*
X043485D02*
D03*
X042475D02*
D03*
X044465Y037961D02*
D03*
X043485D02*
D03*
X042475D02*
D03*
X044465Y038961D02*
D03*
X043485D02*
D03*
X042475D02*
D03*
X044465Y034961D02*
D03*
X043485D02*
D03*
X042475D02*
D03*
X044465Y033961D02*
D03*
X043485D02*
D03*
X042475D02*
D03*
X044465Y032961D02*
D03*
X043485D02*
D03*
X042475D02*
D03*
X044465Y031961D02*
D03*
X043485D02*
D03*
X042475D02*
D03*
X044465Y030961D02*
D03*
X043485D02*
D03*
X042475D02*
D03*
X044465Y029961D02*
D03*
X043485D02*
D03*
X042475D02*
D03*
D30*
X037835Y038854D02*
D03*
Y037874D02*
D03*
Y036864D02*
D03*
D31*
X050265Y031961D02*
D03*
X050275Y032961D02*
D03*
X050265Y033961D02*
D03*
X050275Y034961D02*
D03*
D32*
X032488Y021D02*
D03*
X035717Y0455D02*
D03*
X038945D02*
D03*
X035717Y021D02*
D03*
X038945D02*
D03*
X032488Y0455D02*
D03*
Y039634D02*
D03*
Y042862D02*
D03*
Y036406D02*
D03*
Y033177D02*
D03*
Y029949D02*
D03*
Y02672D02*
D03*
Y023492D02*
D03*
X051858Y0455D02*
D03*
X055087D02*
D03*
X058315D02*
D03*
X04863D02*
D03*
X045402D02*
D03*
X042173D02*
D03*
X061543D02*
D03*
X064772D02*
D03*
X068D02*
D03*
X042173Y021D02*
D03*
X045402D02*
D03*
X04863D02*
D03*
X068D02*
D03*
X064772D02*
D03*
X061543D02*
D03*
X058315D02*
D03*
X055087D02*
D03*
X051858D02*
D03*
D33*
X0625Y041681D02*
D03*
Y0405D02*
D03*
Y039319D02*
D03*
X0555Y0305D02*
D03*
X0565D02*
D03*
X0575D02*
D03*
X0585D02*
D03*
X0595D02*
D03*
X0605D02*
D03*
X0615D02*
D03*
X0625D02*
D03*
Y0365D02*
D03*
X0615D02*
D03*
X0605D02*
D03*
X0595D02*
D03*
X0585D02*
D03*
X0575D02*
D03*
X0565D02*
D03*
X0555D02*
D03*
X064921Y039646D02*
D03*
D34*
X03812Y04103D02*
D03*
Y025676D02*
D03*
D35*
X041485Y023961D02*
D03*
X042495D02*
D03*
X043475D02*
D03*
X044485D02*
D03*
X044495Y025961D02*
D03*
X043485D02*
D03*
X042505D02*
D03*
X041495D02*
D03*
X044495Y026961D02*
D03*
X043485D02*
D03*
X042505D02*
D03*
X041495D02*
D03*
X044485Y027961D02*
D03*
X043475D02*
D03*
X042495D02*
D03*
X041485D02*
D03*
X065935Y024984D02*
D03*
Y024197D02*
D03*
X066935Y025378D02*
D03*
Y024591D02*
D03*
X065935Y031064D02*
D03*
Y030277D02*
D03*
X066935Y031458D02*
D03*
Y030671D02*
D03*
X065935Y037199D02*
D03*
Y036412D02*
D03*
X066935Y037593D02*
D03*
Y036805D02*
D03*
D36*
X036Y0315D02*
D03*
Y0275D02*
D03*
D37*
Y0305D02*
D03*
Y0285D02*
D03*
D38*
Y03351D02*
D03*
Y03449D02*
D03*
D39*
Y0355D02*
D03*
D40*
X065295Y041968D02*
D03*
X067795D02*
D03*
D41*
X066295Y043969D02*
D03*
D42*
X059488Y040197D02*
D03*
D43*
X056488Y040192D02*
D03*
D44*
X051654Y041535D02*
D03*
X050669Y04252D02*
D03*
X052638D02*
D03*
D45*
X053843Y042008D02*
D03*
D46*
X0582Y023D02*
D03*
X063Y0278D02*
D03*
X0572Y0254D02*
D03*
X063Y023D02*
D03*
X0582Y0278D02*
D03*
D47*
X067841Y022386D02*
D03*
Y027347D02*
D03*
Y028466D02*
D03*
Y033427D02*
D03*
Y034601D02*
D03*
Y039561D02*
D03*
D48*
X049865Y028601D02*
D03*
X051655Y036601D02*
D03*
X038245Y035981D02*
D03*
X05277Y023256D02*
D03*
X0512Y023876D02*
D03*
X05647Y033816D02*
D03*
X055515Y033256D02*
D03*
X038379Y033871D02*
D03*
X04007Y033106D02*
D03*
X03866Y02729D02*
D03*
X03802Y02731D02*
D03*
X03801Y02814D02*
D03*
X04007Y02857D02*
D03*
X05918Y04306D02*
D03*
X05463Y041D02*
D03*
X03718Y0355D02*
D03*
X0372Y03143D02*
D03*
D49*
X05549Y04411D02*
D03*
D50*
X054Y02263D02*
D03*
X03539Y02951D02*
D03*
M02*
