G04 Layer_Color=65535*
%FSTAX24Y24*%
%MOIN*%
G70*
G01*
G75*
%ADD24C,0.0100*%
%ADD26C,0.0197*%
%ADD52C,0.0098*%
%ADD53C,0.0070*%
%ADD54C,0.0080*%
%ADD55C,0.0079*%
%ADD56C,0.0120*%
%ADD57C,0.0040*%
%ADD58C,0.0050*%
%ADD59C,0.0020*%
%ADD60C,0.0039*%
%ADD61R,0.1000X0.0500*%
G36*
X041745Y025151D02*
X041245D01*
X041495Y025401D01*
X041745Y025151D01*
D02*
G37*
G36*
X044485Y024521D02*
X044235Y024771D01*
X044735D01*
X044485Y024521D01*
D02*
G37*
G36*
X041735Y027151D02*
X041235D01*
X041485Y027401D01*
X041735Y027151D01*
D02*
G37*
G36*
X041745Y026151D02*
X041245D01*
X041495Y026401D01*
X041745Y026151D01*
D02*
G37*
D24*
X04939Y04176D02*
Y04221D01*
Y04277D02*
Y04322D01*
X04717D02*
X04939D01*
X04717Y04176D02*
X04939D01*
X04778Y04224D02*
X04878D01*
X04778D02*
Y04274D01*
X04878D01*
Y04224D02*
Y04274D01*
X04717Y04176D02*
Y04221D01*
Y04277D02*
Y04322D01*
X061425Y037612D02*
Y043362D01*
Y037612D02*
X063575D01*
Y043362D01*
X061425D02*
X063575D01*
X036732Y036457D02*
Y038425D01*
X035354Y036457D02*
X036732D01*
X035354D02*
Y038425D01*
X036732D01*
X069775Y035781D02*
X070375D01*
Y036181D01*
X069775Y03678D02*
Y03638D01*
X070375D01*
Y03678D01*
X070075Y03638D02*
Y03658D01*
X069775Y03738D02*
Y03698D01*
X070075D01*
Y03718D01*
Y03698D01*
X070375D01*
X069775Y03758D02*
Y03798D01*
Y03778D01*
X070375D01*
X070515Y029701D02*
X069915D01*
Y030001D01*
X070015Y030101D01*
X070215D01*
X070315Y030001D01*
Y029701D01*
Y029901D02*
X070515Y030101D01*
X069915Y0303D02*
Y0305D01*
Y0304D01*
X070515D01*
Y0303D01*
Y0305D01*
X070015Y0312D02*
X069915Y0311D01*
Y0309D01*
X070015Y0308D01*
X070415D01*
X070515Y0309D01*
Y0311D01*
X070415Y0312D01*
X070215D01*
Y031D01*
X069915Y0314D02*
X070515D01*
X070215D01*
Y0318D01*
X069915D01*
X070515D01*
X069915Y032D02*
Y0324D01*
Y0322D01*
X070515D01*
X069906Y024597D02*
X070506D01*
X070206D01*
Y024997D01*
X069906D01*
X070506D01*
X070006Y025197D02*
X069906Y025297D01*
Y025497D01*
X070006Y025597D01*
X070106D01*
X070206Y025497D01*
Y025397D01*
Y025497D01*
X070306Y025597D01*
X070406D01*
X070506Y025497D01*
Y025297D01*
X070406Y025197D01*
X03228Y04266D02*
X03268Y04226D01*
X03228D02*
X03268Y04266D01*
X03228Y04246D02*
X03268D01*
X03248Y04226D02*
Y04266D01*
X046475Y04422D02*
Y043621D01*
X046775D01*
X046875Y043721D01*
Y043821D01*
X046775Y043921D01*
X046475D01*
X046775D01*
X046875Y044021D01*
Y04412D01*
X046775Y04422D01*
X046475D01*
X047075D02*
Y043721D01*
X047175Y043621D01*
X047375D01*
X047475Y043721D01*
Y04422D01*
X047675D02*
X048074D01*
X047875D01*
Y043621D01*
X048274Y04422D02*
X048674D01*
X048474D01*
Y043621D01*
X049174Y04422D02*
X048974D01*
X048874Y04412D01*
Y043721D01*
X048974Y043621D01*
X049174D01*
X049274Y043721D01*
Y04412D01*
X049174Y04422D01*
X049474Y043621D02*
Y04422D01*
X049874Y043621D01*
Y04422D01*
X03387Y02721D02*
X03447D01*
Y02761D01*
X03387Y02781D02*
X03447D01*
Y02811D01*
X03437Y02821D01*
X03397D01*
X03387Y02811D01*
Y02781D01*
X03447Y02841D02*
X03387D01*
Y02871D01*
X03397Y028809D01*
X03417D01*
X03427Y02871D01*
Y02841D01*
Y02861D02*
X03447Y028809D01*
X033765Y033291D02*
Y033457D01*
Y033374D01*
X034265D01*
Y033291D01*
Y033457D01*
Y033707D02*
X033765D01*
Y033957D01*
X033848Y03404D01*
X034015D01*
X034098Y033957D01*
Y033707D01*
Y033874D02*
X034265Y03404D01*
X034348Y034207D02*
Y03454D01*
X033765Y034707D02*
Y034873D01*
Y03479D01*
X034265D01*
Y034707D01*
Y034873D01*
Y035123D02*
X033765D01*
X034265Y035457D01*
X033765D01*
X069385Y041211D02*
X069885D01*
Y041461D01*
X069802Y041544D01*
X069468D01*
X069385Y041461D01*
Y041211D01*
X069468Y042044D02*
X069385Y04196D01*
Y041794D01*
X069468Y04171D01*
X069802D01*
X069885Y041794D01*
Y04196D01*
X069802Y042044D01*
X069385Y04221D02*
Y042377D01*
Y042294D01*
X069885D01*
Y04221D01*
Y042377D01*
Y042627D02*
X069385D01*
X069885Y04296D01*
X069385D01*
X038605Y024185D02*
Y023686D01*
X038705Y023586D01*
X038905D01*
X039005Y023686D01*
Y024185D01*
X039205Y023586D02*
Y023986D01*
X039405Y024185D01*
X039605Y023986D01*
Y023586D01*
Y023886D01*
X039205D01*
X039805Y023586D02*
Y024185D01*
X040105D01*
X040204Y024085D01*
Y023886D01*
X040105Y023786D01*
X039805D01*
X040005D02*
X040204Y023586D01*
X040404Y024185D02*
X040804D01*
X040604D01*
Y023586D01*
X033865Y029811D02*
Y029977D01*
Y029894D01*
X034365D01*
Y029811D01*
Y029977D01*
Y030227D02*
X033865D01*
Y030477D01*
X033948Y03056D01*
X034115D01*
X034198Y030477D01*
Y030227D01*
Y030394D02*
X034365Y03056D01*
X034448Y030727D02*
Y03106D01*
X033865Y031477D02*
Y03131D01*
X033948Y031227D01*
X034282D01*
X034365Y03131D01*
Y031477D01*
X034282Y03156D01*
X033948D01*
X033865Y031477D01*
Y031727D02*
X034282D01*
X034365Y03181D01*
Y031977D01*
X034282Y03206D01*
X033865D01*
Y032227D02*
Y03256D01*
Y032393D01*
X034365D01*
X034435Y036841D02*
X033835D01*
Y037141D01*
X033935Y037241D01*
X034135D01*
X034235Y037141D01*
Y036841D01*
Y037041D02*
X034435Y037241D01*
X033935Y03784D02*
X033835Y03774D01*
Y03754D01*
X033935Y03744D01*
X034335D01*
X034435Y03754D01*
Y03774D01*
X034335Y03784D01*
X034135D01*
Y03764D01*
X033835Y03804D02*
X034435D01*
Y03834D01*
X034335Y03844D01*
X034235D01*
X034135Y03834D01*
Y03804D01*
Y03834D01*
X034035Y03844D01*
X033935D01*
X033835Y03834D01*
Y03804D01*
X056605Y044D02*
X056505Y0441D01*
X056305D01*
X056205Y044D01*
Y0439D01*
X056305Y043801D01*
X056505D01*
X056605Y043701D01*
Y043601D01*
X056505Y043501D01*
X056305D01*
X056205Y043601D01*
X056805Y043501D02*
Y0441D01*
X057105D01*
X057205Y044D01*
Y043801D01*
X057105Y043701D01*
X056805D01*
X057804Y0441D02*
X057405D01*
Y043501D01*
X057804D01*
X057405Y043801D02*
X057605D01*
X058004Y043501D02*
Y0439D01*
X058204Y0441D01*
X058404Y0439D01*
Y043501D01*
Y043801D01*
X058004D01*
X058604Y0441D02*
Y043501D01*
Y043701D01*
X059004Y0441D01*
X058704Y043801D01*
X059004Y043501D01*
X059604Y0441D02*
X059204D01*
Y043501D01*
X059604D01*
X059204Y043801D02*
X059404D01*
X059804Y043501D02*
Y0441D01*
X060104D01*
X060204Y044D01*
Y043801D01*
X060104Y043701D01*
X059804D01*
X060004D02*
X060204Y043501D01*
X053535Y04413D02*
Y043531D01*
X053835D01*
X053935Y043631D01*
Y043731D01*
X053835Y043831D01*
X053535D01*
X053835D01*
X053935Y043931D01*
Y04403D01*
X053835Y04413D01*
X053535D01*
X054135Y043531D02*
Y043931D01*
X054335Y04413D01*
X054535Y043931D01*
Y043531D01*
Y043831D01*
X054135D01*
X054735Y04413D02*
X055134D01*
X054935D01*
Y043531D01*
X05674Y02892D02*
Y02952D01*
X05704D01*
X05714Y02942D01*
Y02922D01*
X05704Y02912D01*
X05674D01*
X05694D02*
X05714Y02892D01*
X05774Y02952D02*
X05734D01*
Y02892D01*
X05774D01*
X05734Y02922D02*
X05754D01*
X05794Y02952D02*
Y02892D01*
X058339D01*
X058539D02*
Y02932D01*
X058739Y02952D01*
X058939Y02932D01*
Y02892D01*
Y02922D01*
X058539D01*
X059139Y02952D02*
Y02942D01*
X059339Y02922D01*
X059539Y02942D01*
Y02952D01*
X059339Y02922D02*
Y02892D01*
X050875Y04413D02*
Y043731D01*
X051075Y043531D01*
X051275Y043731D01*
Y04413D01*
X051475Y043531D02*
Y043931D01*
X051675Y04413D01*
X051875Y043931D01*
Y043531D01*
Y043831D01*
X051475D01*
X052075Y043531D02*
Y04413D01*
X052375D01*
X052474Y04403D01*
Y043831D01*
X052375Y043731D01*
X052075D01*
X052275D02*
X052474Y043531D01*
X053307Y022943D02*
Y023443D01*
X053207Y023543D01*
X053007D01*
X052907Y023443D01*
Y022943D01*
X052707Y023543D02*
X052507D01*
X052607D01*
Y022943D01*
X052707Y023043D01*
X056024Y035285D02*
Y034785D01*
X056124Y034685D01*
X056324D01*
X056423Y034785D01*
Y035285D01*
X057023Y034685D02*
X056623D01*
X057023Y035085D01*
Y035185D01*
X056923Y035285D01*
X056723D01*
X056623Y035185D01*
X06386Y04069D02*
Y040423D01*
X063993Y04029D01*
X064127Y040423D01*
Y04069D01*
X06426D02*
Y04029D01*
X06446D01*
X064526Y040357D01*
Y040423D01*
X06446Y04049D01*
X06426D01*
X06446D01*
X064526Y040557D01*
Y040623D01*
X06446Y04069D01*
X06426D01*
X06466Y04029D02*
Y040557D01*
X064793Y04069D01*
X064926Y040557D01*
Y04029D01*
Y04049D01*
X06466D01*
X06506Y04069D02*
X065326D01*
X065193D01*
Y04029D01*
X06383Y03903D02*
Y038763D01*
X063963Y03863D01*
X064097Y038763D01*
Y03903D01*
X064496Y038963D02*
X06443Y03903D01*
X064297D01*
X06423Y038963D01*
Y038697D01*
X064297Y03863D01*
X06443D01*
X064496Y038697D01*
X064896Y038963D02*
X06483Y03903D01*
X064696D01*
X06463Y038963D01*
Y038697D01*
X064696Y03863D01*
X06483D01*
X064896Y038697D01*
X038495Y03804D02*
Y037641D01*
X038695D01*
X038762Y037707D01*
Y037974D01*
X038695Y03804D01*
X038495D01*
X039095D02*
X038962D01*
X038895Y037974D01*
Y037707D01*
X038962Y037641D01*
X039095D01*
X039161Y037707D01*
Y037974D01*
X039095Y03804D01*
X039295D02*
Y037707D01*
X039361Y037641D01*
X039495D01*
X039561Y037707D01*
Y03804D01*
X039695D02*
X039961D01*
X039828D01*
Y037641D01*
X038812Y036904D02*
X038745Y036971D01*
X038612D01*
X038545Y036904D01*
Y036637D01*
X038612Y036571D01*
X038745D01*
X038812Y036637D01*
Y036771D01*
X038678D01*
X038945Y036571D02*
Y036971D01*
X039211Y036571D01*
Y036971D01*
X039345D02*
Y036571D01*
X039545D01*
X039611Y036637D01*
Y036904D01*
X039545Y036971D01*
X039345D01*
X038495Y0391D02*
Y038834D01*
X038628Y038701D01*
X038762Y038834D01*
Y0391D01*
X039161Y039034D02*
X039095Y0391D01*
X038962D01*
X038895Y039034D01*
Y038767D01*
X038962Y038701D01*
X039095D01*
X039161Y038767D01*
X039561Y039034D02*
X039495Y0391D01*
X039361D01*
X039295Y039034D01*
Y038767D01*
X039361Y038701D01*
X039495D01*
X039561Y038767D01*
X057043Y040212D02*
X057443D01*
X057243Y040412D02*
Y040012D01*
X05463Y04051D02*
X055097D01*
X054863Y040743D02*
Y040277D01*
X05335Y0409D02*
X053817D01*
X042305Y024981D02*
X042638D01*
X042472Y025147D02*
Y024814D01*
X041325Y024951D02*
X041658D01*
X044755Y023161D02*
Y022827D01*
Y022994D01*
X044255D01*
X044755Y022661D02*
X044255Y022328D01*
X044755D02*
X044255Y022661D01*
X043235Y023131D02*
X043735D01*
Y022881D01*
X043652Y022797D01*
X043485D01*
X043402Y022881D01*
Y023131D01*
Y022964D02*
X043235Y022797D01*
X043735Y022631D02*
X043235Y022298D01*
X043735D02*
X043235Y022631D01*
X042695Y023181D02*
X042362D01*
X042195Y023014D01*
X042362Y022847D01*
X042695D01*
X042612Y022348D02*
X042695Y022431D01*
Y022597D01*
X042612Y022681D01*
X042278D01*
X042195Y022597D01*
Y022431D01*
X042278Y022348D01*
X042612Y021848D02*
X042695Y021931D01*
Y022098D01*
X042612Y022181D01*
X042278D01*
X042195Y022098D01*
Y021931D01*
X042278Y021848D01*
X041612Y022907D02*
X041695Y022991D01*
Y023157D01*
X041612Y023241D01*
X041278D01*
X041195Y023157D01*
Y022991D01*
X041278Y022907D01*
X041445D01*
Y023074D01*
X041195Y022741D02*
X041695D01*
X041195Y022408D01*
X041695D01*
Y022241D02*
X041195D01*
Y021991D01*
X041278Y021908D01*
X041612D01*
X041695Y021991D01*
Y022241D01*
D26*
X051528Y039984D02*
Y040968D01*
X048575D02*
X051528D01*
X048575Y039984D02*
Y040968D01*
X046Y024D02*
Y04D01*
Y024D02*
X054D01*
X046Y04D02*
X054D01*
Y024D02*
Y04D01*
D52*
X037718Y03301D02*
G03*
X037718Y03301I-000049J0D01*
G01*
X060344Y041893D02*
G03*
X060344Y041893I-000049J0D01*
G01*
X055449Y022649D02*
G03*
X055449Y022649I-000049J0D01*
G01*
D53*
X036607Y029965D02*
G03*
X0354Y029961I-000607J001035D01*
G01*
X0354Y0353D02*
G03*
X0354Y0336I00035J-00085D01*
G01*
X035393Y029035D02*
G03*
X0366Y029039I000607J-001035D01*
G01*
X05849Y02481D02*
G03*
X0585Y02597I-000575J000585D01*
G01*
X06062Y0254D02*
G03*
X06062Y0254I-000178J0D01*
G01*
X06273Y02606D02*
G03*
X06273Y02606I-000178J0D01*
G01*
X06272Y02455D02*
G03*
X06272Y02455I-000178J0D01*
G01*
X041975Y035461D02*
X044975D01*
X041975D02*
Y036461D01*
X044975D01*
Y035461D02*
Y036461D01*
X042925Y035461D02*
Y036451D01*
X038335Y036364D02*
Y039364D01*
X037335Y036364D02*
X038335D01*
X037335D02*
Y039364D01*
X038335D01*
X037345Y037314D02*
X038335D01*
X048775Y030461D02*
X050775D01*
Y029461D02*
Y030461D01*
X048775Y029461D02*
X050775D01*
X048775D02*
Y030461D01*
X049825Y029471D02*
Y030461D01*
X048775Y031461D02*
X050775D01*
Y030461D02*
Y031461D01*
X048775Y030461D02*
X050775D01*
X048775D02*
Y031461D01*
X049825Y030471D02*
Y031461D01*
X048765Y032461D02*
X050765D01*
Y031461D02*
Y032461D01*
X048765Y031461D02*
X050765D01*
X048765D02*
Y032461D01*
X049815Y031471D02*
Y032461D01*
X048775Y033461D02*
X050775D01*
Y032461D02*
Y033461D01*
X048775Y032461D02*
X050775D01*
X048775D02*
Y033461D01*
X049825Y032471D02*
Y033461D01*
X048755Y036461D02*
X050755D01*
X048755D02*
Y037461D01*
X050755D01*
Y036461D02*
Y037461D01*
X049705Y036461D02*
Y037451D01*
X048765Y037461D02*
X050765D01*
X048765D02*
Y038461D01*
X050765D01*
Y037461D02*
Y038461D01*
X049715Y037461D02*
Y038451D01*
X048775Y039461D02*
X050775D01*
Y038461D02*
Y039461D01*
X048775Y038461D02*
X050775D01*
X048775D02*
Y039461D01*
X049825Y038471D02*
Y039461D01*
X048765Y034461D02*
X050765D01*
Y033461D02*
Y034461D01*
X048765Y033461D02*
X050765D01*
X048765D02*
Y034461D01*
X049815Y033471D02*
Y034461D01*
X048765Y036461D02*
X050765D01*
Y035461D02*
Y036461D01*
X048765Y035461D02*
X050765D01*
X048765D02*
Y036461D01*
X049815Y035471D02*
Y036461D01*
X048775Y035461D02*
X050775D01*
Y034461D02*
Y035461D01*
X048775Y034461D02*
X050775D01*
X048775D02*
Y035461D01*
X049825Y034471D02*
Y035461D01*
X040985Y024461D02*
X044985D01*
Y023461D02*
Y024461D01*
X040985Y023461D02*
X044985D01*
X040985D02*
Y024461D01*
X044035Y023471D02*
Y024461D01*
X03669Y03144D02*
Y03174D01*
X03656Y03159D02*
X03684D01*
X03541Y02996D02*
X0366D01*
X0354Y033D02*
Y036D01*
X0367D01*
Y033D02*
Y036D01*
X0354Y033D02*
X0367D01*
X0354Y03505D02*
X0367D01*
X070795Y040469D02*
Y043769D01*
X065345Y040469D02*
Y043769D01*
Y040469D02*
X070795D01*
X065345Y043769D02*
X070795D01*
X070095Y040469D02*
Y043769D01*
X0354Y02904D02*
X03659D01*
X03516Y02741D02*
X03544D01*
X03531Y02726D02*
Y02756D01*
X05849Y02598D02*
Y02712D01*
X05848Y02367D02*
Y0248D01*
X06207Y0254D02*
X06246Y02579D01*
X06064Y0254D02*
X06207D01*
X06272Y02455D02*
X06299Y02428D01*
Y02362D02*
Y02428D01*
X06273Y02612D02*
X06299Y02638D01*
Y02714D01*
X0568Y02855D02*
X0642D01*
X0568Y02225D02*
X0642D01*
X0568D02*
Y02855D01*
X0642Y02225D02*
Y02855D01*
X05791Y02539D02*
X06024D01*
X041975Y036461D02*
X044975D01*
X041975D02*
Y037461D01*
X044975D01*
Y036461D02*
Y037461D01*
X042925Y036461D02*
Y037451D01*
X041975Y037461D02*
X044975D01*
X041975D02*
Y038461D01*
X044975D01*
Y037461D02*
Y038461D01*
X042925Y037461D02*
Y038451D01*
X041975Y038461D02*
X044975D01*
X041975D02*
Y039461D01*
X044975D01*
Y038461D02*
Y039461D01*
X042925Y038461D02*
Y039451D01*
X041975Y034461D02*
X044975D01*
X041975D02*
Y035461D01*
X044975D01*
Y034461D02*
Y035461D01*
X042925Y034461D02*
Y035451D01*
X041975Y033461D02*
X044975D01*
X041975D02*
Y034461D01*
X044975D01*
Y033461D02*
Y034461D01*
X042925Y033461D02*
Y034451D01*
X041975Y032461D02*
X044975D01*
X041975D02*
Y033461D01*
X044975D01*
Y032461D02*
Y033461D01*
X042925Y032461D02*
Y033451D01*
X041975Y031461D02*
X044975D01*
X041975D02*
Y032461D01*
X044975D01*
Y031461D02*
Y032461D01*
X042925Y031461D02*
Y032451D01*
X041975Y030461D02*
X044975D01*
X041975D02*
Y031461D01*
X044975D01*
Y030461D02*
Y031461D01*
X042925Y030461D02*
Y031451D01*
X041975Y029461D02*
X044975D01*
X041975D02*
Y030461D01*
X044975D01*
Y029461D02*
Y030461D01*
X042925Y029461D02*
Y030451D01*
X040995Y025461D02*
X044995D01*
X040995D02*
Y026461D01*
X044995D01*
Y025461D02*
Y026461D01*
X041945Y025461D02*
Y026451D01*
X040995Y026461D02*
X044995D01*
X040995D02*
Y027461D01*
X044995D01*
Y026461D02*
Y027461D01*
X041945Y026461D02*
Y027451D01*
X040985Y027461D02*
X044985D01*
X040985D02*
Y028461D01*
X044985D01*
Y027461D02*
Y028461D01*
X041935Y027461D02*
Y028451D01*
D54*
X059529Y041637D02*
G03*
X059543Y041622I-001539J-001448D01*
G01*
X043255Y039691D02*
X043522D01*
X043655Y039824D01*
X043522Y039957D01*
X043255D01*
X043322Y040357D02*
X043255Y04029D01*
Y040157D01*
X043322Y04009D01*
X043588D01*
X043655Y040157D01*
Y04029D01*
X043588Y040357D01*
X043322Y040757D02*
X043255Y04069D01*
Y040557D01*
X043322Y04049D01*
X043588D01*
X043655Y040557D01*
Y04069D01*
X043588Y040757D01*
X042252Y039917D02*
X042185Y039851D01*
Y039717D01*
X042252Y039651D01*
X042518D01*
X042585Y039717D01*
Y039851D01*
X042518Y039917D01*
X042385D01*
Y039784D01*
X042585Y040051D02*
X042185D01*
X042585Y040317D01*
X042185D01*
Y04045D02*
X042585D01*
Y04065D01*
X042518Y040717D01*
X042252D01*
X042185Y04065D01*
Y04045D01*
D55*
X055343Y042258D02*
G03*
X055343Y041758I0J-00025D01*
G01*
X055055Y02845D02*
X05548D01*
X05483Y025379D02*
Y028225D01*
Y025379D02*
X05613D01*
Y028235D01*
X05548Y02845D02*
X055915D01*
X05613Y028235D01*
X05483Y028225D02*
X055055Y02845D01*
X055343Y041187D02*
Y042258D01*
Y041758D02*
Y042829D01*
X053343D02*
X055343D01*
X053343Y041187D02*
Y042829D01*
Y041187D02*
X055343D01*
D56*
X063765Y043161D02*
X064515D01*
X063765Y044161D02*
X064515D01*
X062165D02*
X062915D01*
X062165Y043161D02*
X062915D01*
X064515D02*
Y044161D01*
X062165Y043161D02*
Y044161D01*
D57*
X047205Y041041D02*
X047545D01*
X047205Y041541D02*
X047545D01*
X060381Y043281D02*
X060721D01*
X060381Y042782D02*
X060721D01*
X064159Y03046D02*
Y0308D01*
X064659Y03046D02*
Y0308D01*
X064738Y036247D02*
Y036587D01*
X064238Y036247D02*
Y036587D01*
X03778Y02881D02*
Y02915D01*
X03728Y02881D02*
Y02915D01*
X038275Y030781D02*
Y031121D01*
X037775Y030781D02*
Y031121D01*
X0348Y03487D02*
Y03521D01*
X0353Y03487D02*
Y03521D01*
X055106Y024344D02*
X055446D01*
X055106Y023844D02*
X055446D01*
X051005Y028861D02*
X051345D01*
X051005Y028361D02*
X051345D01*
D58*
X046615Y041631D02*
X048145D01*
X046615Y040961D02*
Y041631D01*
Y040961D02*
X048145D01*
Y041631D01*
X059781Y042691D02*
X061311D01*
Y043362D01*
X059781D02*
X061311D01*
X059781Y042691D02*
Y043362D01*
X064749Y02986D02*
Y03139D01*
X064079D02*
X064749D01*
X064079Y02986D02*
Y03139D01*
Y02986D02*
X064749D01*
X064148Y035657D02*
Y037187D01*
Y035657D02*
X064818D01*
Y037187D01*
X064148D02*
X064818D01*
X03719Y02822D02*
Y02975D01*
Y02822D02*
X03786D01*
Y02975D01*
X03719D02*
X03786D01*
X037685Y030191D02*
Y031721D01*
Y030191D02*
X038355D01*
Y031721D01*
X037685D02*
X038355D01*
X03539Y03427D02*
Y0358D01*
X03472D02*
X03539D01*
X03472Y03427D02*
Y0358D01*
Y03427D02*
X03539D01*
X054506Y023754D02*
X056036D01*
Y024424D01*
X054506D02*
X056036D01*
X054506Y023754D02*
Y024424D01*
X050405Y028271D02*
X051935D01*
Y028941D01*
X050405D02*
X051935D01*
X050405Y028271D02*
Y028941D01*
X040745Y036029D02*
X040703Y036071D01*
X04062D01*
X040578Y036029D01*
Y035987D01*
X04062Y035946D01*
X040703D01*
X040745Y035904D01*
Y035862D01*
X040703Y035821D01*
X04062D01*
X040578Y035862D01*
X040828Y036071D02*
X040995D01*
Y036029D01*
X040828Y035862D01*
Y035821D01*
X041078Y035987D02*
X04112D01*
Y035946D01*
X041078D01*
Y035987D01*
Y035862D02*
X04112D01*
Y035821D01*
X041078D01*
Y035862D01*
X041286Y035821D02*
Y035987D01*
X04137Y036071D01*
X041453Y035987D01*
Y035821D01*
Y035946D01*
X041286D01*
X041536Y035821D02*
X04162D01*
X041578D01*
Y036071D01*
X041536Y036029D01*
X048363Y030111D02*
X04828D01*
X048322D01*
Y029902D01*
X04828Y029861D01*
X048238D01*
X048197Y029902D01*
X048446Y029861D02*
X04853D01*
X048488D01*
Y030111D01*
X048446Y030069D01*
X04828Y038111D02*
X048197D01*
X048238D01*
Y037902D01*
X048197Y037861D01*
X048155D01*
X048113Y037902D01*
X048363D02*
X048405Y037861D01*
X048488D01*
X04853Y037902D01*
Y038069D01*
X048488Y038111D01*
X048405D01*
X048363Y038069D01*
Y038027D01*
X048405Y037986D01*
X04853D01*
X048072Y039111D02*
X047988D01*
X04803D01*
Y038902D01*
X047988Y038861D01*
X047947D01*
X047905Y038902D01*
X048155Y038861D02*
X048238D01*
X048197D01*
Y039111D01*
X048155Y039069D01*
X048363D02*
X048405Y039111D01*
X048488D01*
X04853Y039069D01*
Y038902D01*
X048488Y038861D01*
X048405D01*
X048363Y038902D01*
Y039069D01*
X04828Y036141D02*
X048197D01*
X048238D01*
Y035932D01*
X048197Y035891D01*
X048155D01*
X048113Y035932D01*
X048363Y036141D02*
X04853D01*
Y036099D01*
X048363Y035932D01*
Y035891D01*
X04828Y037121D02*
X048197D01*
X048238D01*
Y036912D01*
X048197Y036871D01*
X048155D01*
X048113Y036912D01*
X048363Y037079D02*
X048405Y037121D01*
X048488D01*
X04853Y037079D01*
Y037037D01*
X048488Y036996D01*
X04853Y036954D01*
Y036912D01*
X048488Y036871D01*
X048405D01*
X048363Y036912D01*
Y036954D01*
X048405Y036996D01*
X048363Y037037D01*
Y037079D01*
X048405Y036996D02*
X048488D01*
X04828Y034091D02*
X048197D01*
X048238D01*
Y033882D01*
X048197Y033841D01*
X048155D01*
X048113Y033882D01*
X04853Y034091D02*
X048363D01*
Y033966D01*
X048446Y034007D01*
X048488D01*
X04853Y033966D01*
Y033882D01*
X048488Y033841D01*
X048405D01*
X048363Y033882D01*
X04828Y033111D02*
X048197D01*
X048238D01*
Y032902D01*
X048197Y032861D01*
X048155D01*
X048113Y032902D01*
X048488Y032861D02*
Y033111D01*
X048363Y032986D01*
X04853D01*
X04828Y035101D02*
X048197D01*
X048238D01*
Y034892D01*
X048197Y034851D01*
X048155D01*
X048113Y034892D01*
X04853Y035101D02*
X048446Y035059D01*
X048363Y034976D01*
Y034892D01*
X048405Y034851D01*
X048488D01*
X04853Y034892D01*
Y034934D01*
X048488Y034976D01*
X048363D01*
X04828Y032111D02*
X048197D01*
X048238D01*
Y031902D01*
X048197Y031861D01*
X048155D01*
X048113Y031902D01*
X048363Y032069D02*
X048405Y032111D01*
X048488D01*
X04853Y032069D01*
Y032027D01*
X048488Y031986D01*
X048446D01*
X048488D01*
X04853Y031944D01*
Y031902D01*
X048488Y031861D01*
X048405D01*
X048363Y031902D01*
X04828Y031141D02*
X048197D01*
X048238D01*
Y030932D01*
X048197Y030891D01*
X048155D01*
X048113Y030932D01*
X04853Y030891D02*
X048363D01*
X04853Y031057D01*
Y031099D01*
X048488Y031141D01*
X048405D01*
X048363Y031099D01*
X040703Y030019D02*
X040662Y030061D01*
X040578D01*
X040537Y030019D01*
Y029977D01*
X040578Y029936D01*
X040662D01*
X040703Y029894D01*
Y029852D01*
X040662Y029811D01*
X040578D01*
X040537Y029852D01*
X040787Y029811D02*
X04087D01*
X040828D01*
Y030061D01*
X040787Y030019D01*
X040995Y029977D02*
X041036D01*
Y029936D01*
X040995D01*
Y029977D01*
Y029852D02*
X041036D01*
Y029811D01*
X040995D01*
Y029852D01*
X041203Y030061D02*
Y029811D01*
X041328D01*
X04137Y029852D01*
Y030019D01*
X041328Y030061D01*
X041203D01*
X041578Y029811D02*
Y030061D01*
X041453Y029936D01*
X04162D01*
X040662Y035034D02*
X04062Y035076D01*
X040537D01*
X040495Y035034D01*
Y034992D01*
X040537Y034951D01*
X04062D01*
X040662Y034909D01*
Y034867D01*
X04062Y034826D01*
X040537D01*
X040495Y034867D01*
X040912Y035076D02*
X040828Y035034D01*
X040745Y034951D01*
Y034867D01*
X040787Y034826D01*
X04087D01*
X040912Y034867D01*
Y034909D01*
X04087Y034951D01*
X040745D01*
X040995Y034992D02*
X041036D01*
Y034951D01*
X040995D01*
Y034992D01*
Y034867D02*
X041036D01*
Y034826D01*
X040995D01*
Y034867D01*
X041203Y035076D02*
Y034826D01*
X041328D01*
X04137Y034867D01*
Y035034D01*
X041328Y035076D01*
X041203D01*
X041453Y034867D02*
X041495Y034826D01*
X041578D01*
X04162Y034867D01*
Y035034D01*
X041578Y035076D01*
X041495D01*
X041453Y035034D01*
Y034992D01*
X041495Y034951D01*
X04162D01*
X040662Y033029D02*
X04062Y033071D01*
X040537D01*
X040495Y033029D01*
Y032987D01*
X040537Y032946D01*
X04062D01*
X040662Y032904D01*
Y032862D01*
X04062Y032821D01*
X040537D01*
X040495Y032862D01*
X04087Y032821D02*
Y033071D01*
X040745Y032946D01*
X040912D01*
X040995Y032987D02*
X041036D01*
Y032946D01*
X040995D01*
Y032987D01*
Y032862D02*
X041036D01*
Y032821D01*
X040995D01*
Y032862D01*
X041203Y033071D02*
Y032821D01*
X041328D01*
X04137Y032862D01*
Y033029D01*
X041328Y033071D01*
X041203D01*
X041453D02*
X04162D01*
Y033029D01*
X041453Y032862D01*
Y032821D01*
X040662Y032059D02*
X04062Y032101D01*
X040537D01*
X040495Y032059D01*
Y032017D01*
X040537Y031976D01*
X04062D01*
X040662Y031934D01*
Y031892D01*
X04062Y031851D01*
X040537D01*
X040495Y031892D01*
X040745Y032059D02*
X040787Y032101D01*
X04087D01*
X040912Y032059D01*
Y032017D01*
X04087Y031976D01*
X040828D01*
X04087D01*
X040912Y031934D01*
Y031892D01*
X04087Y031851D01*
X040787D01*
X040745Y031892D01*
X040995Y032017D02*
X041036D01*
Y031976D01*
X040995D01*
Y032017D01*
Y031892D02*
X041036D01*
Y031851D01*
X040995D01*
Y031892D01*
X041203Y032101D02*
Y031851D01*
X041328D01*
X04137Y031892D01*
Y032059D01*
X041328Y032101D01*
X041203D01*
X04162D02*
X041536Y032059D01*
X041453Y031976D01*
Y031892D01*
X041495Y031851D01*
X041578D01*
X04162Y031892D01*
Y031934D01*
X041578Y031976D01*
X041453D01*
X040662Y031049D02*
X04062Y031091D01*
X040537D01*
X040495Y031049D01*
Y031007D01*
X040537Y030966D01*
X04062D01*
X040662Y030924D01*
Y030882D01*
X04062Y030841D01*
X040537D01*
X040495Y030882D01*
X040912Y030841D02*
X040745D01*
X040912Y031007D01*
Y031049D01*
X04087Y031091D01*
X040787D01*
X040745Y031049D01*
X040995Y031007D02*
X041036D01*
Y030966D01*
X040995D01*
Y031007D01*
Y030882D02*
X041036D01*
Y030841D01*
X040995D01*
Y030882D01*
X041203Y031091D02*
Y030841D01*
X041328D01*
X04137Y030882D01*
Y031049D01*
X041328Y031091D01*
X041203D01*
X04162D02*
X041453D01*
Y030966D01*
X041536Y031007D01*
X041578D01*
X04162Y030966D01*
Y030882D01*
X041578Y030841D01*
X041495D01*
X041453Y030882D01*
X040662Y037059D02*
X04062Y037101D01*
X040537D01*
X040495Y037059D01*
Y037017D01*
X040537Y036976D01*
X04062D01*
X040662Y036934D01*
Y036892D01*
X04062Y036851D01*
X040537D01*
X040495Y036892D01*
X040745Y037059D02*
X040787Y037101D01*
X04087D01*
X040912Y037059D01*
Y037017D01*
X04087Y036976D01*
X040912Y036934D01*
Y036892D01*
X04087Y036851D01*
X040787D01*
X040745Y036892D01*
Y036934D01*
X040787Y036976D01*
X040745Y037017D01*
Y037059D01*
X040787Y036976D02*
X04087D01*
X040995Y037017D02*
X041036D01*
Y036976D01*
X040995D01*
Y037017D01*
Y036892D02*
X041036D01*
Y036851D01*
X040995D01*
Y036892D01*
X041203Y036851D02*
Y037017D01*
X041286Y037101D01*
X04137Y037017D01*
Y036851D01*
Y036976D01*
X041203D01*
X041453Y037059D02*
X041495Y037101D01*
X041578D01*
X04162Y037059D01*
Y036892D01*
X041578Y036851D01*
X041495D01*
X041453Y036892D01*
Y037059D01*
X040245Y039049D02*
X040203Y039091D01*
X04012D01*
X040078Y039049D01*
Y039007D01*
X04012Y038966D01*
X040203D01*
X040245Y038924D01*
Y038882D01*
X040203Y038841D01*
X04012D01*
X040078Y038882D01*
X040328Y038841D02*
X040412D01*
X04037D01*
Y039091D01*
X040328Y039049D01*
X040537D02*
X040578Y039091D01*
X040662D01*
X040703Y039049D01*
Y038882D01*
X040662Y038841D01*
X040578D01*
X040537Y038882D01*
Y039049D01*
X040787Y039007D02*
X040828D01*
Y038966D01*
X040787D01*
Y039007D01*
Y038882D02*
X040828D01*
Y038841D01*
X040787D01*
Y038882D01*
X040995Y039091D02*
Y038841D01*
X04112D01*
X041161Y038882D01*
Y039049D01*
X04112Y039091D01*
X040995D01*
X041245Y038841D02*
X041328D01*
X041286D01*
Y039091D01*
X041245Y039049D01*
X04162Y038841D02*
X041453D01*
X04162Y039007D01*
Y039049D01*
X041578Y039091D01*
X041495D01*
X041453Y039049D01*
X040537Y038059D02*
X040495Y038101D01*
X040412D01*
X04037Y038059D01*
Y038017D01*
X040412Y037976D01*
X040495D01*
X040537Y037934D01*
Y037892D01*
X040495Y037851D01*
X040412D01*
X04037Y037892D01*
X04062D02*
X040662Y037851D01*
X040745D01*
X040787Y037892D01*
Y038059D01*
X040745Y038101D01*
X040662D01*
X04062Y038059D01*
Y038017D01*
X040662Y037976D01*
X040787D01*
X04087Y038017D02*
X040912D01*
Y037976D01*
X04087D01*
Y038017D01*
Y037892D02*
X040912D01*
Y037851D01*
X04087D01*
Y037892D01*
X041078Y038101D02*
Y037851D01*
X041203D01*
X041245Y037892D01*
Y038059D01*
X041203Y038101D01*
X041078D01*
X041328Y037851D02*
X041411D01*
X04137D01*
Y038101D01*
X041328Y038059D01*
X041536Y037851D02*
X04162D01*
X041578D01*
Y038101D01*
X041536Y038059D01*
X039167Y02705D02*
X039125Y027091D01*
X039042D01*
X039Y02705D01*
Y026883D01*
X039042Y026841D01*
X039125D01*
X039167Y026883D01*
Y026966D01*
X039083D01*
X039417Y026841D02*
X03925D01*
X039417Y027008D01*
Y02705D01*
X039375Y027091D01*
X039292D01*
X03925Y02705D01*
X0395Y027008D02*
X039541D01*
Y026966D01*
X0395D01*
Y027008D01*
Y026883D02*
X039541D01*
Y026841D01*
X0395D01*
Y026883D01*
X039708Y026841D02*
Y027008D01*
X039791Y027091D01*
X039875Y027008D01*
Y026841D01*
Y026966D01*
X039708D01*
X040083Y026841D02*
Y027091D01*
X039958Y026966D01*
X040125D01*
X040208Y026841D02*
X040375Y027008D01*
X040458Y026841D02*
Y027008D01*
X040541Y027091D01*
X040624Y027008D01*
Y026841D01*
Y026966D01*
X040458D01*
X040874Y027091D02*
X040708D01*
Y026966D01*
X040791Y027008D01*
X040833D01*
X040874Y026966D01*
Y026883D01*
X040833Y026841D01*
X040749D01*
X040708Y026883D01*
X039182Y026189D02*
X03914Y026231D01*
X039057D01*
X039015Y026189D01*
Y026022D01*
X039057Y025981D01*
X03914D01*
X039182Y026022D01*
Y026106D01*
X039098D01*
X039265Y025981D02*
X039348D01*
X039307D01*
Y026231D01*
X039265Y026189D01*
X039473Y026147D02*
X039515D01*
Y026106D01*
X039473D01*
Y026147D01*
Y026022D02*
X039515D01*
Y025981D01*
X039473D01*
Y026022D01*
X039681Y025981D02*
Y026147D01*
X039765Y026231D01*
X039848Y026147D01*
Y025981D01*
Y026106D01*
X039681D01*
X040056Y025981D02*
Y026231D01*
X039931Y026106D01*
X040098D01*
X040181Y025981D02*
X040348Y026147D01*
X040431Y025981D02*
Y026147D01*
X040515Y026231D01*
X040598Y026147D01*
Y025981D01*
Y026106D01*
X040431D01*
X040848Y026231D02*
X040681D01*
Y026106D01*
X040764Y026147D01*
X040806D01*
X040848Y026106D01*
Y026022D01*
X040806Y025981D01*
X040723D01*
X040681Y026022D01*
X039142Y028099D02*
X0391Y028141D01*
X039017D01*
X038975Y028099D01*
Y027932D01*
X039017Y027891D01*
X0391D01*
X039142Y027932D01*
Y028016D01*
X039058D01*
X039225Y028099D02*
X039267Y028141D01*
X03935D01*
X039392Y028099D01*
Y028057D01*
X03935Y028016D01*
X039308D01*
X03935D01*
X039392Y027974D01*
Y027932D01*
X03935Y027891D01*
X039267D01*
X039225Y027932D01*
X039475Y028057D02*
X039516D01*
Y028016D01*
X039475D01*
Y028057D01*
Y027932D02*
X039516D01*
Y027891D01*
X039475D01*
Y027932D01*
X039683Y027891D02*
Y028057D01*
X039766Y028141D01*
X03985Y028057D01*
Y027891D01*
Y028016D01*
X039683D01*
X0401Y027891D02*
X039933D01*
X0401Y028057D01*
Y028099D01*
X040058Y028141D01*
X039975D01*
X039933Y028099D01*
X040183Y027891D02*
X04035Y028057D01*
X040433Y027891D02*
Y028057D01*
X040516Y028141D01*
X040599Y028057D01*
Y027891D01*
Y028016D01*
X040433D01*
X040683Y028099D02*
X040724Y028141D01*
X040808D01*
X040849Y028099D01*
Y028057D01*
X040808Y028016D01*
X040766D01*
X040808D01*
X040849Y027974D01*
Y027932D01*
X040808Y027891D01*
X040724D01*
X040683Y027932D01*
X040662Y034039D02*
X04062Y034081D01*
X040537D01*
X040495Y034039D01*
Y033997D01*
X040537Y033956D01*
X04062D01*
X040662Y033914D01*
Y033872D01*
X04062Y033831D01*
X040537D01*
X040495Y033872D01*
X040912Y034081D02*
X040745D01*
Y033956D01*
X040828Y033997D01*
X04087D01*
X040912Y033956D01*
Y033872D01*
X04087Y033831D01*
X040787D01*
X040745Y033872D01*
X040995Y033997D02*
X041036D01*
Y033956D01*
X040995D01*
Y033997D01*
Y033872D02*
X041036D01*
Y033831D01*
X040995D01*
Y033872D01*
X041203Y034081D02*
Y033831D01*
X041328D01*
X04137Y033872D01*
Y034039D01*
X041328Y034081D01*
X041203D01*
X041453Y034039D02*
X041495Y034081D01*
X041578D01*
X04162Y034039D01*
Y033997D01*
X041578Y033956D01*
X04162Y033914D01*
Y033872D01*
X041578Y033831D01*
X041495D01*
X041453Y033872D01*
Y033914D01*
X041495Y033956D01*
X041453Y033997D01*
Y034039D01*
X041495Y033956D02*
X041578D01*
X051122Y030069D02*
X05108Y030111D01*
X050997D01*
X050955Y030069D01*
Y030027D01*
X050997Y029986D01*
X05108D01*
X051122Y029944D01*
Y029902D01*
X05108Y029861D01*
X050997D01*
X050955Y029902D01*
X051205Y029861D02*
X051288D01*
X051247D01*
Y030111D01*
X051205Y030069D01*
X051413Y030027D02*
X051455D01*
Y029986D01*
X051413D01*
Y030027D01*
Y029902D02*
X051455D01*
Y029861D01*
X051413D01*
Y029902D01*
X051621Y030111D02*
Y029861D01*
X051746D01*
X051788Y029902D01*
Y030069D01*
X051746Y030111D01*
X051621D01*
X051996Y029861D02*
Y030111D01*
X051871Y029986D01*
X052038D01*
X051122Y031099D02*
X05108Y031141D01*
X050997D01*
X050955Y031099D01*
Y031057D01*
X050997Y031016D01*
X05108D01*
X051122Y030974D01*
Y030932D01*
X05108Y030891D01*
X050997D01*
X050955Y030932D01*
X051372Y030891D02*
X051205D01*
X051372Y031057D01*
Y031099D01*
X05133Y031141D01*
X051247D01*
X051205Y031099D01*
X051455Y031057D02*
X051496D01*
Y031016D01*
X051455D01*
Y031057D01*
Y030932D02*
X051496D01*
Y030891D01*
X051455D01*
Y030932D01*
X051663Y031141D02*
Y030891D01*
X051788D01*
X05183Y030932D01*
Y031099D01*
X051788Y031141D01*
X051663D01*
X05208D02*
X051913D01*
Y031016D01*
X051996Y031057D01*
X052038D01*
X05208Y031016D01*
Y030932D01*
X052038Y030891D01*
X051955D01*
X051913Y030932D01*
X051122Y032069D02*
X05108Y032111D01*
X050997D01*
X050955Y032069D01*
Y032027D01*
X050997Y031986D01*
X05108D01*
X051122Y031944D01*
Y031902D01*
X05108Y031861D01*
X050997D01*
X050955Y031902D01*
X051205Y032069D02*
X051247Y032111D01*
X05133D01*
X051372Y032069D01*
Y032027D01*
X05133Y031986D01*
X051288D01*
X05133D01*
X051372Y031944D01*
Y031902D01*
X05133Y031861D01*
X051247D01*
X051205Y031902D01*
X051455Y032027D02*
X051496D01*
Y031986D01*
X051455D01*
Y032027D01*
Y031902D02*
X051496D01*
Y031861D01*
X051455D01*
Y031902D01*
X051663Y032111D02*
Y031861D01*
X051788D01*
X05183Y031902D01*
Y032069D01*
X051788Y032111D01*
X051663D01*
X05208D02*
X051996Y032069D01*
X051913Y031986D01*
Y031902D01*
X051955Y031861D01*
X052038D01*
X05208Y031902D01*
Y031944D01*
X052038Y031986D01*
X051913D01*
X051122Y033069D02*
X05108Y033111D01*
X050997D01*
X050955Y033069D01*
Y033027D01*
X050997Y032986D01*
X05108D01*
X051122Y032944D01*
Y032902D01*
X05108Y032861D01*
X050997D01*
X050955Y032902D01*
X05133Y032861D02*
Y033111D01*
X051205Y032986D01*
X051372D01*
X051455Y033027D02*
X051496D01*
Y032986D01*
X051455D01*
Y033027D01*
Y032902D02*
X051496D01*
Y032861D01*
X051455D01*
Y032902D01*
X051663Y033111D02*
Y032861D01*
X051788D01*
X05183Y032902D01*
Y033069D01*
X051788Y033111D01*
X051663D01*
X051913D02*
X05208D01*
Y033069D01*
X051913Y032902D01*
Y032861D01*
X051122Y034049D02*
X05108Y034091D01*
X050997D01*
X050955Y034049D01*
Y034007D01*
X050997Y033966D01*
X05108D01*
X051122Y033924D01*
Y033882D01*
X05108Y033841D01*
X050997D01*
X050955Y033882D01*
X051372Y034091D02*
X051205D01*
Y033966D01*
X051288Y034007D01*
X05133D01*
X051372Y033966D01*
Y033882D01*
X05133Y033841D01*
X051247D01*
X051205Y033882D01*
X051455Y034007D02*
X051496D01*
Y033966D01*
X051455D01*
Y034007D01*
Y033882D02*
X051496D01*
Y033841D01*
X051455D01*
Y033882D01*
X051663Y034091D02*
Y033841D01*
X051788D01*
X05183Y033882D01*
Y034049D01*
X051788Y034091D01*
X051663D01*
X051913Y034049D02*
X051955Y034091D01*
X052038D01*
X05208Y034049D01*
Y034007D01*
X052038Y033966D01*
X05208Y033924D01*
Y033882D01*
X052038Y033841D01*
X051955D01*
X051913Y033882D01*
Y033924D01*
X051955Y033966D01*
X051913Y034007D01*
Y034049D01*
X051955Y033966D02*
X052038D01*
X051122Y035059D02*
X05108Y035101D01*
X050997D01*
X050955Y035059D01*
Y035017D01*
X050997Y034976D01*
X05108D01*
X051122Y034934D01*
Y034892D01*
X05108Y034851D01*
X050997D01*
X050955Y034892D01*
X051372Y035101D02*
X051288Y035059D01*
X051205Y034976D01*
Y034892D01*
X051247Y034851D01*
X05133D01*
X051372Y034892D01*
Y034934D01*
X05133Y034976D01*
X051205D01*
X051455Y035017D02*
X051496D01*
Y034976D01*
X051455D01*
Y035017D01*
Y034892D02*
X051496D01*
Y034851D01*
X051455D01*
Y034892D01*
X051663Y035101D02*
Y034851D01*
X051788D01*
X05183Y034892D01*
Y035059D01*
X051788Y035101D01*
X051663D01*
X051913Y034892D02*
X051955Y034851D01*
X052038D01*
X05208Y034892D01*
Y035059D01*
X052038Y035101D01*
X051955D01*
X051913Y035059D01*
Y035017D01*
X051955Y034976D01*
X05208D01*
X050955Y036141D02*
Y035891D01*
X051122D01*
X051205Y036141D02*
Y035891D01*
X05133D01*
X051372Y035932D01*
Y036099D01*
X05133Y036141D01*
X051205D01*
X051455Y035891D02*
Y036141D01*
X05158D01*
X051621Y036099D01*
Y036016D01*
X05158Y035974D01*
X051455D01*
X051538D02*
X051621Y035891D01*
X051705Y036057D02*
X051746D01*
Y036016D01*
X051705D01*
Y036057D01*
Y035932D02*
X051746D01*
Y035891D01*
X051705D01*
Y035932D01*
X051913Y035891D02*
Y036057D01*
X051996Y036141D01*
X05208Y036057D01*
Y035891D01*
Y036016D01*
X051913D01*
X052163Y035891D02*
X052246D01*
X052205D01*
Y036141D01*
X052163Y036099D01*
X050955Y037121D02*
Y036954D01*
X051038Y036871D01*
X051122Y036954D01*
Y037121D01*
X051205Y036871D02*
Y037037D01*
X051288Y037121D01*
X051372Y037037D01*
Y036871D01*
Y036996D01*
X051205D01*
X051455Y036871D02*
Y037121D01*
X05158D01*
X051621Y037079D01*
Y036996D01*
X05158Y036954D01*
X051455D01*
X051538D02*
X051621Y036871D01*
X051705Y037037D02*
X051746D01*
Y036996D01*
X051705D01*
Y037037D01*
Y036912D02*
X051746D01*
Y036871D01*
X051705D01*
Y036912D01*
X051913Y036871D02*
Y037037D01*
X051996Y037121D01*
X05208Y037037D01*
Y036871D01*
Y036996D01*
X051913D01*
X052163Y037079D02*
X052205Y037121D01*
X052288D01*
X05233Y037079D01*
Y036912D01*
X052288Y036871D01*
X052205D01*
X052163Y036912D01*
Y037079D01*
X050955Y038111D02*
Y037861D01*
X05108D01*
X051122Y037902D01*
Y037944D01*
X05108Y037986D01*
X050955D01*
X05108D01*
X051122Y038027D01*
Y038069D01*
X05108Y038111D01*
X050955D01*
X051205D02*
X051372D01*
X051288D01*
Y037861D01*
X051455Y038027D02*
X051496D01*
Y037986D01*
X051455D01*
Y038027D01*
Y037902D02*
X051496D01*
Y037861D01*
X051455D01*
Y037902D01*
X051663Y038111D02*
Y037861D01*
X051788D01*
X05183Y037902D01*
Y038069D01*
X051788Y038111D01*
X051663D01*
X051913Y037861D02*
X051996D01*
X051955D01*
Y038111D01*
X051913Y038069D01*
X052121Y037861D02*
X052205D01*
X052163D01*
Y038111D01*
X052121Y038069D01*
X050955Y038861D02*
Y039111D01*
X05108D01*
X051122Y039069D01*
Y038986D01*
X05108Y038944D01*
X050955D01*
X051038D02*
X051122Y038861D01*
X051205Y039111D02*
Y038861D01*
X051372D01*
X051455Y039027D02*
X051496D01*
Y038986D01*
X051455D01*
Y039027D01*
Y038902D02*
X051496D01*
Y038861D01*
X051455D01*
Y038902D01*
X051663Y039111D02*
Y038861D01*
X051788D01*
X05183Y038902D01*
Y039069D01*
X051788Y039111D01*
X051663D01*
X051913Y038861D02*
X051996D01*
X051955D01*
Y039111D01*
X051913Y039069D01*
X052288Y038861D02*
X052121D01*
X052288Y039027D01*
Y039069D01*
X052246Y039111D01*
X052163D01*
X052121Y039069D01*
D59*
X035224Y021944D02*
X035424D01*
X035084Y021964D02*
X035364D01*
X035024Y021984D02*
X035344D01*
X034964Y022004D02*
X035324D01*
X034924Y022024D02*
X035304D01*
X034864Y022044D02*
X035304D01*
X034784Y022064D02*
X035264D01*
X034724Y022084D02*
X035244D01*
X034704Y022104D02*
X035224D01*
X034664Y022124D02*
X035224D01*
X034624Y022144D02*
X035204D01*
X034604Y022164D02*
X035184D01*
X034524Y022184D02*
X035184D01*
X034504Y022204D02*
X035164D01*
X036544Y022224D02*
X036624D01*
X034484D02*
X035164D01*
X036504Y022244D02*
X036664D01*
X034444D02*
X035144D01*
X036504Y022264D02*
X036684D01*
X034404D02*
X035124D01*
X036504Y022284D02*
X036704D01*
X034384D02*
X035124D01*
X036504Y022304D02*
X036744D01*
X035304D02*
X035544D01*
X034344D02*
X035104D01*
X036504Y022324D02*
X036764D01*
X035244D02*
X035584D01*
X034304D02*
X035084D01*
X036504Y022344D02*
X036804D01*
X035204D02*
X035624D01*
X034284D02*
X035084D01*
X036524Y022364D02*
X036824D01*
X035184D02*
X035644D01*
X034264D02*
X035084D01*
X036524Y022384D02*
X036824D01*
X035144D02*
X035664D01*
X034244D02*
X035084D01*
X036544Y022404D02*
X036844D01*
X035124D02*
X035684D01*
X034224D02*
X035084D01*
X036584Y022424D02*
X036884D01*
X035084D02*
X035704D01*
X034184D02*
X035064D01*
X036584Y022444D02*
X036904D01*
X034144D02*
X035724D01*
X036604Y022464D02*
X036924D01*
X034144D02*
X035744D01*
X036624Y022484D02*
X036944D01*
X034124D02*
X035744D01*
X036624Y022504D02*
X036944D01*
X034104D02*
X035744D01*
X036644Y022524D02*
X036964D01*
X034084D02*
X035764D01*
X036684Y022544D02*
X037004D01*
X034044D02*
X035764D01*
X036704Y022564D02*
X037024D01*
X034024D02*
X035764D01*
X036704Y022584D02*
X037044D01*
X034004D02*
X035764D01*
X036724Y022604D02*
X037044D01*
X034004D02*
X035764D01*
X036744Y022624D02*
X037064D01*
X033984D02*
X035764D01*
X036764Y022644D02*
X037104D01*
X033944D02*
X035764D01*
X036784Y022664D02*
X037124D01*
X033924D02*
X035744D01*
X036804Y022684D02*
X037124D01*
X033904D02*
X035744D01*
X036804Y022704D02*
X037144D01*
X033904D02*
X035744D01*
X036824Y022724D02*
X037164D01*
X033884D02*
X035724D01*
X036824Y022744D02*
X037164D01*
X033884D02*
X035724D01*
X036844Y022764D02*
X037184D01*
X033844D02*
X035684D01*
X036864Y022784D02*
X037204D01*
X033824D02*
X035684D01*
X036864Y022804D02*
X037224D01*
X033804D02*
X035664D01*
X036884Y022824D02*
X037244D01*
X033804D02*
X035664D01*
X036884Y022844D02*
X037244D01*
X033804D02*
X035624D01*
X036904Y022864D02*
X037264D01*
X033784D02*
X035604D01*
X036924Y022884D02*
X037284D01*
X035024D02*
X035564D01*
X033764D02*
X034984D01*
X036924Y022904D02*
X037284D01*
X035064D02*
X035544D01*
X033744D02*
X034984D01*
X036924Y022924D02*
X037304D01*
X035084D02*
X035504D01*
X033744D02*
X034984D01*
X036944Y022944D02*
X037304D01*
X035104D02*
X035444D01*
X033724D02*
X034984D01*
X036944Y022964D02*
X037324D01*
X035184D02*
X035404D01*
X033704D02*
X034964D01*
X036944Y022984D02*
X037324D01*
X033704D02*
X034964D01*
X036944Y023004D02*
X037344D01*
X033684D02*
X034964D01*
X036944Y023024D02*
X037364D01*
X033684D02*
X034964D01*
X036944Y023044D02*
X037364D01*
X033684D02*
X034964D01*
X036944Y023064D02*
X037384D01*
X033664D02*
X034964D01*
X036944Y023084D02*
X037384D01*
X033664D02*
X034964D01*
X036944Y023104D02*
X037404D01*
X033644D02*
X034964D01*
X036944Y023124D02*
X037404D01*
X033624D02*
X034964D01*
X036944Y023144D02*
X037404D01*
X033624D02*
X034964D01*
X036944Y023164D02*
X037424D01*
X033604D02*
X034964D01*
X036924Y023184D02*
X037424D01*
X033604D02*
X034964D01*
X036924Y023204D02*
X037424D01*
X033584D02*
X034964D01*
X036884Y023224D02*
X037444D01*
X034204D02*
X034964D01*
X033564D02*
X034004D01*
X036864Y023244D02*
X037464D01*
X034224D02*
X034964D01*
X033564D02*
X033964D01*
X036844Y023264D02*
X037464D01*
X034264D02*
X034964D01*
X033564D02*
X033944D01*
X036824Y023284D02*
X037464D01*
X034264D02*
X034964D01*
X033564D02*
X033904D01*
X036764Y023304D02*
X037484D01*
X034284D02*
X034964D01*
X033564D02*
X033904D01*
X036624Y023324D02*
X037484D01*
X034284D02*
X034964D01*
X033544D02*
X033884D01*
X035684Y023344D02*
X037504D01*
X034324D02*
X034964D01*
X033544D02*
X033864D01*
X035664Y023364D02*
X037504D01*
X034344D02*
X034964D01*
X033524D02*
X033844D01*
X035624Y023384D02*
X037504D01*
X034344D02*
X034964D01*
X033524D02*
X033824D01*
X035604Y023404D02*
X037524D01*
X034364D02*
X034964D01*
X033524D02*
X033804D01*
X035584Y023424D02*
X037524D01*
X034384D02*
X034964D01*
X033504D02*
X033804D01*
X035584Y023444D02*
X037524D01*
X034384D02*
X034964D01*
X033504D02*
X033804D01*
X035564Y023464D02*
X037524D01*
X034384D02*
X034964D01*
X033484D02*
X033784D01*
X035584Y023484D02*
X037524D01*
X034404D02*
X034964D01*
X033484D02*
X033764D01*
X035584Y023504D02*
X037524D01*
X034424D02*
X034964D01*
X033484D02*
X033764D01*
X035604Y023524D02*
X037544D01*
X034424D02*
X034964D01*
X033464D02*
X033744D01*
X035624Y023544D02*
X037544D01*
X034444D02*
X034964D01*
X033464D02*
X033744D01*
X035644Y023564D02*
X037544D01*
X034444D02*
X034964D01*
X033464D02*
X033724D01*
X035684Y023584D02*
X037544D01*
X034484D02*
X034984D01*
X033464D02*
X033704D01*
X035724Y023604D02*
X037564D01*
X034484D02*
X034984D01*
X033444D02*
X033704D01*
X035764Y023624D02*
X037564D01*
X034504D02*
X034984D01*
X033444D02*
X033684D01*
X035804Y023644D02*
X037564D01*
X034504D02*
X034984D01*
X033444D02*
X033684D01*
X035844Y023664D02*
X037564D01*
X034504D02*
X034984D01*
X033444D02*
X033684D01*
X035944Y023684D02*
X037564D01*
X034524D02*
X035004D01*
X033444D02*
X033684D01*
X036004Y023704D02*
X037584D01*
X034544D02*
X035004D01*
X033444D02*
X033684D01*
X036024Y023724D02*
X037584D01*
X034544D02*
X035004D01*
X033444D02*
X033664D01*
X036084Y023744D02*
X037584D01*
X034564D02*
X035004D01*
X033444D02*
X033664D01*
X036124Y023764D02*
X037584D01*
X034564D02*
X035004D01*
X033424D02*
X033664D01*
X036184Y023784D02*
X037584D01*
X034584D02*
X035004D01*
X033424D02*
X033644D01*
X036264Y023804D02*
X037584D01*
X034604D02*
X035024D01*
X033424D02*
X033644D01*
X036304Y023824D02*
X037584D01*
X034604D02*
X035024D01*
X033424D02*
X033624D01*
X036364Y023844D02*
X037604D01*
X034604D02*
X035024D01*
X033424D02*
X033624D01*
X036384Y023864D02*
X037604D01*
X034604D02*
X035024D01*
X033424D02*
X033624D01*
X036424Y023884D02*
X037604D01*
X034624D02*
X035044D01*
X033404D02*
X033604D01*
X036464Y023904D02*
X037604D01*
X034624D02*
X035044D01*
X033404D02*
X033604D01*
X036504Y023924D02*
X037604D01*
X034644D02*
X035044D01*
X033404D02*
X033584D01*
X036544Y023944D02*
X037604D01*
X034664D02*
X035044D01*
X033424D02*
X033584D01*
X036584Y023964D02*
X037604D01*
X034664D02*
X035044D01*
X033424D02*
X033564D01*
X036584Y023984D02*
X037604D01*
X034684D02*
X035044D01*
X033424D02*
X033564D01*
X036624Y024004D02*
X037604D01*
X034684D02*
X035044D01*
X033444D02*
X033564D01*
X036644Y024024D02*
X037604D01*
X034704D02*
X035064D01*
X033444D02*
X033524D01*
X036704Y024044D02*
X037604D01*
X034724D02*
X035064D01*
X036704Y024064D02*
X037604D01*
X034724D02*
X035064D01*
X036724Y024084D02*
X037604D01*
X034744D02*
X035064D01*
X036744Y024104D02*
X037604D01*
X034744D02*
X035064D01*
X036764Y024124D02*
X037604D01*
X034764D02*
X035064D01*
X036724Y024144D02*
X037604D01*
X034804D02*
X035064D01*
X036704Y024164D02*
X037604D01*
X034824D02*
X035064D01*
X036684Y024184D02*
X037604D01*
X034844D02*
X035044D01*
X036664Y024204D02*
X037604D01*
X034844D02*
X035044D01*
X036644Y024224D02*
X037604D01*
X034844D02*
X035024D01*
X036624Y024244D02*
X037604D01*
X034884D02*
X035004D01*
X036584Y024264D02*
X037584D01*
X036584Y024284D02*
X037584D01*
X036584Y024304D02*
X037584D01*
X036564Y024324D02*
X037584D01*
X036544Y024344D02*
X037584D01*
X036544Y024364D02*
X037584D01*
X036524Y024384D02*
X037584D01*
X035844D02*
X035964D01*
X037144Y024404D02*
X037564D01*
X036524D02*
X037124D01*
X035784D02*
X035984D01*
X037164Y024424D02*
X037564D01*
X036504D02*
X037124D01*
X035764D02*
X036004D01*
X037164Y024444D02*
X037564D01*
X036504D02*
X037144D01*
X035744D02*
X036004D01*
X037184Y024464D02*
X037564D01*
X036504D02*
X037144D01*
X035724D02*
X036004D01*
X037184Y024484D02*
X037564D01*
X036504D02*
X037144D01*
X035704D02*
X036004D01*
X037224Y024504D02*
X037564D01*
X036484D02*
X037144D01*
X035664D02*
X036004D01*
X037244Y024524D02*
X037544D01*
X036484D02*
X037144D01*
X035644D02*
X036004D01*
X034204D02*
X034364D01*
X037244Y024544D02*
X037544D01*
X036484D02*
X037144D01*
X035624D02*
X036004D01*
X034144D02*
X034424D01*
X037264Y024564D02*
X037544D01*
X036484D02*
X037144D01*
X035584D02*
X036004D01*
X034124D02*
X034464D01*
X037284Y024584D02*
X037544D01*
X036484D02*
X037144D01*
X035564D02*
X035984D01*
X034104D02*
X034504D01*
X037284Y024604D02*
X037524D01*
X036484D02*
X037144D01*
X035544D02*
X035984D01*
X034084D02*
X034524D01*
X037284Y024624D02*
X037524D01*
X036484D02*
X037124D01*
X035504D02*
X035964D01*
X034044D02*
X034584D01*
X037304Y024644D02*
X037524D01*
X036484D02*
X037124D01*
X035484D02*
X035964D01*
X034024D02*
X034604D01*
X037304Y024664D02*
X037524D01*
X036484D02*
X037124D01*
X035464D02*
X035944D01*
X034024D02*
X034604D01*
X037324Y024684D02*
X037524D01*
X036484D02*
X037124D01*
X035444D02*
X035944D01*
X034024D02*
X034624D01*
X037324Y024704D02*
X037524D01*
X036504D02*
X037104D01*
X035424D02*
X035924D01*
X034024D02*
X034644D01*
X037344Y024724D02*
X037504D01*
X036504D02*
X037104D01*
X035384D02*
X035904D01*
X034004D02*
X034684D01*
X037344Y024744D02*
X037504D01*
X036504D02*
X037084D01*
X035364D02*
X035904D01*
X034004D02*
X034684D01*
X037364Y024764D02*
X037504D01*
X036524D02*
X037084D01*
X035324D02*
X035884D01*
X034004D02*
X034704D01*
X037364Y024784D02*
X037484D01*
X036524D02*
X037064D01*
X035304D02*
X035884D01*
X034004D02*
X034724D01*
X037364Y024804D02*
X037484D01*
X036544D02*
X037064D01*
X035304D02*
X035884D01*
X034004D02*
X034724D01*
X037384Y024824D02*
X037484D01*
X036544D02*
X037044D01*
X035264D02*
X035864D01*
X034004D02*
X034724D01*
X037384Y024844D02*
X037464D01*
X036564D02*
X037024D01*
X035224D02*
X035844D01*
X034004D02*
X034744D01*
X037384Y024864D02*
X037464D01*
X036584D02*
X037004D01*
X035184D02*
X035844D01*
X034004D02*
X034744D01*
X037384Y024884D02*
X037444D01*
X036584D02*
X036984D01*
X035184D02*
X035824D01*
X034004D02*
X034744D01*
X037404Y024904D02*
X037444D01*
X036604D02*
X036964D01*
X035144D02*
X035804D01*
X034024D02*
X034744D01*
X037404Y024924D02*
X037424D01*
X036624D02*
X036944D01*
X035124D02*
X035804D01*
X034024D02*
X034764D01*
X037404Y024944D02*
X037424D01*
X036664D02*
X036924D01*
X035084D02*
X035784D01*
X034024D02*
X034764D01*
X036784Y024964D02*
X036824D01*
X035044D02*
X035764D01*
X034024D02*
X034764D01*
X035004Y024984D02*
X035764D01*
X034044D02*
X034764D01*
X034964Y025004D02*
X035744D01*
X034044D02*
X034764D01*
X034924Y025024D02*
X035744D01*
X034064D02*
X034764D01*
X034864Y025044D02*
X035724D01*
X034084D02*
X034764D01*
X034804Y025064D02*
X035724D01*
X034084D02*
X034764D01*
X034124Y025084D02*
X035704D01*
X034144Y025104D02*
X035684D01*
X034144Y025124D02*
X035664D01*
X034164Y025144D02*
X035664D01*
X034204Y025164D02*
X035664D01*
X034264Y025184D02*
X035644D01*
X033744D02*
X033764D01*
X034304Y025204D02*
X035624D01*
X033744D02*
X033804D01*
X034344Y025224D02*
X035624D01*
X033744D02*
X033864D01*
X034324Y025244D02*
X035604D01*
X033764D02*
X033924D01*
X034224Y025264D02*
X035604D01*
X033784D02*
X034024D01*
X033784Y025284D02*
X035584D01*
X033804Y025304D02*
X035564D01*
X033824Y025324D02*
X035544D01*
X033844Y025344D02*
X035544D01*
X033844Y025364D02*
X035544D01*
X033864Y025384D02*
X035544D01*
X033884Y025404D02*
X035524D01*
X033904Y025424D02*
X035504D01*
X033924Y025444D02*
X035504D01*
X033944Y025464D02*
X035504D01*
X033964Y025484D02*
X035484D01*
X033984Y025504D02*
X035484D01*
X034004Y025524D02*
X035484D01*
X034024Y025544D02*
X035464D01*
X034044Y025564D02*
X035464D01*
X034084Y025584D02*
X035464D01*
X034104Y025604D02*
X035464D01*
X034124Y025624D02*
X035484D01*
X034144Y025644D02*
X035484D01*
X034184Y025664D02*
X035504D01*
X034204Y025684D02*
X035504D01*
X034244Y025704D02*
X035524D01*
X034264Y025724D02*
X035544D01*
X034264Y025744D02*
X035544D01*
X036324Y025764D02*
X036464D01*
X034324D02*
X035584D01*
X036244Y025784D02*
X036504D01*
X034364D02*
X035624D01*
X036144Y025804D02*
X036504D01*
X034384D02*
X035664D01*
X036044Y025824D02*
X036524D01*
X034404D02*
X035744D01*
X034444Y025844D02*
X036524D01*
X034464Y025864D02*
X036524D01*
X034524Y025884D02*
X036484D01*
X034564Y025904D02*
X036484D01*
X034604Y025924D02*
X036464D01*
X034644Y025944D02*
X036444D01*
X034684Y025964D02*
X036384D01*
X034724Y025984D02*
X036364D01*
X034804Y026004D02*
X036264D01*
X034844Y026024D02*
X036224D01*
X034904Y026044D02*
X036144D01*
X034964Y026064D02*
X036104D01*
X035024Y026084D02*
X036024D01*
X035104Y026104D02*
X035944D01*
X035324Y026124D02*
X035724D01*
X034245Y0401D02*
Y04356D01*
X037309Y043274D02*
Y043294D01*
X037325Y04034D02*
Y04038D01*
X037289Y043234D02*
Y043334D01*
X037305Y04032D02*
Y04042D01*
X037269Y043214D02*
Y043354D01*
X037285Y0403D02*
Y04044D01*
X037249Y043174D02*
Y043374D01*
X037265Y04028D02*
Y04048D01*
X037229Y043154D02*
Y043394D01*
X037245Y04026D02*
Y0405D01*
X037209Y043114D02*
Y043414D01*
X037225Y04024D02*
Y04052D01*
X037189Y043094D02*
Y043434D01*
X037205Y04022D02*
Y04056D01*
X037169Y043054D02*
Y043454D01*
X037185Y0402D02*
Y0406D01*
X037149Y043034D02*
Y043474D01*
X037165Y04018D02*
Y04062D01*
X037129Y042994D02*
Y043494D01*
X037145Y04016D02*
Y04066D01*
X037109Y042974D02*
Y043514D01*
X037125Y04014D02*
Y04068D01*
X037089Y042954D02*
Y043534D01*
Y042514D02*
Y042554D01*
X037105Y0411D02*
Y04114D01*
Y04012D02*
Y0407D01*
X037069Y042914D02*
Y043554D01*
Y042514D02*
Y042614D01*
X037085Y04104D02*
Y04114D01*
Y0401D02*
Y04074D01*
X037049Y042894D02*
Y043574D01*
Y042494D02*
Y042634D01*
X037065Y04102D02*
Y04114D01*
Y04008D02*
Y04076D01*
X037029Y042854D02*
Y043594D01*
Y042494D02*
Y042674D01*
X037045Y04096D02*
Y04116D01*
Y04006D02*
Y0408D01*
X037025Y04284D02*
Y04362D01*
Y0425D02*
Y04272D01*
Y04094D02*
Y04116D01*
Y04004D02*
Y04082D01*
X037005Y0428D02*
Y04364D01*
Y04248D02*
Y04276D01*
Y0409D02*
Y04118D01*
Y04002D02*
Y04086D01*
X036985Y04248D02*
Y04366D01*
Y04D02*
Y04118D01*
X036965Y04246D02*
Y04368D01*
Y03998D02*
Y0412D01*
X036945Y04246D02*
Y0437D01*
Y03996D02*
Y0412D01*
X036925Y04246D02*
Y04372D01*
Y03994D02*
Y04122D01*
X036905Y04244D02*
Y04374D01*
Y03992D02*
Y04122D01*
X036885Y04244D02*
Y04376D01*
Y0399D02*
Y04122D01*
X036865Y04242D02*
Y04376D01*
Y0399D02*
Y04122D01*
X036845Y04242D02*
Y04374D01*
Y0399D02*
Y04124D01*
X036825Y0424D02*
Y04372D01*
Y03992D02*
Y04126D01*
X036805Y0424D02*
Y04372D01*
Y03994D02*
Y04126D01*
X036785Y0424D02*
Y0437D01*
Y03996D02*
Y04126D01*
X036765Y04238D02*
Y04368D01*
Y03996D02*
Y04126D01*
X036745Y04238D02*
Y04368D01*
Y03998D02*
Y04128D01*
X036725Y04236D02*
Y04366D01*
Y04D02*
Y0413D01*
X036705Y04236D02*
Y04364D01*
Y04002D02*
Y0413D01*
X036685Y04236D02*
Y04364D01*
Y04002D02*
Y04132D01*
X036665Y04234D02*
Y04362D01*
Y04004D02*
Y04132D01*
X036645Y04234D02*
Y0436D01*
Y04004D02*
Y04132D01*
X036625Y04232D02*
Y0436D01*
Y04006D02*
Y04132D01*
X036605Y04232D02*
Y04358D01*
Y04008D02*
Y04134D01*
X036585Y04232D02*
Y04356D01*
Y04008D02*
Y04136D01*
X036565Y0423D02*
Y04354D01*
Y0401D02*
Y04136D01*
X036545Y0423D02*
Y04354D01*
Y04012D02*
Y04136D01*
X036525Y04228D02*
Y04352D01*
Y04014D02*
Y04138D01*
X036505Y04228D02*
Y0435D01*
Y04014D02*
Y04138D01*
X036485Y04226D02*
Y0435D01*
Y04016D02*
Y0414D01*
X036465Y04226D02*
Y04348D01*
Y04018D02*
Y0414D01*
X036445Y04224D02*
Y04346D01*
Y04018D02*
Y0414D01*
X036425Y04224D02*
Y04346D01*
Y0402D02*
Y04142D01*
X036405Y04224D02*
Y04344D01*
Y04022D02*
Y04142D01*
X036385Y04222D02*
Y04342D01*
Y04022D02*
Y04144D01*
X036365Y04222D02*
Y04342D01*
Y04024D02*
Y04144D01*
X036345Y0422D02*
Y04342D01*
Y04024D02*
Y04144D01*
X036325Y0422D02*
Y04342D01*
Y04024D02*
Y04146D01*
X036305Y04218D02*
Y04342D01*
Y04022D02*
Y04146D01*
X036285Y04218D02*
Y04344D01*
Y04022D02*
Y04148D01*
X036265Y04218D02*
Y04344D01*
Y04022D02*
Y04148D01*
X036245Y04216D02*
Y04346D01*
Y0402D02*
Y04148D01*
X036225Y04216D02*
Y04346D01*
Y0402D02*
Y0415D01*
X036205Y04214D02*
Y04346D01*
Y04018D02*
Y0415D01*
X036185Y04214D02*
Y04348D01*
Y04018D02*
Y04152D01*
X036165Y04214D02*
Y04348D01*
Y04018D02*
Y04152D01*
X036145Y04212D02*
Y0435D01*
Y04016D02*
Y04154D01*
X036125Y04212D02*
Y0435D01*
Y04016D02*
Y04154D01*
X036105Y0421D02*
Y0435D01*
Y04014D02*
Y04154D01*
X036085Y0421D02*
Y04352D01*
Y04014D02*
Y04156D01*
X036065Y0421D02*
Y04352D01*
Y04012D02*
Y04156D01*
X036045Y0421D02*
Y04354D01*
Y04012D02*
Y04156D01*
X036025Y04212D02*
Y04354D01*
Y04012D02*
Y04154D01*
X036005Y04216D02*
Y04354D01*
Y0401D02*
Y0415D01*
X035985Y04218D02*
Y04356D01*
Y0401D02*
Y04148D01*
X035965Y04222D02*
Y04356D01*
Y04008D02*
Y04144D01*
X035945Y04224D02*
Y04358D01*
Y04008D02*
Y04142D01*
X035925Y04226D02*
Y04358D01*
Y04008D02*
Y0414D01*
X035905Y04228D02*
Y0436D01*
Y04006D02*
Y04136D01*
X035885Y0423D02*
Y0436D01*
Y04006D02*
Y04136D01*
X035865Y04232D02*
Y0436D01*
Y04004D02*
Y04132D01*
X035845Y04234D02*
Y04364D01*
Y04002D02*
Y04132D01*
X035825Y04236D02*
Y04376D01*
Y03988D02*
Y0413D01*
X035805Y04238D02*
Y04386D01*
Y0398D02*
Y04128D01*
X035785Y0424D02*
Y04398D01*
Y03966D02*
Y04126D01*
X035765Y0424D02*
Y04408D01*
Y03958D02*
Y04126D01*
X035745Y04242D02*
Y0442D01*
Y03944D02*
Y04124D01*
X035725Y04242D02*
Y04424D01*
Y03942D02*
Y04122D01*
X035705Y04244D02*
Y04424D01*
Y03942D02*
Y04122D01*
X035685Y04244D02*
Y04424D01*
Y03942D02*
Y04122D01*
X035665Y04246D02*
Y04424D01*
Y03942D02*
Y0412D01*
X035645Y04246D02*
Y04424D01*
Y03942D02*
Y0412D01*
X035625Y04246D02*
Y04424D01*
Y03942D02*
Y04118D01*
X035605Y04248D02*
Y04424D01*
Y03942D02*
Y04118D01*
X035585Y04248D02*
Y04424D01*
Y03942D02*
Y04118D01*
X035565Y04248D02*
Y04424D01*
Y03942D02*
Y04118D01*
X035545Y0425D02*
Y04424D01*
Y03942D02*
Y04116D01*
X035525Y0425D02*
Y04424D01*
Y03942D02*
Y04116D01*
X035505Y0425D02*
Y04424D01*
Y03942D02*
Y04116D01*
X035485Y0425D02*
Y04424D01*
Y03942D02*
Y04116D01*
X035465Y0425D02*
Y04424D01*
Y03942D02*
Y04116D01*
X035445Y0425D02*
Y04424D01*
Y03942D02*
Y04116D01*
X035425Y0425D02*
Y04424D01*
Y03942D02*
Y04116D01*
X035405Y0425D02*
Y04424D01*
Y03942D02*
Y04116D01*
X035385Y0425D02*
Y04424D01*
Y03942D02*
Y04116D01*
X035365Y0425D02*
Y04424D01*
Y03942D02*
Y04116D01*
X035345Y0425D02*
Y04424D01*
Y03942D02*
Y04116D01*
X035325Y0425D02*
Y04424D01*
Y03942D02*
Y04116D01*
X035305Y0425D02*
Y04424D01*
Y03942D02*
Y04116D01*
X035285Y0425D02*
Y04424D01*
Y03942D02*
Y04116D01*
X035265Y0425D02*
Y04424D01*
Y03942D02*
Y04118D01*
X035245Y04248D02*
Y04424D01*
Y03942D02*
Y04118D01*
X035225Y04248D02*
Y04424D01*
Y03942D02*
Y04118D01*
X035205Y04248D02*
Y04424D01*
Y03942D02*
Y04118D01*
X035185Y04246D02*
Y04424D01*
Y03942D02*
Y04118D01*
X035165Y04246D02*
Y04424D01*
Y03942D02*
Y0412D01*
X035145Y04246D02*
Y04424D01*
Y03942D02*
Y0412D01*
X035125Y04244D02*
Y04424D01*
Y03942D02*
Y04122D01*
X035105Y04244D02*
Y04424D01*
Y03942D02*
Y04122D01*
X035085Y04242D02*
Y04422D01*
Y03942D02*
Y04124D01*
X035065Y0424D02*
Y04418D01*
Y03948D02*
Y04124D01*
X035045Y0424D02*
Y04404D01*
Y03962D02*
Y04126D01*
X035025Y04238D02*
Y04396D01*
Y0397D02*
Y04128D01*
X035005Y04236D02*
Y04382D01*
Y03984D02*
Y0413D01*
X034985Y04236D02*
Y04374D01*
Y03992D02*
Y0413D01*
X034965Y04234D02*
Y04364D01*
Y04D02*
Y04132D01*
X034945Y04232D02*
Y0436D01*
Y04006D02*
Y04134D01*
X034925Y0423D02*
Y04358D01*
Y04008D02*
Y04136D01*
X034905Y04228D02*
Y04358D01*
Y04008D02*
Y04138D01*
X034885Y04226D02*
Y04356D01*
Y04008D02*
Y0414D01*
X034865Y04222D02*
Y04354D01*
Y0401D02*
Y04144D01*
X034845Y0422D02*
Y04354D01*
Y04012D02*
Y04146D01*
X034825Y04216D02*
Y04354D01*
Y04012D02*
Y0415D01*
X034805Y04212D02*
Y04352D01*
Y04012D02*
Y04154D01*
X034785Y04208D02*
Y04352D01*
Y04014D02*
Y04158D01*
X034765Y04202D02*
Y0435D01*
Y04014D02*
Y04162D01*
X034745Y04196D02*
Y0435D01*
Y04016D02*
Y0417D01*
X034725Y04016D02*
Y0435D01*
X034705Y04018D02*
Y04348D01*
X034685Y04018D02*
Y04348D01*
X034665Y04018D02*
Y04346D01*
X034645Y0402D02*
Y04346D01*
X034625Y0402D02*
Y04346D01*
X034605Y04022D02*
Y04344D01*
X034585Y04022D02*
Y04344D01*
X034565Y04024D02*
Y04342D01*
X034545Y04024D02*
Y04342D01*
X034525Y04024D02*
Y04342D01*
X034505Y04026D02*
Y0434D01*
X034485Y04026D02*
Y0434D01*
X034465Y04026D02*
Y0434D01*
X034445Y04024D02*
Y04342D01*
X034425Y04022D02*
Y04342D01*
X034405Y04022D02*
Y04344D01*
X034385Y0402D02*
Y04346D01*
X034365Y04018D02*
Y04346D01*
X034345Y04018D02*
Y04348D01*
X034325Y04016D02*
Y0435D01*
X034305Y04014D02*
Y04352D01*
X034285Y04012D02*
Y04352D01*
X034265Y04012D02*
Y04354D01*
X034225Y04008D02*
Y04356D01*
X034205Y04008D02*
Y04358D01*
X034185Y04006D02*
Y0436D01*
X034165Y04004D02*
Y0436D01*
X034145Y04004D02*
Y04362D01*
X034125Y04002D02*
Y04364D01*
X034105Y04D02*
Y04364D01*
X034085Y04D02*
Y04366D01*
X034065Y03998D02*
Y04368D01*
X034045Y03996D02*
Y04368D01*
X034025Y03996D02*
Y0437D01*
X034005Y03994D02*
Y04372D01*
X033985Y03992D02*
Y04374D01*
X033965Y0399D02*
Y04374D01*
X033945Y0399D02*
Y04376D01*
X033925Y0399D02*
Y04376D01*
X033905Y03992D02*
Y04372D01*
X033885Y03994D02*
Y04372D01*
X033865Y03996D02*
Y04368D01*
X033845Y03998D02*
Y04368D01*
X033825Y04278D02*
Y04366D01*
Y04096D02*
Y04268D01*
Y04D02*
Y04088D01*
X033805Y04282D02*
Y04364D01*
Y04102D02*
Y04262D01*
Y04002D02*
Y04084D01*
X033785Y04284D02*
Y04362D01*
Y04106D02*
Y04258D01*
Y04004D02*
Y04082D01*
X033765Y04288D02*
Y0436D01*
Y04112D02*
Y04254D01*
Y04006D02*
Y04078D01*
X033745Y0429D02*
Y04358D01*
Y04116D02*
Y0425D01*
Y04008D02*
Y04076D01*
X033725Y04294D02*
Y04354D01*
Y04122D02*
Y04244D01*
Y0401D02*
Y04072D01*
X033705Y04296D02*
Y04354D01*
Y04126D02*
Y0424D01*
Y04012D02*
Y0407D01*
X033685Y04298D02*
Y0435D01*
Y04132D02*
Y04232D01*
Y04014D02*
Y04066D01*
X033665Y04302D02*
Y0435D01*
Y04136D02*
Y0423D01*
Y04016D02*
Y04064D01*
X033645Y04306D02*
Y04346D01*
Y04138D02*
Y04228D01*
Y04018D02*
Y04062D01*
X033625Y04308D02*
Y04346D01*
Y04138D02*
Y04228D01*
Y0402D02*
Y04058D01*
X033605Y04312D02*
Y04342D01*
Y04138D02*
Y04228D01*
Y04022D02*
Y04054D01*
X033585Y04314D02*
Y04342D01*
Y0414D02*
Y04226D01*
Y04024D02*
Y04052D01*
X033565Y04316D02*
Y0434D01*
Y0414D02*
Y04226D01*
Y04026D02*
Y0405D01*
X033545Y0432D02*
Y04338D01*
Y0414D02*
Y04226D01*
Y04028D02*
Y04046D01*
X033525Y04322D02*
Y04336D01*
Y0414D02*
Y04226D01*
Y0403D02*
Y04044D01*
X033505Y04324D02*
Y04334D01*
Y0414D02*
Y04226D01*
Y04032D02*
Y0404D01*
X033485Y04328D02*
Y04332D01*
Y0414D02*
Y04224D01*
Y04034D02*
Y04038D01*
X033465Y04142D02*
Y04224D01*
X033445Y04142D02*
Y04224D01*
X033425Y04142D02*
Y04224D01*
X033405Y04142D02*
Y04224D01*
X033385Y04142D02*
Y04224D01*
X033365Y04144D02*
Y04222D01*
X033345Y04144D02*
Y04222D01*
X033325Y04144D02*
Y04222D01*
X033305Y04144D02*
Y04222D01*
X033285Y04144D02*
Y04222D01*
X033265Y04144D02*
Y0422D01*
X033245Y04146D02*
Y0422D01*
X033225Y04146D02*
Y0422D01*
X033205Y04146D02*
Y0422D01*
X033185Y04146D02*
Y04218D01*
X033165Y04146D02*
Y04218D01*
X033145Y04148D02*
Y04218D01*
X033125Y04148D02*
Y04218D01*
X033105Y04148D02*
Y04218D01*
X033085Y04148D02*
Y04218D01*
X033065Y04148D02*
Y04218D01*
X033045Y04148D02*
Y04216D01*
X033025Y0415D02*
Y04216D01*
X033005Y0415D02*
Y04214D01*
D60*
X064754Y022504D02*
Y027228D01*
X070266D01*
Y022504D02*
Y027228D01*
X064754Y022504D02*
X070266D01*
X064754Y028584D02*
Y033308D01*
X070266D01*
Y028584D02*
Y033308D01*
X064754Y028584D02*
X070266D01*
X064754Y034719D02*
Y039443D01*
X070266D01*
Y034719D02*
Y039443D01*
X064754Y034719D02*
X070266D01*
D61*
X04828Y04249D02*
D03*
M02*
