G04 Layer_Color=8421504*
%FSTAX24Y24*%
%MOIN*%
G70*
G01*
G75*
%ADD10R,0.0472X0.0315*%
%ADD11R,0.0600X0.0600*%
%ADD12R,0.0335X0.0472*%
%ADD13R,0.0500X0.0550*%
%ADD14R,0.0550X0.0500*%
%ADD15R,0.0472X0.0335*%
%ADD16R,0.0700X0.0700*%
%ADD17R,0.0354X0.0591*%
D10*
X049658Y04249D02*
D03*
X046902D02*
D03*
D11*
X064015Y043661D02*
D03*
X062665D02*
D03*
D12*
X03802Y032418D02*
D03*
X03765Y0334D02*
D03*
X038394Y033402D02*
D03*
X060646Y041301D02*
D03*
X060276Y042283D02*
D03*
X06102Y042286D02*
D03*
D13*
X046925Y041291D02*
D03*
X047825D02*
D03*
X061001Y043032D02*
D03*
X060101D02*
D03*
X055726Y024094D02*
D03*
X054826D02*
D03*
X051625Y028611D02*
D03*
X050725D02*
D03*
D14*
X064409Y03108D02*
D03*
Y03018D02*
D03*
X064488Y035967D02*
D03*
Y036867D02*
D03*
X03753Y02853D02*
D03*
Y02943D02*
D03*
X038025Y030501D02*
D03*
Y031401D02*
D03*
X03505Y03549D02*
D03*
Y03459D02*
D03*
D15*
X055992Y023D02*
D03*
X05501Y02263D02*
D03*
X055008Y023374D02*
D03*
D16*
X05548Y0278D02*
D03*
Y026028D02*
D03*
D17*
X036732Y038543D02*
D03*
X035433D02*
D03*
X036732Y036378D02*
D03*
X035433D02*
D03*
M02*
