G04 Layer_Color=8388736*
%FSTAX24Y24*%
%MOIN*%
G70*
G01*
G75*
%ADD62R,0.0552X0.0395*%
%ADD63R,0.0680X0.0680*%
%ADD64R,0.0415X0.0552*%
%ADD65R,0.0580X0.0630*%
%ADD66R,0.0630X0.0580*%
%ADD67R,0.0552X0.0415*%
%ADD68R,0.0780X0.0780*%
%ADD69R,0.0434X0.0671*%
%ADD70O,0.0860X0.0780*%
%ADD71R,0.0946X0.0946*%
%ADD72O,0.0730X0.0830*%
%ADD73O,0.0830X0.0730*%
%ADD74O,0.0730X0.0760*%
%ADD75C,0.1220*%
%ADD76C,0.0867*%
%ADD77C,0.1852*%
%ADD78C,0.0710*%
%ADD79R,0.1080X0.0730*%
%ADD80O,0.1080X0.0730*%
%ADD81O,0.0930X0.0780*%
%ADD82R,0.0930X0.0780*%
%ADD83R,0.1080X0.1680*%
%ADD84R,0.1680X0.1080*%
%ADD85C,0.1261*%
%ADD86C,0.0671*%
%ADD87R,0.0671X0.0671*%
%ADD88C,0.0789*%
%ADD89C,0.0780*%
%ADD90C,0.1280*%
%ADD91C,0.0669*%
%ADD92C,0.1024*%
%ADD93C,0.0280*%
%ADD94C,0.0480*%
%ADD95C,0.0380*%
D62*
X049658Y04249D02*
D03*
X046902D02*
D03*
D63*
X064015Y043661D02*
D03*
X062665D02*
D03*
D64*
X03802Y032418D02*
D03*
X03765Y0334D02*
D03*
X038394Y033402D02*
D03*
X060646Y041301D02*
D03*
X060276Y042283D02*
D03*
X06102Y042286D02*
D03*
D65*
X046925Y041291D02*
D03*
X047825D02*
D03*
X061001Y043032D02*
D03*
X060101D02*
D03*
X055726Y024094D02*
D03*
X054826D02*
D03*
X051625Y028611D02*
D03*
X050725D02*
D03*
D66*
X064409Y03108D02*
D03*
Y03018D02*
D03*
X064488Y035967D02*
D03*
Y036867D02*
D03*
X03753Y02853D02*
D03*
Y02943D02*
D03*
X038025Y030501D02*
D03*
Y031401D02*
D03*
X03505Y03549D02*
D03*
Y03459D02*
D03*
D67*
X055992Y023D02*
D03*
X05501Y02263D02*
D03*
X055008Y023374D02*
D03*
D68*
X05548Y0278D02*
D03*
Y026028D02*
D03*
X054843Y042008D02*
D03*
D69*
X036732Y038543D02*
D03*
X035433D02*
D03*
X036732Y036378D02*
D03*
X035433D02*
D03*
D70*
X053Y039D02*
D03*
X047Y031D02*
D03*
X053Y038D02*
D03*
Y037D02*
D03*
Y036D02*
D03*
Y035D02*
D03*
Y034D02*
D03*
Y033D02*
D03*
Y032D02*
D03*
Y031D02*
D03*
Y03D02*
D03*
Y029D02*
D03*
Y028D02*
D03*
Y027D02*
D03*
Y026D02*
D03*
Y025D02*
D03*
X047D02*
D03*
Y026D02*
D03*
Y027D02*
D03*
Y028D02*
D03*
Y029D02*
D03*
Y03D02*
D03*
Y032D02*
D03*
Y033D02*
D03*
Y034D02*
D03*
Y035D02*
D03*
Y036D02*
D03*
Y037D02*
D03*
Y038D02*
D03*
D71*
Y039D02*
D03*
D72*
X044465Y035961D02*
D03*
X043485D02*
D03*
X042475D02*
D03*
X049265Y029961D02*
D03*
X050275D02*
D03*
X049265Y030961D02*
D03*
X050275D02*
D03*
X049255Y031961D02*
D03*
X049265Y032961D02*
D03*
X050265Y036961D02*
D03*
X049255D02*
D03*
X050275Y037961D02*
D03*
X049265D02*
D03*
Y038961D02*
D03*
X050275D02*
D03*
X049255Y033961D02*
D03*
Y035961D02*
D03*
X050265D02*
D03*
X049265Y034961D02*
D03*
X044465Y036961D02*
D03*
X043485D02*
D03*
X042475D02*
D03*
X044465Y037961D02*
D03*
X043485D02*
D03*
X042475D02*
D03*
X044465Y038961D02*
D03*
X043485D02*
D03*
X042475D02*
D03*
X044465Y034961D02*
D03*
X043485D02*
D03*
X042475D02*
D03*
X044465Y033961D02*
D03*
X043485D02*
D03*
X042475D02*
D03*
X044465Y032961D02*
D03*
X043485D02*
D03*
X042475D02*
D03*
X044465Y031961D02*
D03*
X043485D02*
D03*
X042475D02*
D03*
X044465Y030961D02*
D03*
X043485D02*
D03*
X042475D02*
D03*
X044465Y029961D02*
D03*
X043485D02*
D03*
X042475D02*
D03*
D73*
X037835Y038854D02*
D03*
Y037874D02*
D03*
Y036864D02*
D03*
D74*
X050265Y031961D02*
D03*
X050275Y032961D02*
D03*
X050265Y033961D02*
D03*
X050275Y034961D02*
D03*
D75*
X032488Y021D02*
D03*
X035717Y0455D02*
D03*
X038945D02*
D03*
X035717Y021D02*
D03*
X038945D02*
D03*
X032488Y0455D02*
D03*
Y039634D02*
D03*
Y042862D02*
D03*
Y036406D02*
D03*
Y033177D02*
D03*
Y029949D02*
D03*
Y02672D02*
D03*
Y023492D02*
D03*
D76*
X0625Y041681D02*
D03*
Y0405D02*
D03*
Y039319D02*
D03*
X0555Y0305D02*
D03*
X0565D02*
D03*
X0575D02*
D03*
X0585D02*
D03*
X0595D02*
D03*
X0605D02*
D03*
X0615D02*
D03*
X0625D02*
D03*
Y0365D02*
D03*
X0615D02*
D03*
X0605D02*
D03*
X0595D02*
D03*
X0585D02*
D03*
X0575D02*
D03*
X0565D02*
D03*
X0555D02*
D03*
X064921Y039646D02*
D03*
D77*
X03812Y04103D02*
D03*
Y025676D02*
D03*
D78*
X041485Y023961D02*
D03*
X042495D02*
D03*
X043475D02*
D03*
X044485D02*
D03*
X044495Y025961D02*
D03*
X043485D02*
D03*
X042505D02*
D03*
X041495D02*
D03*
X044495Y026961D02*
D03*
X043485D02*
D03*
X042505D02*
D03*
X041495D02*
D03*
X044485Y027961D02*
D03*
X043475D02*
D03*
X042495D02*
D03*
X041485D02*
D03*
D79*
X036Y0315D02*
D03*
Y0275D02*
D03*
D80*
Y0305D02*
D03*
Y0285D02*
D03*
D81*
Y03351D02*
D03*
Y03449D02*
D03*
D82*
Y0355D02*
D03*
D83*
X065295Y041968D02*
D03*
X067795D02*
D03*
D84*
X066295Y043969D02*
D03*
D85*
X051858Y0455D02*
D03*
X055087D02*
D03*
X058315D02*
D03*
X04863D02*
D03*
X045402D02*
D03*
X042173D02*
D03*
X061543D02*
D03*
X064772D02*
D03*
X068D02*
D03*
X042173Y021D02*
D03*
X045402D02*
D03*
X04863D02*
D03*
X068D02*
D03*
X064772D02*
D03*
X061543D02*
D03*
X058315D02*
D03*
X055087D02*
D03*
X051858D02*
D03*
D86*
X059488Y040197D02*
D03*
D87*
X056488Y040192D02*
D03*
D88*
X051654Y041535D02*
D03*
X050669Y04252D02*
D03*
X052638D02*
D03*
D89*
X053843Y042008D02*
D03*
D90*
X0582Y023D02*
D03*
X063Y0278D02*
D03*
X0572Y0254D02*
D03*
X063Y023D02*
D03*
X0582Y0278D02*
D03*
D91*
X065935Y024984D02*
D03*
Y024197D02*
D03*
X066935Y025378D02*
D03*
Y024591D02*
D03*
X065935Y031064D02*
D03*
Y030277D02*
D03*
X066935Y031458D02*
D03*
Y030671D02*
D03*
X065935Y037199D02*
D03*
Y036412D02*
D03*
X066935Y037593D02*
D03*
Y036805D02*
D03*
D92*
X067841Y022386D02*
D03*
Y027347D02*
D03*
Y028466D02*
D03*
Y033427D02*
D03*
Y034601D02*
D03*
Y039561D02*
D03*
D93*
X049865Y028601D02*
D03*
X051655Y036601D02*
D03*
X038245Y035981D02*
D03*
X05277Y023256D02*
D03*
X0512Y023876D02*
D03*
X05647Y033816D02*
D03*
X055515Y033256D02*
D03*
X038379Y033871D02*
D03*
X04007Y033106D02*
D03*
X03866Y02729D02*
D03*
X03802Y02731D02*
D03*
X03801Y02814D02*
D03*
X04007Y02857D02*
D03*
X05918Y04306D02*
D03*
X05463Y041D02*
D03*
X03718Y0355D02*
D03*
X0372Y03143D02*
D03*
D94*
X05549Y04411D02*
D03*
D95*
X054Y02263D02*
D03*
X03539Y02951D02*
D03*
M02*
