G04 Layer_Color=32896*
%FSTAX24Y24*%
%MOIN*%
G70*
G01*
G75*
%ADD24C,0.0100*%
D24*
X067874Y025689D02*
X067973Y025787D01*
X068169D01*
X068268Y025689D01*
Y025295D01*
X068169Y025197D01*
X067973D01*
X067874Y025295D01*
X066614Y023071D02*
X067205D01*
X066614Y023464D01*
X067205D01*
X067106Y024055D02*
X067205Y023956D01*
Y02376D01*
X067106Y023661D01*
X066713D01*
X066614Y02376D01*
Y023956D01*
X066713Y024055D01*
X065669Y025197D02*
Y025787D01*
X065276Y025197D01*
Y025787D01*
X064784D02*
X064981D01*
X065079Y025689D01*
Y025295D01*
X064981Y025197D01*
X064784D01*
X064685Y025295D01*
Y025689D01*
X064784Y025787D01*
X070394Y032283D02*
X07D01*
X069803Y032087D01*
X07Y03189D01*
X070394D01*
X070099D01*
Y032283D01*
X069803Y031693D02*
X070394D01*
Y031398D01*
X070295Y0313D01*
X070197D01*
X070099Y031398D01*
Y031693D01*
Y031398D01*
X07Y0313D01*
X069902D01*
X069803Y031398D01*
Y031693D01*
X069902Y030709D02*
X069803Y030808D01*
Y031004D01*
X069902Y031103D01*
X070295D01*
X070394Y031004D01*
Y030808D01*
X070295Y030709D01*
X070394Y029922D02*
X069803D01*
X07Y029725D01*
X069803Y029528D01*
X070394D01*
Y029332D02*
X07D01*
X069803Y029135D01*
X07Y028938D01*
X070394D01*
X070099D01*
Y029332D01*
X069803Y028741D02*
X070394D01*
X070197D01*
X069803Y028348D01*
X070099Y028643D01*
X070394Y028348D01*
X069803Y027757D02*
Y028151D01*
X070394D01*
Y027757D01*
X070099Y028151D02*
Y027954D01*
X070394Y027561D02*
X069803D01*
Y027265D01*
X069902Y027167D01*
X070099D01*
X070197Y027265D01*
Y027561D01*
Y027364D02*
X070394Y027167D01*
X069803Y02638D02*
X070394D01*
X070197D01*
X069803Y025986D01*
X070099Y026281D01*
X070394Y025986D01*
X069803Y025789D02*
Y025593D01*
Y025691D01*
X070394D01*
Y025789D01*
Y025593D01*
X069803Y025298D02*
Y024904D01*
Y025101D01*
X070394D01*
X069803Y024117D02*
X070197D01*
X070394Y02392D01*
X070197Y023723D01*
X069803D01*
X069902Y023526D02*
X069803Y023428D01*
Y023231D01*
X069902Y023133D01*
X07D01*
X070099Y023231D01*
Y02333D01*
Y023231D01*
X070197Y023133D01*
X070295D01*
X070394Y023231D01*
Y023428D01*
X070295Y023526D01*
X048898Y022795D02*
Y022205D01*
Y0225D01*
X048504D01*
Y022795D01*
Y022205D01*
X048307D02*
Y022598D01*
X04811Y022795D01*
X047914Y022598D01*
Y022205D01*
Y0225D01*
X048307D01*
X047127Y022205D02*
Y022795D01*
X046733Y022205D01*
Y022795D01*
X046241D02*
X046438D01*
X046536Y022697D01*
Y022303D01*
X046438Y022205D01*
X046241D01*
X046143Y022303D01*
Y022697D01*
X046241Y022795D01*
X045946D02*
X045749D01*
X045847D01*
Y022205D01*
X045946D01*
X045749D01*
X044864D02*
Y022795D01*
X044667Y022598D01*
X04447Y022795D01*
Y022205D01*
X044273D02*
Y022598D01*
X044076Y022795D01*
X04388Y022598D01*
Y022205D01*
Y0225D01*
X044273D01*
X043683Y022795D02*
Y022205D01*
Y022402D01*
X043289Y022795D01*
X043584Y0225D01*
X043289Y022205D01*
X042699Y022795D02*
X043092D01*
Y022205D01*
X042699D01*
X043092Y0225D02*
X042896D01*
X042502Y022205D02*
Y022795D01*
X042207D01*
X042108Y022697D01*
Y0225D01*
X042207Y022402D01*
X042502D01*
X042305D02*
X042108Y022205D01*
M02*
