G04 Layer_Color=255*
%FSTAX24Y24*%
%MOIN*%
G70*
G01*
G75*
%ADD10R,0.0472X0.0315*%
%ADD11R,0.0600X0.0600*%
%ADD12R,0.0335X0.0472*%
%ADD13R,0.0500X0.0550*%
%ADD14R,0.0550X0.0500*%
%ADD15R,0.0472X0.0335*%
%ADD16R,0.0700X0.0700*%
%ADD17R,0.0354X0.0591*%
%ADD27O,0.0780X0.0700*%
%ADD28R,0.0866X0.0866*%
%ADD29O,0.0650X0.0750*%
%ADD30O,0.0750X0.0650*%
%ADD31O,0.0650X0.0680*%
%ADD32C,0.1181*%
%ADD33C,0.0787*%
%ADD34C,0.1772*%
%ADD35C,0.0630*%
%ADD36R,0.1000X0.0650*%
%ADD37O,0.1000X0.0650*%
%ADD38O,0.0850X0.0700*%
%ADD39R,0.0850X0.0700*%
%ADD40R,0.1000X0.1600*%
%ADD41R,0.1600X0.1000*%
%ADD42C,0.0591*%
%ADD43R,0.0591X0.0591*%
%ADD44C,0.0709*%
%ADD45C,0.0700*%
%ADD46C,0.1200*%
%ADD47C,0.0984*%
D10*
X049658Y04249D02*
D03*
X046902D02*
D03*
D11*
X064015Y043661D02*
D03*
X062665D02*
D03*
D12*
X03802Y032418D02*
D03*
X03765Y0334D02*
D03*
X038394Y033402D02*
D03*
X060646Y041301D02*
D03*
X060276Y042283D02*
D03*
X06102Y042286D02*
D03*
D13*
X046925Y041291D02*
D03*
X047825D02*
D03*
X061001Y043032D02*
D03*
X060101D02*
D03*
X055726Y024094D02*
D03*
X054826D02*
D03*
X051625Y028611D02*
D03*
X050725D02*
D03*
D14*
X064409Y03108D02*
D03*
Y03018D02*
D03*
X064488Y035967D02*
D03*
Y036867D02*
D03*
X03753Y02853D02*
D03*
Y02943D02*
D03*
X038025Y030501D02*
D03*
Y031401D02*
D03*
X03505Y03549D02*
D03*
Y03459D02*
D03*
D15*
X055992Y023D02*
D03*
X05501Y02263D02*
D03*
X055008Y023374D02*
D03*
D16*
X05548Y0278D02*
D03*
Y026028D02*
D03*
X054843Y042008D02*
D03*
D17*
X036732Y038543D02*
D03*
X035433D02*
D03*
X036732Y036378D02*
D03*
X035433D02*
D03*
D27*
X053Y039D02*
D03*
X047Y031D02*
D03*
X053Y038D02*
D03*
Y037D02*
D03*
Y036D02*
D03*
Y035D02*
D03*
Y034D02*
D03*
Y033D02*
D03*
Y032D02*
D03*
Y031D02*
D03*
Y03D02*
D03*
Y029D02*
D03*
Y028D02*
D03*
Y027D02*
D03*
Y026D02*
D03*
Y025D02*
D03*
X047D02*
D03*
Y026D02*
D03*
Y027D02*
D03*
Y028D02*
D03*
Y029D02*
D03*
Y03D02*
D03*
Y032D02*
D03*
Y033D02*
D03*
Y034D02*
D03*
Y035D02*
D03*
Y036D02*
D03*
Y037D02*
D03*
Y038D02*
D03*
D28*
Y039D02*
D03*
D29*
X044465Y035961D02*
D03*
X043485D02*
D03*
X042475D02*
D03*
X049265Y029961D02*
D03*
X050275D02*
D03*
X049265Y030961D02*
D03*
X050275D02*
D03*
X049255Y031961D02*
D03*
X049265Y032961D02*
D03*
X050265Y036961D02*
D03*
X049255D02*
D03*
X050275Y037961D02*
D03*
X049265D02*
D03*
Y038961D02*
D03*
X050275D02*
D03*
X049255Y033961D02*
D03*
Y035961D02*
D03*
X050265D02*
D03*
X049265Y034961D02*
D03*
X044465Y036961D02*
D03*
X043485D02*
D03*
X042475D02*
D03*
X044465Y037961D02*
D03*
X043485D02*
D03*
X042475D02*
D03*
X044465Y038961D02*
D03*
X043485D02*
D03*
X042475D02*
D03*
X044465Y034961D02*
D03*
X043485D02*
D03*
X042475D02*
D03*
X044465Y033961D02*
D03*
X043485D02*
D03*
X042475D02*
D03*
X044465Y032961D02*
D03*
X043485D02*
D03*
X042475D02*
D03*
X044465Y031961D02*
D03*
X043485D02*
D03*
X042475D02*
D03*
X044465Y030961D02*
D03*
X043485D02*
D03*
X042475D02*
D03*
X044465Y029961D02*
D03*
X043485D02*
D03*
X042475D02*
D03*
D30*
X037835Y038854D02*
D03*
Y037874D02*
D03*
Y036864D02*
D03*
D31*
X050265Y031961D02*
D03*
X050275Y032961D02*
D03*
X050265Y033961D02*
D03*
X050275Y034961D02*
D03*
D32*
X032488Y021D02*
D03*
X035717Y0455D02*
D03*
X038945D02*
D03*
X035717Y021D02*
D03*
X038945D02*
D03*
X032488Y0455D02*
D03*
Y039634D02*
D03*
Y042862D02*
D03*
Y036406D02*
D03*
Y033177D02*
D03*
Y029949D02*
D03*
Y02672D02*
D03*
Y023492D02*
D03*
X051858Y0455D02*
D03*
X055087D02*
D03*
X058315D02*
D03*
X04863D02*
D03*
X045402D02*
D03*
X042173D02*
D03*
X061543D02*
D03*
X064772D02*
D03*
X068D02*
D03*
X042173Y021D02*
D03*
X045402D02*
D03*
X04863D02*
D03*
X068D02*
D03*
X064772D02*
D03*
X061543D02*
D03*
X058315D02*
D03*
X055087D02*
D03*
X051858D02*
D03*
D33*
X0625Y041681D02*
D03*
Y0405D02*
D03*
Y039319D02*
D03*
X0555Y0305D02*
D03*
X0565D02*
D03*
X0575D02*
D03*
X0585D02*
D03*
X0595D02*
D03*
X0605D02*
D03*
X0615D02*
D03*
X0625D02*
D03*
Y0365D02*
D03*
X0615D02*
D03*
X0605D02*
D03*
X0595D02*
D03*
X0585D02*
D03*
X0575D02*
D03*
X0565D02*
D03*
X0555D02*
D03*
D34*
X03812Y04103D02*
D03*
Y025676D02*
D03*
D35*
X041485Y023961D02*
D03*
X042495D02*
D03*
X043475D02*
D03*
X044485D02*
D03*
X044495Y025961D02*
D03*
X043485D02*
D03*
X042505D02*
D03*
X041495D02*
D03*
X044495Y026961D02*
D03*
X043485D02*
D03*
X042505D02*
D03*
X041495D02*
D03*
X044485Y027961D02*
D03*
X043475D02*
D03*
X042495D02*
D03*
X041485D02*
D03*
X065935Y024984D02*
D03*
Y024197D02*
D03*
X066935Y025378D02*
D03*
Y024591D02*
D03*
X065935Y031064D02*
D03*
Y030277D02*
D03*
X066935Y031458D02*
D03*
Y030671D02*
D03*
X065935Y037199D02*
D03*
Y036412D02*
D03*
X066935Y037593D02*
D03*
Y036805D02*
D03*
D36*
X036Y0315D02*
D03*
Y0275D02*
D03*
D37*
Y0305D02*
D03*
Y0285D02*
D03*
D38*
Y03351D02*
D03*
Y03449D02*
D03*
D39*
Y0355D02*
D03*
D40*
X065295Y041968D02*
D03*
X067795D02*
D03*
D41*
X066295Y043969D02*
D03*
D42*
X059488Y040197D02*
D03*
D43*
X056488Y040192D02*
D03*
D44*
X051654Y041535D02*
D03*
X050669Y04252D02*
D03*
X052638D02*
D03*
D45*
X053843Y042008D02*
D03*
D46*
X0582Y023D02*
D03*
X063Y0278D02*
D03*
X0572Y0254D02*
D03*
X063Y023D02*
D03*
X0582Y0278D02*
D03*
D47*
X067841Y022386D02*
D03*
Y027347D02*
D03*
Y028466D02*
D03*
Y033427D02*
D03*
Y034601D02*
D03*
Y039561D02*
D03*
M02*
